SplineFontDB: 3.0
FontName: Vazir-Light
FullName: Vazir Light
FamilyName: Vazir
Weight: Light
Copyright: Copyright (c) 2003 by Bitstream, Inc. All Rights Reserved.\nDejaVu changes are in public domain\nChanges by Saber Rastikerdar are in public domain.\nNon-Arabic(Latin) glyphs and data are imported from Roboto font under the Apache License, Version 2.0.
Version: 7.0.0
ItalicAngle: 0
UnderlinePosition: -500
UnderlineWidth: 100
Ascent: 1638
Descent: 410
InvalidEm: 0
LayerCount: 2
Layer: 0 1 "Back" 1
Layer: 1 1 "Fore" 0
XUID: [1021 502 1027637223 5256233]
UniqueID: 4020585
UseUniqueID: 1
FSType: 0
OS2Version: 1
OS2_WeightWidthSlopeOnly: 0
OS2_UseTypoMetrics: 1
CreationTime: 1431850356
ModificationTime: 1485391099
PfmFamily: 33
TTFWeight: 300
TTFWidth: 5
LineGap: 0
VLineGap: 0
Panose: 2 11 6 3 3 8 4 2 2 4
OS2TypoAscent: 2350
OS2TypoAOffset: 0
OS2TypoDescent: -1100
OS2TypoDOffset: 0
OS2TypoLinegap: 0
OS2WinAscent: 2350
OS2WinAOffset: 0
OS2WinDescent: 1100
OS2WinDOffset: 0
HheadAscent: 2350
HheadAOffset: 0
HheadDescent: -1100
HheadDOffset: 0
OS2SubXSize: 1331
OS2SubYSize: 1433
OS2SubXOff: 0
OS2SubYOff: 286
OS2SupXSize: 1331
OS2SupYSize: 1433
OS2SupXOff: 0
OS2SupYOff: 983
OS2StrikeYSize: 102
OS2StrikeYPos: 530
OS2CapHeight: 1638
OS2XHeight: 1082
OS2Vendor: 'PfEd'
OS2CodePages: 00000041.20080000
OS2UnicodeRanges: 80002003.80000000.00000008.00000000
Lookup: 1 9 0 "'fina' Terminal Forms in Arabic lookup 9" { "'fina' Terminal Forms in Arabic lookup 9 subtable"  } ['fina' ('arab' <'KUR ' 'SND ' 'URD ' 'dflt' > ) ]
Lookup: 1 9 0 "'medi' Medial Forms in Arabic lookup 11" { "'medi' Medial Forms in Arabic lookup 11 subtable"  } ['medi' ('arab' <'KUR ' 'SND ' 'URD ' 'dflt' > ) ]
Lookup: 1 9 0 "'init' Initial Forms in Arabic lookup 13" { "'init' Initial Forms in Arabic lookup 13 subtable"  } ['init' ('arab' <'KUR ' 'SND ' 'URD ' 'dflt' > ) ]

StartChar: exclam
Encoding: 33 33 1
Width: 621
VWidth: 2504
GlyphClass: 2
Flags: W
LayerCount: 2
Fore
SplineSet
191.76953125 139.530273438 m 128,-1,1
 191.76953125 164.477916577 191.76953125 164.477916577 200.241114458 185.157881864 c 128,-1,2
 208.683588231 205.76678817 208.683588231 205.76678817 225.866339372 222.950383258 c 0,3,4
 234.555505846 231.639122767 234.555505846 231.639122767 244.071462251 238.091824237 c 128,-1,5
 253.587418656 244.544525708 253.587418656 244.544525708 264.095613423 248.924197757 c 0,6,7
 284.859383514 257.578253522 284.859383514 257.578253522 310.489151774 258.245797902 c 0,8,9
 323.981114256 257.894209601 323.981114256 257.894209601 335.108741571 255.625269244 c 128,-1,10
 346.236368887 253.356328886 346.236368887 253.356328886 356.880668374 248.920001498 c 0,11,12
 363.882896189 246.001894676 363.882896189 246.001894676 370.413322289 242.186548654 c 128,-1,13
 376.94374839 238.371202633 376.94374839 238.371202633 383.126579719 233.561687263 c 128,-1,14
 389.309411048 228.752171893 389.309411048 228.752171893 395.110869595 222.950713346 c 0,15,16
 429.208984375 188.852598565 429.208984375 188.852598565 429.208984375 139.530273438 c 128,-1,17
 429.208984375 90.2078112924 429.208984375 90.2078112924 395.110869595 56.1088569675 c 0,18,19
 383.569545384 44.5675327563 383.569545384 44.5675327563 370.411372815 36.8785906191 c 128,-1,20
 357.253200247 29.1896484819 357.253200247 29.1896484819 342.38116198 25.223094967 c 128,-1,21
 327.509123714 21.2565414521 327.509123714 21.2565414521 310.488752414 20.8158007643 c 0,22,23
 297.536697523 21.1518359063 297.536697523 21.1518359063 286.203303665 23.428574879 c 0,24,25
 274.619719916 25.7557432361 274.619719916 25.7557432361 264.095877499 30.1419358077 c 128,-1,26
 253.611626445 34.5104433797 253.611626445 34.5104433797 244.113232735 40.9503727244 c 128,-1,27
 234.523731171 47.4526462083 234.523731171 47.4526462083 225.866999376 56.1085270511 c 0,28,29
 208.682611599 73.2937588127 208.682611599 73.2937588127 200.240489551 93.9018065231 c 128,-1,0
 191.76953125 114.583125023 191.76953125 114.583125023 191.76953125 139.530273438 c 128,-1,1
229.917508727 1514.68652344 m 1,30,-1
 397.02967377 1514.68652344 l 1,31,-1
 375.455082128 489.165039062 l 1,32,-1
 252.571253703 489.165039062 l 1,33,-1
 229.917508727 1514.68652344 l 1,30,-1
EndSplineSet
EndChar

StartChar: period
Encoding: 46 46 2
Width: 621
VWidth: 2504
GlyphClass: 2
Flags: W
LayerCount: 2
Fore
SplineSet
191.76953125 139.530273438 m 128,-1,1
 191.76953125 164.477916577 191.76953125 164.477916577 200.241114458 185.157881864 c 128,-1,2
 208.683588231 205.76678817 208.683588231 205.76678817 225.866339372 222.950383258 c 0,3,4
 234.555505846 231.639122767 234.555505846 231.639122767 244.071462251 238.091824237 c 128,-1,5
 253.587418656 244.544525708 253.587418656 244.544525708 264.095613423 248.924197757 c 0,6,7
 284.859383514 257.578253522 284.859383514 257.578253522 310.489151774 258.245797902 c 0,8,9
 323.981114256 257.894209601 323.981114256 257.894209601 335.108741571 255.625269244 c 128,-1,10
 346.236368887 253.356328886 346.236368887 253.356328886 356.880668374 248.920001498 c 0,11,12
 363.882896189 246.001894676 363.882896189 246.001894676 370.413322289 242.186548654 c 128,-1,13
 376.94374839 238.371202633 376.94374839 238.371202633 383.126579719 233.561687263 c 128,-1,14
 389.309411048 228.752171893 389.309411048 228.752171893 395.110869595 222.950713346 c 0,15,16
 429.208984375 188.852598565 429.208984375 188.852598565 429.208984375 139.530273438 c 128,-1,17
 429.208984375 90.2078112924 429.208984375 90.2078112924 395.110869595 56.1088569675 c 0,18,19
 383.569545384 44.5675327563 383.569545384 44.5675327563 370.411372815 36.8785906191 c 128,-1,20
 357.253200247 29.1896484819 357.253200247 29.1896484819 342.38116198 25.223094967 c 128,-1,21
 327.509123714 21.2565414521 327.509123714 21.2565414521 310.488752414 20.8158007643 c 0,22,23
 297.536697523 21.1518359063 297.536697523 21.1518359063 286.203303665 23.428574879 c 0,24,25
 274.619719916 25.7557432361 274.619719916 25.7557432361 264.095877499 30.1419358077 c 128,-1,26
 253.611626445 34.5104433797 253.611626445 34.5104433797 244.113232735 40.9503727244 c 128,-1,27
 234.523731171 47.4526462083 234.523731171 47.4526462083 225.866999376 56.1085270511 c 0,28,29
 208.682611599 73.2937588127 208.682611599 73.2937588127 200.240489551 93.9018065231 c 128,-1,0
 191.76953125 114.583125023 191.76953125 114.583125023 191.76953125 139.530273438 c 128,-1,1
EndSplineSet
EndChar

StartChar: colon
Encoding: 58 58 3
Width: 620
VWidth: 2504
GlyphClass: 2
Flags: W
LayerCount: 2
Fore
SplineSet
191.76953125 927.778320312 m 0,0,1
 191.76953125 936.20484342 191.76953125 936.20484342 192.72334106 944.067002508 c 128,-1,2
 193.677150869 951.929161596 193.677150869 951.929161596 195.566672743 959.279028065 c 0,3,4
 199.306644785 973.826779786 199.306644785 973.826779786 206.789546282 986.685786718 c 128,-1,5
 214.353599107 999.68568986 214.353599107 999.68568986 225.866669467 1011.19876022 c 0,6,7
 234.530015846 1019.8621066 234.530015846 1019.8621066 244.064210959 1026.34001358 c 128,-1,8
 253.598406073 1032.81792057 253.598406073 1032.81792057 264.14111983 1037.18510881 c 128,-1,9
 274.683833587 1041.55229705 274.683833587 1041.55229705 286.207276181 1043.85772511 c 128,-1,10
 297.730718775 1046.16315318 297.730718775 1046.16315318 310.489257814 1046.49374823 c 0,11,12
 361.402930375 1044.38579265 361.402930375 1044.38579265 395.110869596 1011.19876022 c 0,13,14
 406.661168465 999.648461349 406.661168465 999.648461349 414.201134063 986.757367272 c 128,-1,15
 421.741099662 973.866273196 421.741099662 973.866273196 425.475042019 959.208757768 c 128,-1,16
 429.208984375 944.55124234 429.208984375 944.55124234 429.208984375 927.778320312 c 0,17,18
 429.208984375 878.455858167 429.208984375 878.455858167 395.110869595 844.356903843 c 128,-1,19
 361.129011377 810.375045624 361.129011377 810.375045624 310.488593736 809.062875191 c 0,20,21
 297.536867412 809.398902614 297.536867412 809.398902614 286.2040185 811.675697771 c 0,22,23
 274.619595915 814.002865317 274.619595915 814.002865317 264.097068482 818.388509822 c 0,24,25
 261.474239777 819.481581576 261.474239777 819.481581576 258.918351788 820.701191012 c 128,-1,26
 256.362463799 821.920800448 256.362463799 821.920800448 253.865751214 823.271003905 c 128,-1,27
 251.369038629 824.621207363 251.369038629 824.621207363 248.931776887 826.102556436 c 128,-1,28
 246.494515146 827.583905509 246.494515146 827.583905509 244.113232735 829.198419599 c 0,29,30
 234.523731171 835.700693083 234.523731171 835.700693083 225.866999376 844.356573926 c 0,31,32
 208.682611599 861.541805688 208.682611599 861.541805688 200.240489551 882.149853399 c 128,-1,33
 191.76953125 902.831171897 191.76953125 902.831171897 191.76953125 927.778320312 c 0,0,1
191.76953125 139.530273438 m 128,-1,35
 191.76953125 164.477916577 191.76953125 164.477916577 200.241114458 185.157881864 c 128,-1,36
 208.683588231 205.76678817 208.683588231 205.76678817 225.866339372 222.950383258 c 0,37,38
 234.555505846 231.639122767 234.555505846 231.639122767 244.071462251 238.091824237 c 128,-1,39
 253.587418656 244.544525708 253.587418656 244.544525708 264.095613423 248.924197757 c 0,40,41
 284.859383514 257.578253522 284.859383514 257.578253522 310.489151774 258.245797902 c 0,42,43
 323.981114256 257.894209601 323.981114256 257.894209601 335.108741571 255.625269244 c 128,-1,44
 346.236368887 253.356328886 346.236368887 253.356328886 356.880668374 248.920001498 c 0,45,46
 363.882896189 246.001894676 363.882896189 246.001894676 370.413322289 242.186548654 c 128,-1,47
 376.94374839 238.371202633 376.94374839 238.371202633 383.126579719 233.561687263 c 128,-1,48
 389.309411048 228.752171893 389.309411048 228.752171893 395.110869595 222.950713346 c 0,49,50
 429.208984375 188.852598565 429.208984375 188.852598565 429.208984375 139.530273438 c 128,-1,51
 429.208984375 90.2078112924 429.208984375 90.2078112924 395.110869595 56.1088569675 c 0,52,53
 383.569545384 44.5675327563 383.569545384 44.5675327563 370.411372815 36.8785906191 c 128,-1,54
 357.253200247 29.1896484819 357.253200247 29.1896484819 342.38116198 25.223094967 c 128,-1,55
 327.509123714 21.2565414521 327.509123714 21.2565414521 310.488752414 20.8158007643 c 0,56,57
 297.536697523 21.1518359063 297.536697523 21.1518359063 286.203303665 23.428574879 c 0,58,59
 274.619719916 25.7557432361 274.619719916 25.7557432361 264.095877499 30.1419358077 c 128,-1,60
 253.611626445 34.5104433797 253.611626445 34.5104433797 244.113232735 40.9503727244 c 128,-1,61
 234.523731171 47.4526462083 234.523731171 47.4526462083 225.866999376 56.1085270511 c 0,62,63
 208.682611599 73.2937588127 208.682611599 73.2937588127 200.240489551 93.9018065231 c 128,-1,34
 191.76953125 114.583125023 191.76953125 114.583125023 191.76953125 139.530273438 c 128,-1,35
EndSplineSet
EndChar

StartChar: afii57388
Encoding: 1548 1548 5
Width: 706
VWidth: 2511
GlyphClass: 2
Flags: W
LayerCount: 2
Fore
SplineSet
360.797313861 19.0183280576 m 0,0,1
 298.563664969 20.0306797584 298.563664969 20.0306797584 266.28327297 46.115010151 c 128,-1,2
 234.002880972 72.1993405437 234.002880972 72.1993405437 226.244506676 126.3555282 c 0,3,4
 216.8160384 192.170097996 216.8160384 192.170097996 236.829815545 282.286803366 c 0,5,6
 280.651192179 501.878403721 280.651192179 501.878403721 461.32244904 642.920697592 c 1,7,-1
 483.715289166 628.991997297 l 1,8,9
 338.344664153 489.453219395 338.344664153 489.453219395 324.162400956 286.716620109 c 2,10,-1
 322.416083697 261.717892057 l 1,11,-1
 347.467398655 262.11660202 l 2,12,13
 443.539034497 263.625888283 443.539034497 263.625888283 475.207602188 224.194890227 c 0,14,15
 483.402360378 214.191200687 483.402360378 214.191200687 489.105007108 202.447770697 c 128,-1,16
 494.807653838 190.704340708 494.807653838 190.704340708 498.213195586 176.662672304 c 0,17,18
 505.193946538 147.884288162 505.193946538 147.884288162 501.80311925 110.449483015 c 0,19,20
 496.989252367 63.3275414358 496.989252367 63.3275414358 463.613157277 40.6831206225 c 128,-1,21
 430.237062187 18.0386998092 430.237062187 18.0386998092 360.797313861 19.0183280576 c 0,0,1
EndSplineSet
EndChar

StartChar: uni0615
Encoding: 1557 1557 6
Width: -29
VWidth: 2574
GlyphClass: 4
Flags: W
AnchorPoint: "Anchor-10" 623.562 1540.87 mark 0
AnchorPoint: "Anchor-9" 623.562 1540.87 mark 0
AnchorPoint: "Anchor-1" 636.984 2320.94 basemark 0
AnchorPoint: "Anchor-1" 623.562 1540.87 mark 0
LayerCount: 2
Fore
SplineSet
517.086914062 1699.59765625 m 1,0,-1
 642.040039062 1699.59765625 l 2,1,2
 740.134765625 1699.59765625 740.134765625 1699.59765625 802.122070312 1736.67285156 c 0,3,4
 865.108398438 1774.34472656 865.108398438 1774.34472656 865.108398438 1818.671875 c 0,5,6
 865.108398438 1833.19726562 865.108398438 1833.19726562 861.831054688 1844.82324219 c 128,-1,7
 858.552734375 1856.45019531 858.552734375 1856.45019531 851.841796875 1865.19140625 c 128,-1,8
 845.130859375 1873.93359375 845.130859375 1873.93359375 835.088867188 1879.37304688 c 0,9,10
 734.706054688 1935.3984375 734.706054688 1935.3984375 523.282226562 1706.31054688 c 2,11,-1
 517.086914062 1699.59765625 l 1,0,-1
940.870117188 1829.19238281 m 0,12,13
 941.034179688 1726.328125 941.034179688 1726.328125 874.04296875 1675.10058594 c 128,-1,14
 807.052734375 1623.87304688 807.052734375 1623.87304688 671.106445312 1623.87304688 c 2,15,-1
 334.36328125 1623.87304688 l 1,16,-1
 334.36328125 1699.59765625 l 1,17,-1
 436.728515625 1699.59765625 l 1,18,-1
 436.728515625 2203.76464844 l 1,19,-1
 513.703125 2202.80078125 l 1,20,-1
 512.801757812 1772.73828125 l 1,21,-1
 519.82421875 1780.70214844 l 2,22,23
 715.239257812 2002.31835938 715.239257812 2002.31835938 854.611328125 1952.13574219 c 0,24,25
 941.189453125 1920.06933594 941.189453125 1920.06933594 940.870117188 1829.19238281 c 0,12,13
EndSplineSet
EndChar

StartChar: uni061B
Encoding: 1563 1563 7
Width: 706
VWidth: 2511
GlyphClass: 2
Flags: W
LayerCount: 2
Fore
SplineSet
245.029296875 139.530273438 m 128,-1,1
 245.029296875 188.852598567 245.029296875 188.852598567 279.127576912 222.950878605 c 128,-1,2
 313.109406454 256.933544149 313.109406454 256.933544149 363.749023438 258.245701355 c 0,3,4
 381.305499076 257.790783696 381.305499076 257.790783696 396.248526768 253.769414383 c 128,-1,5
 411.191554461 249.74804507 411.191554461 249.74804507 423.990793382 242.139823119 c 128,-1,6
 436.790032303 234.531601168 436.790032303 234.531601168 448.370800613 222.950547954 c 0,7,8
 482.469726562 188.852461549 482.469726562 188.852461549 482.469726562 139.530273438 c 128,-1,9
 482.469726562 90.2079483101 482.469726562 90.2079483101 448.370635219 56.1088569675 c 0,10,11
 442.592411634 50.3306333817 442.592411634 50.3306333817 436.433831642 45.5304729027 c 128,-1,12
 430.275251651 40.7303124236 430.275251651 40.7303124236 423.690756196 36.8817252743 c 128,-1,13
 417.106260742 33.0331381251 417.106260742 33.0331381251 410.107861384 30.1244776732 c 128,-1,14
 403.109462027 27.2158172214 403.109462027 27.2158172214 395.6165855 25.2199168947 c 128,-1,15
 388.123708973 23.224016568 388.123708973 23.224016568 380.185715326 22.1299516491 c 128,-1,16
 372.24772168 21.0358867303 372.24772168 21.0358867303 363.749023438 20.8158138516 c 0,17,18
 313.109140434 22.1271281861 313.109140434 22.1271281861 279.127577046 56.1086915736 c 128,-1,0
 245.029296875 90.2078112944 245.029296875 90.2078112944 245.029296875 139.530273438 c 128,-1,1
360.784619152 487.70695616 m 0,19,20
 318.986762442 488.339610692 318.986762442 488.339610692 290.905415073 500.254580479 c 128,-1,21
 262.824067704 512.169550266 262.824067704 512.169550266 247.098245422 535.472782313 c 128,-1,22
 231.372423139 558.77601436 231.372423139 558.77601436 226.263091964 594.905020137 c 0,23,24
 222.096641291 625.270957877 222.096641291 625.270957877 224.664615412 664.102262205 c 0,25,26
 225.96434666 683.749340576 225.96434666 683.749340576 229.016069403 705.554357485 c 128,-1,27
 232.067792145 727.359374394 232.067792145 727.359374394 236.859410179 751.126294409 c 0,28,29
 281.816756338 971.697642064 281.816756338 971.697642064 461.311048668 1111.615877 c 1,30,-1
 483.709451812 1097.68341453 l 1,31,32
 474.435527487 1088.77670108 474.435527487 1088.77670108 467.157324543 1081.23031241 c 128,-1,33
 459.879121598 1073.68392373 459.879121598 1073.68392373 452.116883038 1064.96635364 c 0,34,35
 428.972948452 1038.97513471 428.972948452 1038.97513471 409.984771398 1010.99581347 c 128,-1,36
 390.969678382 982.977846658 390.969678382 982.977846658 376.11409219 952.995427504 c 0,37,38
 373.141886829 946.997157753 373.141886829 946.997157753 370.334716614 940.916358485 c 128,-1,39
 367.5275464 934.835559217 367.5275464 934.835559217 364.886578821 928.674976451 c 128,-1,40
 362.245611243 922.514393685 362.245611243 922.514393685 359.770133496 916.272675116 c 128,-1,41
 357.294655749 910.030956547 357.294655749 910.030956547 354.985478885 903.710241331 c 128,-1,42
 352.676302021 897.389526115 352.676302021 897.389526115 350.533069672 890.989068809 c 0,43,44
 339.828872232 859.022511961 339.828872232 859.022511961 333.242085496 825.109831015 c 0,45,46
 329.954767686 808.184265453 329.954767686 808.184265453 327.685600722 790.757964964 c 128,-1,47
 325.416433757 773.331664476 325.416433757 773.331664476 324.162400956 755.405096672 c 2,48,-1
 322.416083697 730.40636862 l 1,49,-1
 347.46722262 730.805075818 l 2,50,51
 443.538966186 732.313473338 443.538966186 732.313473338 475.207558195 692.882445004 c 0,52,53
 491.598009956 672.87362222 491.598009956 672.87362222 498.394622473 644.708949199 c 128,-1,54
 505.19123499 616.544276179 505.19123499 616.544276179 501.803115904 579.137926827 c 0,55,56
 498.605435732 547.836500779 498.605435732 547.836500779 483.505810907 527.737576901 c 128,-1,57
 468.406186082 507.638653022 468.406186082 507.638653022 437.990651095 497.342758094 c 128,-1,58
 407.575116108 487.046863167 407.575116108 487.046863167 360.784619152 487.70695616 c 0,19,20
EndSplineSet
EndChar

StartChar: uni061F
Encoding: 1567 1567 8
Width: 1053
VWidth: 2504
GlyphClass: 2
Flags: W
LayerCount: 2
Fore
SplineSet
507.481445312 139.530273438 m 0,0,1
 507.481445312 156.304179938 507.481445312 156.304179938 511.216239268 170.96297244 c 128,-1,2
 514.951033225 185.621764942 514.951033225 185.621764942 522.490826176 198.511768662 c 128,-1,3
 530.030619126 211.401772381 530.030619126 211.401772381 541.57972535 222.950878605 c 0,4,5
 575.561554892 256.933544149 575.561554892 256.933544149 626.201171875 258.245701355 c 0,6,7
 676.840788867 256.933544148 676.840788867 256.933544148 710.822949051 222.950547954 c 0,8,9
 728.125307417 205.648615586 728.125307417 205.648615586 736.523591208 185.139886399 c 128,-1,10
 744.921875 164.631157211 744.921875 164.631157211 744.921875 139.530273438 c 0,11,12
 744.921875 90.2079482918 744.921875 90.2079482918 710.823278748 56.1093520397 c 0,13,14
 707.917778053 53.2040654727 707.917778053 53.2040654727 704.918183474 50.5492999214 c 128,-1,15
 701.918588895 47.8945343702 701.918588895 47.8945343702 698.831501964 45.4950680181 c 128,-1,16
 695.744415032 43.0956016661 695.744415032 43.0956016661 692.572719346 40.9453921438 c 128,-1,17
 689.401023659 38.7951826215 689.401023659 38.7951826215 686.119812889 36.8752405422 c 0,18,19
 679.567171902 33.0408344158 679.567171902 33.0408344158 672.588662761 30.1324940029 c 128,-1,20
 665.610153619 27.22415359 665.610153619 27.22415359 658.129193196 25.2154355947 c 0,21,22
 643.40761665 21.2631400807 643.40761665 21.2631400807 626.202218815 20.8157867412 c 0,23,24
 575.561288872 22.1271281861 575.561288872 22.1271281861 541.579725484 56.1086915737 c 128,-1,25
 507.481445312 90.2078112946 507.481445312 90.2078112946 507.481445312 139.530273438 c 0,0,1
550.158272158 486.462890625 m 1,26,27
 547.612290214 579.533496943 547.612290214 579.533496943 417.823577266 706.370875324 c 2,28,-1
 316.09828887 805.782848799 l 2,29,30
 147.690510124 968.63326619 147.690510124 968.63326619 148.780968205 1138.32718396 c 0,31,32
 149.702937155 1307.60756756 149.702937155 1307.60756756 273.164679601 1418.5221658 c 0,33,34
 299.264531479 1442.01286254 299.264531479 1442.01286254 330.378519178 1459.66975744 c 0,35,36
 340.777166044 1465.57089157 340.777166044 1465.57089157 351.743962268 1470.82512339 c 128,-1,37
 362.710758491 1476.07935521 362.710758491 1476.07935521 374.302084894 1480.70729719 c 128,-1,38
 385.893411296 1485.33523917 385.893411296 1485.33523917 398.070381664 1489.31537673 c 128,-1,39
 410.269639905 1493.30311067 410.269639905 1493.30311067 423.057651371 1496.63491152 c 128,-1,40
 435.845662837 1499.96671237 435.845662837 1499.96671237 449.289287165 1502.65347698 c 128,-1,41
 462.732911493 1505.34024159 462.732911493 1505.34024159 476.769434764 1507.36318463 c 0,42,43
 519.070792409 1513.45870756 519.070792409 1513.45870756 566.663100918 1513.51563502 c 0,44,45
 619.422377908 1513.46144214 619.422377908 1513.46144214 668.264136364 1502.91417306 c 128,-1,46
 717.105894821 1492.36690399 717.105894821 1492.36690399 761.983167114 1471.35216853 c 128,-1,47
 806.860439408 1450.33743307 806.860439408 1450.33743307 847.809363747 1418.95449729 c 128,-1,48
 888.758288087 1387.57156151 888.758288087 1387.57156151 925.895080642 1345.76232873 c 1,49,-1
 851.954954668 1248.54508851 l 1,50,51
 787.12351469 1310.68187756 787.12351469 1310.68187756 718.047395172 1341.11283655 c 128,-1,52
 648.971275655 1371.54379554 648.971275655 1371.54379554 574.829732451 1370.23668205 c 0,53,54
 521.458621168 1369.35777757 521.458621168 1369.35777757 474.764629558 1352.28970669 c 128,-1,55
 427.941066261 1335.17570267 427.941066261 1335.17570267 388.39084088 1301.97548048 c 0,56,57
 361.359923748 1279.2854914 361.359923748 1279.2854914 343.234370587 1250.11855091 c 128,-1,58
 325.108817427 1220.95161042 325.108817427 1220.95161042 316.174407293 1186.32992304 c 128,-1,59
 307.239997158 1151.70823566 307.239997158 1151.70823566 307.255860877 1111.70579804 c 0,60,61
 307.207637017 990.441658998 307.207637017 990.441658998 442.175049141 865.411863473 c 1,62,-1
 545.919027481 762.82106213 l 2,63,64
 626.31428727 686.086201495 626.31428727 686.086201495 665.911071904 615.798111275 c 0,65,66
 703.941956214 548.292158943 703.941956214 548.292158943 704.450373023 486.462890625 c 1,67,-1
 550.158272158 486.462890625 l 1,26,27
EndSplineSet
EndChar

StartChar: uni0621
Encoding: 1569 1569 9
Width: 925
VWidth: 2673
GlyphClass: 2
Flags: W
AnchorPoint: "Anchor-7" 345.665 -308.938 basechar 0
AnchorPoint: "Anchor-10" 426.889 1241.52 basechar 0
LayerCount: 2
Fore
SplineSet
158.88671875 39.7336394328 m 1,0,-1
 158.88671875 186.295149581 l 1,1,2
 268.571150122 255.695520947 268.571150122 255.695520947 355.439700599 282.631718154 c 2,3,-1
 399.486857043 296.289858942 l 1,4,-1
 358.602203333 317.62391368 l 2,5,6
 326.504023649 334.37309119 326.504023649 334.37309119 299.881674855 352.34361407 c 128,-1,7
 273.259326061 370.314136951 273.259326061 370.314136951 252.264124728 389.389311714 c 128,-1,8
 231.268923396 408.464486476 231.268923396 408.464486476 215.528643612 428.662277039 c 128,-1,9
 199.788363829 448.860067602 199.788363829 448.860067602 189.301629559 470.306284877 c 128,-1,10
 178.814895289 491.752502151 178.814895289 491.752502151 173.372352735 514.206438696 c 128,-1,11
 167.929810181 536.660375241 167.929810181 536.660375241 167.3773907 560.490346368 c 0,12,13
 165.122980542 638.045380627 165.122980542 638.045380627 195.087835789 702.201292909 c 0,14,15
 271.763654544 868.315423497 271.763654544 868.315423497 461.26082368 871.930214014 c 0,16,17
 510.379896652 872.867230422 510.379896652 872.867230422 554.408656999 864.084795922 c 128,-1,18
 598.437417346 855.302361422 598.437417346 855.302361422 637.338370569 836.988434268 c 128,-1,19
 676.239323793 818.674507114 676.239323793 818.674507114 710.86037899 790.651491717 c 1,20,-1
 670.368078708 699.170068891 l 1,21,22
 626.612152125 721.370098718 626.612152125 721.370098718 585.626351395 732.145741718 c 128,-1,23
 544.640550666 742.921384717 544.640550666 742.921384717 503.896682499 742.847482391 c 0,24,25
 414.329561874 741.943752581 414.329561874 741.943752581 369.979588509 713.416922714 c 0,26,27
 330.968228743 687.994383692 330.968228743 687.994383692 309.667983111 653.132187725 c 128,-1,28
 288.367737479 618.269991758 288.367737479 618.269991758 286.26610757 575.527198918 c 0,29,30
 280.372746641 455.714918766 280.372746641 455.714918766 499.546363108 362.240837291 c 2,31,-1
 504.987920078 359.920099295 l 1,32,-1
 749.378765182 409.602657877 l 1,33,-1
 770.214226483 265.357865419 l 1,34,35
 508.296503813 231.274789009 508.296503813 231.274789009 158.88671875 39.7336394328 c 1,0,-1
EndSplineSet
EndChar

StartChar: uni0627
Encoding: 1575 1575 15
Width: 496
VWidth: 2673
GlyphClass: 2
Flags: W
AnchorPoint: "Anchor-10" 250.837 1715.81 basechar 0
AnchorPoint: "Anchor-7" 254.522 -304.576 basechar 0
LayerCount: 2
Fore
SplineSet
193.603515625 1499.34863281 m 1,0,-1
 330.724609375 1499.34863281 l 1,1,-1
 330.724609375 19.6796875 l 1,2,-1
 193.603515625 19.6796875 l 1,3,-1
 193.603515625 1499.34863281 l 1,0,-1
EndSplineSet
Substitution2: "'fina' Terminal Forms in Arabic lookup 9 subtable" uniFE8E
EndChar

StartChar: uni062D
Encoding: 1581 1581 21
Width: 1419
VWidth: 2673
GlyphClass: 2
Flags: W
AnchorPoint: "Anchor-10" 524.446 1400.68 basechar 0
AnchorPoint: "Anchor-7" 407.163 -840.013 basechar 0
LayerCount: 2
Fore
SplineSet
891.163381203 -686.036131989 m 0,0,1
 530.078808311 -686.097546478 530.078808311 -686.097546478 352.852926343 -551.769150652 c 0,2,3
 178.092890258 -419.308807167 178.092890258 -419.308807167 179.063323092 -151.97578057 c 0,4,5
 180.146116623 117.421254527 180.146116623 117.421254527 359.533213153 291.544564733 c 128,-1,6
 538.920309682 465.667874939 538.920309682 465.667874939 902.398521002 546.063455805 c 2,7,-1
 965.500802599 560.018174129 l 1,8,-1
 907.769355909 589.066396453 l 2,9,10
 879.723592678 603.177748894 879.723592678 603.177748894 741.699429778 648.46797548 c 0,11,12
 597.45169809 695.457449522 597.45169809 695.457449522 522.485430237 694.33131833 c 0,13,14
 391.291519491 692.133299914 391.291519491 692.133299914 230.462922618 520.102010699 c 1,15,-1
 127.677346442 594.821215509 l 1,16,-1
 136.502060027 606.686884995 l 2,17,18
 309.323947811 838.91044906 309.323947811 838.91044906 535.120265439 837.00371461 c 0,19,20
 661.837577397 835.851851272 661.837577397 835.851851272 881.772646206 747.12848792 c 0,21,22
 1141.12884223 643.302168924 1141.12884223 643.302168924 1291.73031971 611.450312805 c 1,23,-1
 1285.72925736 457.984248052 l 1,24,25
 806.237513336 421.29672934 806.237513336 421.29672934 562.38089281 273.685789339 c 0,26,27
 308.797727931 120.188817863 308.797727931 120.188817863 308.652385805 -152.241273707 c 0,28,29
 308.233881438 -351.148296211 308.233881438 -351.148296211 457.363565748 -450.342095252 c 128,-1,30
 606.493250057 -549.535894292 606.493250057 -549.535894292 895.429386028 -549.035154765 c 0,31,32
 1103.30914731 -548.952976302 1103.30914731 -548.952976302 1275.86414525 -494.988178542 c 1,33,-1
 1302.76235351 -628.388525208 l 1,34,35
 1212.91484538 -657.257284827 1212.91484538 -657.257284827 1110.10349524 -671.676295236 c 128,-1,36
 1007.29214511 -686.095305646 1007.29214511 -686.095305646 891.163381203 -686.036131989 c 0,0,1
EndSplineSet
Substitution2: "'fina' Terminal Forms in Arabic lookup 9 subtable" uniFEA2
Substitution2: "'medi' Medial Forms in Arabic lookup 11 subtable" uniFEA4
Substitution2: "'init' Initial Forms in Arabic lookup 13 subtable" uniFEA3
EndChar

StartChar: uni062F
Encoding: 1583 1583 23
Width: 1068
VWidth: 2673
GlyphClass: 2
Flags: W
AnchorPoint: "Anchor-10" 328.082 1358.53 basechar 0
AnchorPoint: "Anchor-7" 383.259 -318.766 basechar 0
LayerCount: 2
Fore
SplineSet
124.361328125 192.373230254 m 1,0,1
 264.905817485 172.153527481 264.905817485 172.153527481 406.384486158 171.680681972 c 0,2,3
 802.330371418 172.224331198 802.330371418 172.224331198 802.196258755 353.71801666 c 0,4,5
 802.22962944 372.401223731 802.22962944 372.401223731 798.069055503 392.205623158 c 128,-1,6
 793.908481567 412.010022585 793.908481567 412.010022585 785.702953597 432.967206986 c 0,7,8
 769.676491022 473.899311869 769.676491022 473.899311869 738.127853149 520.229309238 c 0,9,10
 698.627360427 579.399886228 698.627360427 579.399886228 643.899795061 639.07022722 c 0,11,12
 616.624288936 668.808607957 616.624288936 668.808607957 585.713622522 698.540438758 c 128,-1,13
 554.802956107 728.272269559 554.802956107 728.272269559 520.250070464 758.015851183 c 0,14,15
 457.783629105 811.788560107 457.783629105 811.788560107 382.707964073 866.211796422 c 1,16,-1
 465.945520393 988.591164486 l 1,17,18
 938.588681728 637.422773548 938.588681728 637.422773548 940.593705334 355.809868284 c 0,19,20
 940.719285141 343.130958875 940.719285141 343.130958875 940.0199421 330.86880518 c 128,-1,21
 939.32059906 318.606651484 939.32059906 318.606651484 937.799690263 306.78479656 c 128,-1,22
 936.278781466 294.962941636 936.278781466 294.962941636 933.949003798 283.575500989 c 128,-1,23
 931.619226129 272.188060342 931.619226129 272.188060342 928.474167971 261.187818236 c 0,24,25
 922.205273755 239.261561031 922.205273755 239.261561031 912.659190978 218.772340722 c 128,-1,26
 903.1131082 198.283120412 903.1131082 198.283120412 890.357221172 179.355294912 c 0,27,28
 782.853757676 21.4629752371 782.853757676 21.4629752371 420.262114163 21.0439435396 c 0,29,30
 238.237947646 21.1225771552 238.237947646 21.1225771552 124.361328125 40.2057245162 c 1,31,-1
 124.361328125 192.373230254 l 1,0,1
EndSplineSet
Substitution2: "'fina' Terminal Forms in Arabic lookup 9 subtable" uniFEAA
EndChar

StartChar: uni0631
Encoding: 1585 1585 25
Width: 848
VWidth: 2673
GlyphClass: 2
Flags: W
AnchorPoint: "Anchor-10" 492.563 1126.99 basechar 0
AnchorPoint: "Anchor-7" 283.748 -792.335 basechar 0
LayerCount: 2
Fore
SplineSet
513.17857596 482.269641465 m 1,0,-1
 648.202140579 546.967282484 l 1,1,2
 744.466721144 364.594630082 744.466721144 364.594630082 742.877413834 127.1801645 c 0,3,4
 741.449650518 -77.8401880482 741.449650518 -77.8401880482 645.148196725 -220.338465934 c 0,5,6
 624.854507848 -250.705092913 624.854507848 -250.705092913 600.324575071 -277.980375051 c 128,-1,7
 575.794642295 -305.255657189 575.794642295 -305.255657189 546.94531983 -329.518825398 c 128,-1,8
 518.095997365 -353.781993607 518.095997365 -353.781993607 484.926896015 -374.932928126 c 128,-1,9
 451.757794665 -396.083862646 451.757794665 -396.083862646 414.264581358 -414.164665418 c 128,-1,10
 376.771368052 -432.245468191 376.771368052 -432.245468191 334.869586694 -447.19562369 c 128,-1,11
 292.967805336 -462.145779189 292.967805336 -462.145779189 246.737189754 -473.967785125 c 128,-1,12
 200.506574172 -485.789791061 200.506574172 -485.789791061 149.778601371 -494.462736138 c 128,-1,13
 99.05062857 -503.135681216 99.05062857 -503.135681216 43.9838450969 -508.624934177 c 1,14,-1
 19.6897219083 -373.816967644 l 1,15,16
 396.413487563 -334.249850718 396.413487563 -334.249850718 539.366036646 -128.957521492 c 0,17,18
 607.740051413 -30.4184397495 607.740051413 -30.4184397495 607.233276158 111.12480679 c 0,19,20
 607.060595564 159.255872285 607.060595564 159.255872285 598.939601966 212.13557549 c 128,-1,21
 590.818608368 265.015278694 590.818608368 265.015278694 574.807564706 322.777937267 c 0,22,23
 562.132698527 368.432681298 562.132698527 368.432681298 546.635763099 408.509302202 c 128,-1,24
 531.138827671 448.585923106 531.138827671 448.585923106 513.17857596 482.269641465 c 1,0,-1
EndSplineSet
PairPos2: "'kern' Horizontal Kerning lookup 15-2" uniFBFE dx=53 dy=0 dh=53 dv=0 dx=0 dy=0 dh=0 dv=0
PairPos2: "'kern' Horizontal Kerning lookup 15-1" uniFEE7 dx=-160 dy=0 dh=-160 dv=0 dx=0 dy=0 dh=0 dv=0
PairPos2: "'kern' Horizontal Kerning lookup 15-2" uniFB90 dx=-202 dy=0 dh=-202 dv=0 dx=0 dy=0 dh=0 dv=0
PairPos2: "'kern' Horizontal Kerning lookup 15-2" uniFB8E dx=-202 dy=0 dh=-202 dv=0 dx=0 dy=0 dh=0 dv=0
PairPos2: "'kern' Horizontal Kerning lookup 15-2" uni06A9 dx=-202 dy=0 dh=-202 dv=0 dx=0 dy=0 dh=0 dv=0
PairPos2: "'kern' Horizontal Kerning lookup 15-2" uni064A dx=-53 dy=0 dh=-53 dv=0 dx=0 dy=0 dh=0 dv=0
PairPos2: "'kern' Horizontal Kerning lookup 15-2" afii57414 dx=-53 dy=0 dh=-53 dv=0 dx=0 dy=0 dh=0 dv=0
PairPos2: "'kern' Horizontal Kerning lookup 15-2" uni0649 dx=-53 dy=0 dh=-53 dv=0 dx=0 dy=0 dh=0 dv=0
PairPos2: "'kern' Horizontal Kerning lookup 15-2" uniFEEB dx=-160 dy=0 dh=-160 dv=0 dx=0 dy=0 dh=0 dv=0
PairPos2: "'kern' Horizontal Kerning lookup 15-2" uni0647 dx=-160 dy=0 dh=-160 dv=0 dx=0 dy=0 dh=0 dv=0
PairPos2: "'kern' Horizontal Kerning lookup 15-2" uni0646 dx=-53 dy=0 dh=-53 dv=0 dx=0 dy=0 dh=0 dv=0
PairPos2: "'kern' Horizontal Kerning lookup 15-2" uniFEE3 dx=-160 dy=0 dh=-160 dv=0 dx=0 dy=0 dh=0 dv=0
PairPos2: "'kern' Horizontal Kerning lookup 15-2" uni0645 dx=-160 dy=0 dh=-160 dv=0 dx=0 dy=0 dh=0 dv=0
PairPos2: "'kern' Horizontal Kerning lookup 15-2" uniFEFB dx=-128 dy=0 dh=-128 dv=0 dx=0 dy=0 dh=0 dv=0
PairPos2: "'kern' Horizontal Kerning lookup 15-2" uniFEDF dx=-128 dy=0 dh=-128 dv=0 dx=0 dy=0 dh=0 dv=0
PairPos2: "'kern' Horizontal Kerning lookup 15-2" uni0644 dx=-53 dy=0 dh=-53 dv=0 dx=0 dy=0 dh=0 dv=0
PairPos2: "'kern' Horizontal Kerning lookup 15-2" uniFEDB dx=-202 dy=0 dh=-202 dv=0 dx=0 dy=0 dh=0 dv=0
PairPos2: "'kern' Horizontal Kerning lookup 15-2" uni0643 dx=-128 dy=0 dh=-128 dv=0 dx=0 dy=0 dh=0 dv=0
PairPos2: "'kern' Horizontal Kerning lookup 15-2" uniFED7 dx=-160 dy=0 dh=-160 dv=0 dx=0 dy=0 dh=0 dv=0
PairPos2: "'kern' Horizontal Kerning lookup 15-2" uni0642 dx=-53 dy=0 dh=-53 dv=0 dx=0 dy=0 dh=0 dv=0
PairPos2: "'kern' Horizontal Kerning lookup 15-2" uniFED3 dx=-160 dy=0 dh=-160 dv=0 dx=0 dy=0 dh=0 dv=0
PairPos2: "'kern' Horizontal Kerning lookup 15-2" uni0641 dx=-160 dy=0 dh=-160 dv=0 dx=0 dy=0 dh=0 dv=0
PairPos2: "'kern' Horizontal Kerning lookup 15-2" uniFECF dx=-160 dy=0 dh=-160 dv=0 dx=0 dy=0 dh=0 dv=0
PairPos2: "'kern' Horizontal Kerning lookup 15-2" uniFECB dx=-160 dy=0 dh=-160 dv=0 dx=0 dy=0 dh=0 dv=0
PairPos2: "'kern' Horizontal Kerning lookup 15-2" uniFEC7 dx=-160 dy=0 dh=-160 dv=0 dx=0 dy=0 dh=0 dv=0
PairPos2: "'kern' Horizontal Kerning lookup 15-2" uni0638 dx=-160 dy=0 dh=-160 dv=0 dx=0 dy=0 dh=0 dv=0
PairPos2: "'kern' Horizontal Kerning lookup 15-2" uniFEC3 dx=-160 dy=0 dh=-160 dv=0 dx=0 dy=0 dh=0 dv=0
PairPos2: "'kern' Horizontal Kerning lookup 15-2" uni0637 dx=-160 dy=0 dh=-160 dv=0 dx=0 dy=0 dh=0 dv=0
PairPos2: "'kern' Horizontal Kerning lookup 15-2" uniFEBF dx=-160 dy=0 dh=-160 dv=0 dx=0 dy=0 dh=0 dv=0
PairPos2: "'kern' Horizontal Kerning lookup 15-2" uni0636 dx=-160 dy=0 dh=-160 dv=0 dx=0 dy=0 dh=0 dv=0
PairPos2: "'kern' Horizontal Kerning lookup 15-2" uniFEBB dx=-160 dy=0 dh=-160 dv=0 dx=0 dy=0 dh=0 dv=0
PairPos2: "'kern' Horizontal Kerning lookup 15-2" uni0635 dx=-160 dy=0 dh=-160 dv=0 dx=0 dy=0 dh=0 dv=0
PairPos2: "'kern' Horizontal Kerning lookup 15-2" uniFEB7 dx=-160 dy=0 dh=-160 dv=0 dx=0 dy=0 dh=0 dv=0
PairPos2: "'kern' Horizontal Kerning lookup 15-2" uni0634 dx=-160 dy=0 dh=-160 dv=0 dx=0 dy=0 dh=0 dv=0
PairPos2: "'kern' Horizontal Kerning lookup 15-2" uniFEB3 dx=-160 dy=0 dh=-160 dv=0 dx=0 dy=0 dh=0 dv=0
PairPos2: "'kern' Horizontal Kerning lookup 15-2" uni0633 dx=-160 dy=0 dh=-160 dv=0 dx=0 dy=0 dh=0 dv=0
PairPos2: "'kern' Horizontal Kerning lookup 15-2" uni0630 dx=-160 dy=0 dh=-160 dv=0 dx=0 dy=0 dh=0 dv=0
PairPos2: "'kern' Horizontal Kerning lookup 15-2" uni062F dx=-160 dy=0 dh=-160 dv=0 dx=0 dy=0 dh=0 dv=0
PairPos2: "'kern' Horizontal Kerning lookup 15-2" uniFEA7 dx=-160 dy=0 dh=-160 dv=0 dx=0 dy=0 dh=0 dv=0
PairPos2: "'kern' Horizontal Kerning lookup 15-2" uniFEA3 dx=-160 dy=0 dh=-160 dv=0 dx=0 dy=0 dh=0 dv=0
PairPos2: "'kern' Horizontal Kerning lookup 15-2" uniFE9F dx=-160 dy=0 dh=-160 dv=0 dx=0 dy=0 dh=0 dv=0
PairPos2: "'kern' Horizontal Kerning lookup 15-2" uniFE9B dx=-160 dy=0 dh=-160 dv=0 dx=0 dy=0 dh=0 dv=0
PairPos2: "'kern' Horizontal Kerning lookup 15-2" uni062B dx=-160 dy=0 dh=-160 dv=0 dx=0 dy=0 dh=0 dv=0
PairPos2: "'kern' Horizontal Kerning lookup 15-2" uniFE97 dx=-160 dy=0 dh=-160 dv=0 dx=0 dy=0 dh=0 dv=0
PairPos2: "'kern' Horizontal Kerning lookup 15-2" uni062A dx=-160 dy=0 dh=-160 dv=0 dx=0 dy=0 dh=0 dv=0
PairPos2: "'kern' Horizontal Kerning lookup 15-2" uni0629 dx=-160 dy=0 dh=-160 dv=0 dx=0 dy=0 dh=0 dv=0
PairPos2: "'kern' Horizontal Kerning lookup 15-2" uniFE91 dx=-53 dy=0 dh=-53 dv=0 dx=0 dy=0 dh=0 dv=0
PairPos2: "'kern' Horizontal Kerning lookup 15-2" uni0628 dx=-160 dy=0 dh=-160 dv=0 dx=0 dy=0 dh=0 dv=0
PairPos2: "'kern' Horizontal Kerning lookup 15-2" uni0627 dx=-128 dy=0 dh=-128 dv=0 dx=0 dy=0 dh=0 dv=0
PairPos2: "'kern' Horizontal Kerning lookup 15-2" uni0623 dx=-128 dy=0 dh=-128 dv=0 dx=0 dy=0 dh=0 dv=0
PairPos2: "'kern' Horizontal Kerning lookup 15-2" uni0622 dx=-128 dy=0 dh=-128 dv=0 dx=0 dy=0 dh=0 dv=0
PairPos2: "'kern' Horizontal Kerning lookup 15-2" uni0621 dx=-160 dy=0 dh=-160 dv=0 dx=0 dy=0 dh=0 dv=0
PairPos2: "'kern' Horizontal Kerning lookup 15-2" uniFB94 dx=-202 dy=0 dh=-202 dv=0 dx=0 dy=0 dh=0 dv=0
PairPos2: "'kern' Horizontal Kerning lookup 15-2" uniFB92 dx=-202 dy=0 dh=-202 dv=0 dx=0 dy=0 dh=0 dv=0
PairPos2: "'kern' Horizontal Kerning lookup 15-2" uni06AF dx=-202 dy=0 dh=-202 dv=0 dx=0 dy=0 dh=0 dv=0
PairPos2: "'kern' Horizontal Kerning lookup 15-2" afii57506 dx=-160 dy=0 dh=-160 dv=0 dx=0 dy=0 dh=0 dv=0
PairPos2: "'kern' Horizontal Kerning lookup 15-2" afii57440 dx=-160 dy=0 dh=-160 dv=0 dx=0 dy=0 dh=0 dv=0
PairPos2: "'kern' Horizontal Kerning lookup 15-2" uniFE8B dx=-160 dy=0 dh=-160 dv=0 dx=0 dy=0 dh=0 dv=0
Substitution2: "'fina' Terminal Forms in Arabic lookup 9 subtable" uniFEAE
EndChar

StartChar: uni0633
Encoding: 1587 1587 27
Width: 2516
VWidth: 2673
GlyphClass: 2
Flags: W
AnchorPoint: "Anchor-10" 609.451 1031.79 basechar 0
AnchorPoint: "Anchor-7" 356.423 -828.19 basechar 0
LayerCount: 2
Fore
SplineSet
1770.65562173 145.882398208 m 2,0,1
 1700.01223776 19.0391684057 1700.01223776 19.0391684057 1536.41695789 18.9550732307 c 0,2,3
 1420.54312645 19.0382437018 1420.54312645 19.0382437018 1354.08625888 86.3915942292 c 2,4,-1
 1321.76129897 119.152608033 l 1,5,-1
 1321.56170212 73.1292746052 l 2,6,7
 1321.39183792 33.9617401997 1321.39183792 33.9617401997 1317.49101284 -3.22796708062 c 128,-1,8
 1313.59018776 -40.4176743609 1313.59018776 -40.4176743609 1305.95404452 -75.6687806678 c 128,-1,9
 1298.31790128 -110.919886975 1298.31790128 -110.919886975 1286.97586282 -144.246792341 c 128,-1,10
 1275.63382435 -177.573697708 1275.63382435 -177.573697708 1260.55059076 -209.119987657 c 0,11,12
 1131.9711246 -480.993595563 1131.9711246 -480.993595563 704.734996114 -480.765630924 c 0,13,14
 415.1642934 -480.99429867 415.1642934 -480.99429867 273.077580847 -341.112687796 c 128,-1,15
 130.990868294 -201.231076922 130.990868294 -201.231076922 130.609249774 84.2281620046 c 0,16,17
 130.033670507 242.760586716 130.033670507 242.760586716 191.725343575 458.869174053 c 1,18,-1
 318.862562539 425.825780177 l 1,19,20
 268.02426078 224.124696456 268.02426078 224.124696456 268.868420382 91.3134175102 c 0,21,22
 269.970004215 -120.758879672 269.970004215 -120.758879672 382.540692883 -229.544606388 c 128,-1,23
 495.111381552 -338.330333105 495.111381552 -338.330333105 713.202850015 -338.681561128 c 0,24,25
 947.289425886 -339.358720804 947.289425886 -339.358720804 1067.05740951 -229.777806041 c 128,-1,26
 1186.82539313 -120.196891278 1186.82539313 -120.196891278 1185.56434287 95.3243381012 c 0,27,28
 1182.1091869 272.016460819 1182.1091869 272.016460819 1110.96266402 480.755485436 c 1,29,-1
 1239.51357062 525.668378308 l 1,30,-1
 1297.91043949 338.274498701 l 2,31,32
 1308.18400688 305.471542713 1308.18400688 305.471542713 1323.53572999 278.707540191 c 128,-1,33
 1338.88745311 251.943537669 1338.88745311 251.943537669 1359.11142296 231.567642689 c 128,-1,34
 1379.33539282 211.191747708 1379.33539282 211.191747708 1404.20766095 197.214245076 c 128,-1,35
 1429.07992908 183.236742444 1429.07992908 183.236742444 1458.61771637 175.863950895 c 128,-1,36
 1488.15550366 168.491159346 1488.15550366 168.491159346 1521.91173178 167.876199028 c 0,37,38
 1578.8561156 166.838797786 1578.8561156 166.838797786 1620.27029861 187.039417272 c 128,-1,39
 1661.68448162 207.240036758 1661.68448162 207.240036758 1685.8141576 247.426364227 c 128,-1,40
 1709.94383358 287.612691696 1709.94383358 287.612691696 1715.97338218 346.18933298 c 2,41,-1
 1738.70522305 567.032226562 l 1,42,-1
 1832.7598372 567.032226562 l 1,43,-1
 1855.29617922 355.313715397 l 2,44,45
 1864.85524973 263.361989461 1864.85524973 263.361989461 1918.36016945 215.484772733 c 128,-1,46
 1971.86508918 167.607556006 1971.86508918 167.607556006 2064.32486151 168.311497858 c 0,47,48
 2074.70287856 168.415335602 2074.70287856 168.415335602 2084.53487697 169.390208888 c 0,49,50
 2280.43519098 188.814335589 2280.43519098 188.814335589 2245.57423824 533.748128603 c 0,51,52
 2236.61777132 614.61730023 2236.61777132 614.61730023 2215.94237108 684.647782583 c 1,53,-1
 2352.2013939 716.026938323 l 1,54,55
 2388.9377631 589.647560558 2388.9377631 589.647560558 2388.25690873 454.09849178 c 0,56,57
 2387.64275249 232.227750146 2387.64275249 232.227750146 2307.19492276 125.613875073 c 128,-1,58
 2226.74709303 19 2226.74709303 19 2064.734375 19 c 0,59,60
 1876.02139085 19 1876.02139085 19 1803.7704134 146.031163755 c 2,61,-1
 1787.08086028 175.374619437 l 1,62,-1
 1770.65562173 145.882398208 l 2,0,1
EndSplineSet
Substitution2: "'fina' Terminal Forms in Arabic lookup 9 subtable" uniFEB2
Substitution2: "'medi' Medial Forms in Arabic lookup 11 subtable" uniFEB4
Substitution2: "'init' Initial Forms in Arabic lookup 13 subtable" uniFEB3
EndChar

StartChar: uni0635
Encoding: 1589 1589 29
Width: 2620
VWidth: 2673
GlyphClass: 2
Flags: W
AnchorPoint: "Anchor-7" 435.981 -783.72 basechar 0
AnchorPoint: "Anchor-10" 571.394 1031.79 basechar 0
LayerCount: 2
Fore
SplineSet
1542.14475508 170.379882812 m 1,0,-1
 1707.44319814 170.379891093 l 2,1,2
 2054.64356865 170.055727179 2054.64356865 170.055727179 2212.16072995 262.458329894 c 0,3,4
 2259.34103987 290.237986228 2259.34103987 290.237986228 2291.24984233 324.146079293 c 0,5,6
 2323.74006869 358.67202619 2323.74006869 358.67202619 2340.26324508 399.508240685 c 128,-1,7
 2356.82946731 440.45084084 2356.82946731 440.45084084 2356.93456428 487.075678827 c 0,8,9
 2356.90311955 526.55833635 2356.90311955 526.55833635 2342.40893009 560.087090151 c 0,10,11
 2337.54965844 571.327823765 2337.54965844 571.327823765 2331.0999479 581.802889304 c 128,-1,12
 2324.65023736 592.277954843 2324.65023736 592.277954843 2316.67956295 601.918227421 c 128,-1,13
 2308.70888853 611.5585 2308.70888853 611.5585 2299.1685206 620.458283311 c 0,14,15
 2241.02252843 673.460047038 2241.02252843 673.460047038 2139.79365808 672.413200813 c 0,16,17
 1996.39585643 671.047453675 1996.39585643 671.047453675 1853.03745461 553.69699276 c 128,-1,18
 1709.67905278 436.346531846 1709.67905278 436.346531846 1564.35305958 205.638022852 c 2,19,-1
 1542.14475508 170.379882812 l 1,0,-1
1430.72847283 228.913073724 m 2,20,21
 1759.01156414 833.460871545 1759.01156414 833.460871545 2160.24201582 827.005904634 c 0,22,23
 2348.84418458 824.27026703 2348.84418458 824.27026703 2440.68340744 689.274234754 c 0,24,25
 2457.9314116 663.966686465 2457.9314116 663.966686465 2469.43077086 635.284598552 c 128,-1,26
 2480.93013012 606.602510638 2480.93013012 606.602510638 2486.74686382 574.048884619 c 128,-1,27
 2492.56359751 541.4952586 2492.56359751 541.4952586 2492.55177614 505.248743214 c 0,28,29
 2491.57366337 339.886729295 2491.57366337 339.886729295 2398.90637838 228.027735382 c 0,30,31
 2312.849791 124.787550531 2312.849791 124.787550531 2135.75324308 72.3188838839 c 0,32,33
 1955.78276128 19 1955.78276128 19 1683.04199219 19 c 2,34,-1
 1609.11230469 19 l 2,35,36
 1437.12423041 19 1437.12423041 19 1358.84717475 81.3331710229 c 2,37,-1
 1321.72185897 110.89529861 l 1,38,-1
 1321.51970632 63.439962844 l 2,39,40
 1320.89153065 -82.8889115521 1320.89153065 -82.8889115521 1260.5922659 -209.032168342 c 0,41,42
 1130.78255559 -480.585156089 1130.78255559 -480.585156089 704.755948399 -480.765625931 c 0,43,44
 416.204978552 -480.675288233 416.204978552 -480.675288233 273.765633342 -340.436428106 c 128,-1,45
 131.429230722 -200.297980955 131.429230722 -200.297980955 130.609311838 84.2081711649 c 0,46,47
 130.201573485 242.337775821 130.201573485 242.337775821 191.746500127 458.863675393 c 1,48,-1
 318.893441944 425.817754515 l 1,49,50
 268.465741002 224.364897655 268.465741002 224.364897655 268.868332926 91.3320044469 c 0,51,52
 269.463796009 -49.9039755575 269.463796009 -49.9039755575 319.87531663 -145.722254304 c 128,-1,53
 370.286837251 -241.540533051 370.286837251 -241.540533051 469.100987473 -289.999687621 c 128,-1,54
 567.915137695 -338.458842191 567.915137695 -338.458842191 713.195228322 -338.681537552 c 0,55,56
 947.220431713 -339.452398317 947.220431713 -339.452398317 1067.00691224 -229.859163767 c 128,-1,57
 1186.79339277 -120.265929217 1186.79339277 -120.265929217 1185.56520566 95.1752739488 c 0,58,59
 1185.42127207 124.814598878 1185.42127207 124.814598878 1183.03318789 155.952541011 c 128,-1,60
 1180.64946603 187.020614884 1180.64946603 187.020614884 1176.05072817 219.42872967 c 128,-1,61
 1171.46040599 251.770538866 1171.46040599 251.770538866 1164.68102419 285.492803352 c 0,62,63
 1161.29517553 302.334823373 1161.29517553 302.334823373 1157.36705656 319.494596547 c 128,-1,64
 1153.43893759 336.654369722 1153.43893759 336.654369722 1148.96922293 354.131884399 c 0,65,66
 1147.18252811 361.119006647 1147.18252811 361.119006647 1145.31018464 368.156382284 c 128,-1,67
 1143.43784118 375.193757921 1143.43784118 375.193757921 1141.48073075 382.278277526 c 128,-1,68
 1139.52362033 389.362797131 1139.52362033 389.362797131 1137.480864 396.497812501 c 128,-1,69
 1135.43810768 403.632827872 1135.43810768 403.632827872 1133.3107023 410.815042682 c 128,-1,70
 1131.18329692 417.997257493 1131.18329692 417.997257493 1128.97024839 425.230210446 c 0,71,72
 1120.67505458 452.33988704 1120.67505458 452.33988704 1110.97240683 480.758889363 c 1,73,-1
 1239.51355495 525.668372834 l 1,74,-1
 1297.89953519 338.308813225 l 2,75,76
 1303.65212584 319.850045526 1303.65212584 319.850045526 1310.20541168 304.37521894 c 128,-1,77
 1316.75869751 288.900392353 1316.75869751 288.900392353 1324.61467599 275.627551948 c 128,-1,78
 1332.47065447 262.354711543 1332.47065447 262.354711543 1341.45249747 251.922931789 c 0,79,80
 1346.04906929 246.584558373 1346.04906929 246.584558373 1351.03725243 242.002466562 c 128,-1,81
 1356.02543558 237.420374751 1356.02543558 237.420374751 1361.39463398 233.599959802 c 128,-1,82
 1366.76383237 229.779544852 1366.76383237 229.779544852 1372.50975749 226.793425412 c 128,-1,83
 1378.25568261 223.807305973 1378.25568261 223.807305973 1384.28184225 221.687090482 c 128,-1,84
 1390.3080019 219.566874991 1390.3080019 219.566874991 1396.70173007 218.357221369 c 128,-1,85
 1403.09545824 217.147567746 1403.09545824 217.147567746 1409.67436663 216.906297615 c 2,86,-1
 1423.92211938 216.384216836 l 1,87,-1
 1430.72847283 228.913073724 l 2,20,21
EndSplineSet
Substitution2: "'fina' Terminal Forms in Arabic lookup 9 subtable" uniFEBA
Substitution2: "'medi' Medial Forms in Arabic lookup 11 subtable" uniFEBC
Substitution2: "'init' Initial Forms in Arabic lookup 13 subtable" uniFEBB
EndChar

StartChar: uni0637
Encoding: 1591 1591 31
Width: 1533
VWidth: 2673
GlyphClass: 2
Flags: W
AnchorPoint: "Anchor-10" 419.04 1673.92 basechar 0
AnchorPoint: "Anchor-7" 712.505 -364.215 basechar 0
LayerCount: 2
Fore
SplineSet
453.071512914 170.379882812 m 1,0,-1
 618.368979443 170.379891093 l 2,1,2
 965.570355501 170.055727166 965.570355501 170.055727166 1123.08639309 262.458260354 c 0,3,4
 1267.547876 347.515440886 1267.547876 347.515440886 1267.86034597 487.075119618 c 0,5,6
 1267.79933039 566.627457464 1267.79933039 566.627457464 1210.09536258 620.458206586 c 0,7,8
 1151.94928624 673.460047037 1151.94928624 673.460047037 1050.72041654 672.413200819 c 0,9,10
 767.607475757 669.716790556 767.607475757 669.716790556 475.27981739 205.638022846 c 2,11,-1
 453.071512914 170.379882812 l 1,0,-1
593.96875 19 m 2,12,-1
 124.447265625 19 l 1,13,-1
 124.447265625 168.214106325 l 1,14,-1
 309.59065454 168.349710307 l 1,15,-1
 316.276811101 179.592571774 l 2,16,17
 351.976997354 239.693299691 351.976997354 239.693299691 376.692648336 273.481784579 c 2,18,-1
 381.12890625 279.546542233 l 1,19,-1
 381.12890625 1500.00292969 l 1,20,-1
 518.249023438 1500.00292969 l 1,21,-1
 518.249023438 490.142573293 l 1,22,-1
 571.428309497 551.566814106 l 2,23,24
 809.686789194 827.00012545 809.686789194 827.00012545 1071.50743285 827.003906254 c 0,25,26
 1165.21898809 827.002033745 1165.21898809 827.002033745 1234.65904624 792.719645889 c 0,27,28
 1304.09910438 758.437258033 1304.09910438 758.437258033 1351.66333712 689.196262647 c 0,29,30
 1377.76997351 651.236376349 1377.76997351 651.236376349 1390.74876873 605.407687096 c 0,31,32
 1403.72756394 559.578997842 1403.72756394 559.578997842 1403.47899797 505.324588199 c 0,33,34
 1403.01591787 463.541531544 1403.01591787 463.541531544 1397.21875704 425.433224454 c 0,35,36
 1395.30614283 412.823285603 1395.30614283 412.823285603 1392.65396347 400.551235965 c 0,37,38
 1390.0017841 388.279186327 1390.0017841 388.279186327 1386.61864867 376.370562955 c 0,39,40
 1383.23551325 364.461939582 1383.23551325 364.461939582 1379.11570292 352.885331408 c 0,41,42
 1372.87895924 335.38874961 1372.87895924 335.38874961 1365.32706569 318.701751847 c 0,43,44
 1357.77517214 302.014754084 1357.77517214 302.014754084 1348.95517254 286.226912866 c 0,45,46
 1331.31738105 254.874456982 1331.31738105 254.874456982 1306.95427111 225.958427884 c 0,47,48
 1133.14508595 19 1133.14508595 19 593.96875 19 c 2,12,-1
EndSplineSet
Substitution2: "'fina' Terminal Forms in Arabic lookup 9 subtable" uniFEC2
Substitution2: "'medi' Medial Forms in Arabic lookup 11 subtable" uniFEC4
Substitution2: "'init' Initial Forms in Arabic lookup 13 subtable" uniFEC3
EndChar

StartChar: uni0639
Encoding: 1593 1593 33
Width: 1345
VWidth: 2673
GlyphClass: 2
Flags: W
AnchorPoint: "Anchor-10" 512.941 1514.83 basechar 0
AnchorPoint: "Anchor-7" 398.943 -932.565 basechar 0
LayerCount: 2
Fore
SplineSet
1020.36684471 798.636398762 m 1,0,1
 857.951673883 892.005879633 857.951673883 892.005879633 731.779438282 892.363354341 c 0,2,3
 586.871884995 891.969851141 586.871884995 891.969851141 526.652883089 784.932217825 c 0,4,5
 467.01600904 678.648318346 467.01600904 678.648318346 535.190247726 565.769014256 c 0,6,7
 565.843056818 515.016307403 565.843056818 515.016307403 594.950570369 479.232096361 c 128,-1,8
 624.05808392 443.447885318 624.05808392 443.447885318 652.666912208 421.981261751 c 2,9,-1
 659.187649492 417.088428978 l 1,10,-1
 667.226662504 418.442717379 l 2,11,12
 930.681695172 462.825540784 930.681695172 462.825540784 1152.17934482 439.109551062 c 1,13,-1
 1135.30427771 299.325432924 l 1,14,15
 866.273015606 308.634652951 866.273015606 308.634652951 697.901830442 265.548600574 c 0,16,17
 484.69002293 209.826440818 484.69002293 209.826440818 375.355711767 99.6932208067 c 128,-1,18
 266.021400604 -10.4399992044 266.021400604 -10.4399992044 266.044922025 -173.594291586 c 0,19,20
 266.0212116 -362.237009114 266.0212116 -362.237009114 415.231989426 -455.881089661 c 128,-1,21
 564.442767252 -549.525170209 564.442767252 -549.525170209 852.817753299 -549.035155769 c 0,22,23
 877.922241766 -549.029504963 877.922241766 -549.029504963 903.803532248 -547.764573389 c 128,-1,24
 929.68482273 -546.499641815 929.68482273 -546.499641815 956.237987858 -543.984012617 c 128,-1,25
 982.791152986 -541.468383419 982.791152986 -541.468383419 1010.05425412 -537.716529694 c 128,-1,26
 1037.31735526 -533.964675969 1037.31735526 -533.964675969 1065.27024207 -528.974608087 c 128,-1,27
 1093.22312888 -523.984540205 1093.22312888 -523.984540205 1121.81343389 -517.782008889 c 128,-1,28
 1150.40373891 -511.579477574 1150.40373891 -511.579477574 1179.69608882 -504.151920421 c 1,29,-1
 1206.73113797 -638.231057491 l 1,30,31
 1120.36644291 -662.340296441 1120.36644291 -662.340296441 1031.52328158 -674.179688395 c 128,-1,32
 942.68012025 -686.019080348 942.68012025 -686.019080348 848.55269626 -686.036132835 c 0,33,34
 487.794267066 -686.018314251 487.794267066 -686.018314251 312.014698705 -558.122474437 c 128,-1,35
 136.235130345 -430.226634623 136.235130345 -430.226634623 136.455057088 -173.216750265 c 0,36,37
 136.98185146 180.790011456 136.98185146 180.790011456 507.274426781 350.192917102 c 2,38,-1
 530.465998918 360.802688857 l 1,39,-1
 477.305932993 421.503610726 l 2,40,41
 370.988111671 543.146523411 370.988111671 543.146523411 370.753687797 684.875290456 c 0,42,43
 370.036548618 834.423890556 370.036548618 834.423890556 471.349304371 940.524676747 c 0,44,45
 501.516186704 972.557132946 501.516186704 972.557132946 539.762766393 993.631207969 c 128,-1,46
 578.009346081 1014.70528299 578.009346081 1014.70528299 625.491832701 1025.03654198 c 128,-1,47
 672.974319321 1035.36780096 672.974319321 1035.36780096 729.51823037 1034.59292135 c 0,48,49
 892.024025354 1032.17601433 892.024025354 1032.17601433 1070.01615174 913.180009541 c 1,50,-1
 1020.36684471 798.636398762 l 1,0,1
EndSplineSet
Substitution2: "'fina' Terminal Forms in Arabic lookup 9 subtable" uniFECA
Substitution2: "'medi' Medial Forms in Arabic lookup 11 subtable" uniFECC
Substitution2: "'init' Initial Forms in Arabic lookup 13 subtable" uniFECB
EndChar

StartChar: afii57440
Encoding: 1600 1600 35
Width: 260
VWidth: 2673
GlyphClass: 2
Flags: W
AnchorPoint: "Anchor-10" 121.789 1436.09 basechar 0
AnchorPoint: "Anchor-7" 115.397 -189.445 basechar 0
LayerCount: 2
Fore
SplineSet
-6.26953125 19 m 2,0,1
 -36.2602889049 19 -36.2602889049 19 -49.2380546087 33.6136763487 c 128,-1,2
 -62.2158203125 48.2273526974 -62.2158203125 48.2273526974 -62.2158203125 84.4111328125 c 2,3,-1
 -62.2158203125 101.455078125 l 2,4,5
 -62.2158203125 138.840549777 -62.2158203125 138.840549777 -49.1264825585 153.918810045 c 128,-1,6
 -36.0371448046 168.997070312 -36.0371448046 168.997070312 -6.26953125 168.997070312 c 2,7,-1
 262.397527421 168.997070312 l 1,8,9
 270.051757812 152.675290193 270.051757812 152.675290193 270.051757812 101.455078125 c 2,10,-1
 270.051775816 84.4431481266 l 2,11,12
 270.028749419 67.7165025778 270.028749419 67.7165025778 268.780999416 53.3774180029 c 128,-1,13
 267.533249413 39.0383334279 267.533249413 39.0383334279 265.891224496 30.8774190728 c 128,-1,14
 264.24919958 22.7165047177 264.24919958 22.7165047177 262.472437009 19 c 2,15,-1
 -6.26953125 19 l 2,0,1
EndSplineSet
EndChar

StartChar: uni0643
Encoding: 1603 1603 38
Width: 1944
VWidth: 2673
GlyphClass: 2
Flags: W
AnchorPoint: "Anchor-10" 608.784 1516.53 basechar 0
AnchorPoint: "Anchor-7" 615.407 -312.01 basechar 0
LayerCount: 2
Fore
SplineSet
910.864978382 167.931640221 m 0,0,1
 1086.80097153 168.000311186 1086.80097153 168.000311186 1200.86833225 177.599469725 c 0,2,3
 1421.34324062 196.733454687 1421.34324062 196.733454687 1534.30608633 284.65753976 c 0,4,5
 1647.26893204 372.581624832 1647.26893204 372.581624832 1644.19433594 528.383743636 c 2,6,-1
 1644.19433594 1500.51269531 l 1,7,-1
 1781.63476562 1500.51269531 l 1,8,-1
 1781.63477721 491.653818968 l 2,9,10
 1781.81087951 332.214849982 1781.81087951 332.214849982 1699.9979296 227.833281535 c 0,11,12
 1618.1849797 123.451713088 1618.1849797 123.451713088 1450.8748874 70.8606251547 c 0,13,14
 1398.06529911 54.1579154815 1398.06529911 54.1579154815 1320.17256396 42.7977806591 c 0,15,16
 1242.27982881 31.4376458368 1242.27982881 31.4376458368 1138.49195493 25.5086931802 c 0,17,18
 1034.70408106 19.5797405235 1034.70408106 19.5797405235 907.058479914 19.3720427888 c 0,19,20
 900.328814145 19.3605880316 900.328814145 19.3605880316 893.657352998 19.3878853279 c 0,21,22
 502.170432783 20.9895555175 502.170432783 20.9895555175 311.739498147 153.295971199 c 0,23,24
 121.30856351 285.602386881 121.30856351 285.602386881 122.511580077 549.126627049 c 0,25,26
 122.950635409 664.043213459 122.950635409 664.043213459 153.996160884 763.829141243 c 1,27,-1
 278.980298707 733.062134212 l 1,28,29
 269.383768512 683.295874045 269.383768512 683.295874045 264.976520423 642.358644214 c 0,30,31
 262.006564639 617.904819085 262.006564639 617.904819085 260.719607589 594.784276554 c 0,32,33
 259.432650538 571.663734023 259.432650538 571.663734023 259.885121768 550.609306727 c 0,34,35
 262.060646446 358.313256284 262.060646446 358.313256284 427.368208283 263.139769897 c 0,36,37
 592.67577012 167.96628351 592.67577012 167.96628351 910.864978382 167.931640221 c 0,0,1
686.41796875 770.228192377 m 1,38,39
 910.00472685 744.636459834 910.00472685 744.636459834 1004.37155991 777.277142408 c 0,40,41
 1049.62680587 793.017490362 1049.62680587 793.017490362 1082.64791946 826.038603968 c 0,42,43
 1118.54943836 861.940122855 1118.54943836 861.940122855 1119.03102491 897.65026775 c 0,44,45
 1118.78949841 938.826110957 1118.78949841 938.826110957 1086.36803002 963.132985913 c 0,46,47
 1053.94656163 987.439860868 1053.94656163 987.439860868 996.847700316 996.063964614 c 0,48,49
 934.314289059 1005.49361089 934.314289059 1005.49361089 894.545541945 1029.18957986 c 0,50,51
 854.776794832 1052.88554884 854.776794832 1052.88554884 836.361064162 1091.06635756 c 0,52,53
 817.945333492 1129.24716629 817.945333492 1129.24716629 819.177885994 1183.67884665 c 0,54,55
 824.120881366 1385.29319672 824.120881366 1385.29319672 1197.17871094 1413.42100347 c 1,56,-1
 1197.17871094 1325.90370762 l 1,57,58
 1143.98914926 1320.86460871 1143.98914926 1320.86460871 1100.47897592 1312.02275821 c 0,59,60
 1074.89989599 1306.82474626 1074.89989599 1306.82474626 1052.33880816 1300.22546684 c 0,61,62
 1029.77772034 1293.62618743 1029.77772034 1293.62618743 1010.15274313 1285.5615219 c 0,63,64
 996.938905337 1280.13193005 996.938905337 1280.13193005 985.130084981 1274.0519811 c 0,65,66
 973.321264626 1267.97203216 973.321264626 1267.97203216 962.695730062 1261.07940362 c 0,67,68
 952.070195498 1254.18677507 952.070195498 1254.18677507 942.879822937 1246.59064716 c 0,69,70
 935.012030316 1240.10183717 935.012030316 1240.10183717 928.968488812 1232.26247051 c 0,71,72
 922.924947308 1224.42310385 922.924947308 1224.42310385 918.904133263 1215.59517189 c 0,73,74
 914.883319217 1206.76723993 914.883319217 1206.76723993 912.825448671 1196.99045739 c 0,75,76
 910.767578125 1187.21367486 910.767578125 1187.21367486 910.767578125 1176.77441406 c 0,77,78
 910.767578125 1087.22594459 910.767578125 1087.22594459 1048.38774597 1066.37869401 c 0,79,80
 1132.61296865 1053.40516855 1132.61296865 1053.40516855 1171.35880528 1019.05482737 c 0,81,82
 1210.10464191 984.704486192 1210.10464191 984.704486192 1210.11621124 927.578573841 c 0,83,84
 1210.10766817 879.53446124 1210.10766817 879.53446124 1195.67015002 839.810295975 c 0,85,86
 1181.23263187 800.086130709 1181.23263187 800.086130709 1151.81476638 767.734931039 c 0,87,88
 1122.39690089 735.383731369 1122.39690089 735.383731369 1077.48035808 710.024793891 c 0,89,90
 945.190572824 635.338349632 945.190572824 635.338349632 686.41796875 673.78248129 c 1,91,-1
 686.41796875 770.228192377 l 1,38,39
EndSplineSet
Substitution2: "'fina' Terminal Forms in Arabic lookup 9 subtable" uniFEDA
Substitution2: "'medi' Medial Forms in Arabic lookup 11 subtable" uniFEDC
Substitution2: "'init' Initial Forms in Arabic lookup 13 subtable" uniFEDB
EndChar

StartChar: uni0644
Encoding: 1604 1604 39
Width: 1427
VWidth: 2673
GlyphClass: 2
Flags: W
AnchorPoint: "Anchor-10" 497.479 1284.4 basechar 0
AnchorPoint: "Anchor-7" 458.345 -642.577 basechar 0
LayerCount: 2
Fore
SplineSet
268.868475642 59.3491564903 m 0,0,1
 269.975505211 -139.255396527 269.975505211 -139.255396527 382.834937382 -239.821750846 c 0,2,3
 495.694369554 -340.388105166 495.694369554 -340.388105166 713.488150325 -338.680801374 c 0,4,5
 916.447054314 -336.773116914 916.447054314 -336.773116914 1020.59412537 -226.894145509 c 0,6,7
 1124.74119642 -117.015174105 1124.74119642 -117.015174105 1125.18843419 94.7645632703 c 2,8,-1
 1128.15230086 1498.23925781 l 1,9,-1
 1264.08013191 1498.23925781 l 1,10,-1
 1263.45518594 275.147016123 l 2,11,12
 1263.00232052 140.720815899 1263.00232052 140.720815899 1255.06782113 31.4400686242 c 0,13,14
 1235.59685036 -213.731391984 1235.59685036 -213.731391984 1123.29223712 -330.643763457 c 0,15,16
 980.852439491 -479.050243169 980.852439491 -479.050243169 704.571066895 -480.766111488 c 0,17,18
 415.056802112 -482.837934029 415.056802112 -482.837934029 273.171814686 -350.786446405 c 0,19,20
 131.286827261 -218.734958781 131.286827261 -218.734958781 130.609263407 52.2672676552 c 0,21,22
 130.41808371 108.047927258 130.41808371 108.047927258 137.150907809 169.533343939 c 0,23,24
 143.883731907 231.018760619 143.883731907 231.018760619 157.544122784 298.107559268 c 0,25,26
 171.20451366 365.196357917 171.20451366 365.196357917 191.743271044 437.560803705 c 1,27,-1
 318.861446892 404.5223592 l 1,28,29
 268.024178444 202.83504358 268.024178444 202.83504358 268.868475642 59.3491564903 c 0,0,1
EndSplineSet
Substitution2: "'fina' Terminal Forms in Arabic lookup 9 subtable" uniFEDE
Substitution2: "'medi' Medial Forms in Arabic lookup 11 subtable" uniFEE0
Substitution2: "'init' Initial Forms in Arabic lookup 13 subtable" uniFEDF
EndChar

StartChar: uni0645
Encoding: 1605 1605 40
Width: 1216
VWidth: 2375
GlyphClass: 2
Flags: W
AnchorPoint: "Anchor-10" 629.793 1160.83 basechar 0
AnchorPoint: "Anchor-7" 187.896 -859.477 basechar 0
LayerCount: 2
Fore
SplineSet
388.568618149 305.802238377 m 2,0,1
 472.574437141 510.344397416 472.574437141 510.344397416 540.066369756 596.353679762 c 0,2,3
 640.19334091 722.992892249 640.19334091 722.992892249 759.619148423 722.900394244 c 0,4,5
 911.281776885 722.993998422 911.281776885 722.993998422 1011.00098526 584.735175486 c 0,6,7
 1097.00705922 465.838609149 1097.00705922 465.838609149 1097.17579335 317.798783592 c 0,8,9
 1097.00793354 169.041418895 1097.00793354 169.041418895 1025.12218606 85.2314518087 c 0,10,11
 947.420498242 -3.92568899589 947.420498242 -3.92568899589 837.102680239 -2.97908895955 c 0,12,13
 715.834929021 -2.03698808405 715.834929021 -2.03698808405 628.196844972 44.8800589987 c 0,14,15
 545.460109044 88.491424705 545.460109044 88.491424705 504.805984544 113.782885433 c 0,16,17
 457.969932866 142.209264464 457.969932866 142.209264464 410.893094983 140.364771773 c 0,18,19
 261.553710938 134.215352024 261.553710938 134.215352024 261.553710938 -170.137695312 c 2,20,-1
 261.553710938 -655.337890625 l 1,21,-1
 124.447265625 -655.337890625 l 1,22,-1
 124.447256371 -181.155075845 l 2,23,24
 124.227815986 41.1840307125 124.227815986 41.1840307125 187.108403774 158.159551399 c 0,25,26
 249.988991562 275.135072086 249.988991562 275.135072086 373.889042085 294.242491663 c 2,27,-1
 384.492607564 295.877735344 l 1,28,-1
 388.568618149 305.802238377 l 2,0,1
537.790507941 271.23367287 m 2,29,30
 692.560162103 137.206990842 692.560162103 137.206990842 817.660116104 139.973390058 c 0,31,32
 899.113976187 141.773881743 899.113976187 141.773881743 941.512279543 187.024397005 c 0,33,34
 983.9105829 232.274912267 983.9105829 232.274912267 982.051643485 315.022650614 c 0,35,36
 981.031710637 359.484441307 981.031710637 359.484441307 963.73277761 402.910072967 c 0,37,38
 946.433844582 446.335704628 946.433844582 446.335704628 913.542013931 488.144570406 c 0,39,40
 846.012076454 574.954318879 846.012076454 574.954318879 761.472873451 575.557591613 c 0,41,42
 716.963492511 576.215613289 716.963492511 576.215613289 676.297718976 542.239357983 c 0,43,44
 635.631945441 508.263102678 635.631945441 508.263102678 600.937861518 446.592053658 c 0,45,46
 566.243777595 384.921004639 566.243777595 384.921004639 532.379524666 292.109246136 c 2,47,-1
 527.890682452 279.806676215 l 1,48,-1
 537.790507941 271.23367287 l 2,29,30
EndSplineSet
Substitution2: "'init' Initial Forms in Arabic lookup 13 subtable" uniFEE3
Substitution2: "'medi' Medial Forms in Arabic lookup 11 subtable" uniFEE4
Substitution2: "'fina' Terminal Forms in Arabic lookup 9 subtable" uniFEE2
EndChar

StartChar: uni0647
Encoding: 1607 1607 42
Width: 970
VWidth: 2673
GlyphClass: 2
Flags: W
AnchorPoint: "Anchor-10" 432.486 1315.72 basechar 0
AnchorPoint: "Anchor-7" 316.179 -344.301 basechar 0
LayerCount: 2
Fore
SplineSet
462.775104929 690.013917584 m 2,0,1
 253.516836242 504.853441694 253.516836242 504.853441694 253.803902379 371.06705188 c 0,2,3
 254.247252056 272.305481945 254.247252056 272.305481945 314.307196108 221.074418536 c 128,-1,4
 374.367140161 169.843355127 374.367140161 169.843355127 486.808180216 169.589891407 c 0,5,6
 599.756422306 169.842867662 599.756422306 169.842867662 660.114525478 220.457829425 c 128,-1,7
 720.472628651 271.072791189 720.472628651 271.072791189 720.697334527 368.878281292 c 0,8,9
 720.630802295 389.953728869 720.630802295 389.953728869 715.538679239 411.811834526 c 0,10,11
 715.034141712 413.977578448 715.034141712 413.977578448 714.480895175 416.150198307 c 128,-1,12
 713.927648637 418.322818166 713.927648637 418.322818166 713.327229604 420.496524959 c 128,-1,13
 712.72681057 422.670231753 712.72681057 422.670231753 712.078588823 424.849445103 c 128,-1,14
 711.430367076 427.028658454 711.430367076 427.028658454 710.734883279 429.210507745 c 128,-1,15
 710.039399481 431.392357035 710.039399481 431.392357035 709.297085658 433.578148945 c 128,-1,16
 708.554771835 435.763940854 708.554771835 435.763940854 707.765106407 437.953917709 c 128,-1,17
 706.975440978 440.143894565 706.975440978 440.143894565 706.139918212 442.3362501 c 128,-1,18
 705.304395446 444.528605635 705.304395446 444.528605635 704.42143152 446.726695122 c 128,-1,19
 703.538467595 448.92478461 703.538467595 448.92478461 702.610619019 451.123688838 c 128,-1,20
 701.682770442 453.322593066 701.682770442 453.322593066 700.707457543 455.528585694 c 0,21,22
 698.275456205 461.029360905 698.275456205 461.029360905 695.549767817 466.574395416 c 128,-1,23
 692.824079429 472.119429928 692.824079429 472.119429928 689.814523073 477.690689487 c 128,-1,24
 686.804966717 483.261949047 686.804966717 483.261949047 683.51774575 488.858173384 c 128,-1,25
 680.230524783 494.454397722 680.230524783 494.454397722 676.65104768 500.102450383 c 0,26,27
 662.43831598 522.528702826 662.43831598 522.528702826 643.698852419 545.705419944 c 0,28,29
 634.385900922 557.224176552 634.385900922 557.224176552 623.951229118 568.940466847 c 128,-1,30
 613.516557315 580.656757142 613.516557315 580.656757142 601.952595981 592.58609641 c 128,-1,31
 590.423197405 604.479281844 590.423197405 604.479281844 577.813441602 616.553184099 c 128,-1,32
 565.203685799 628.627086355 565.203685799 628.627086355 551.507288614 640.891278007 c 0,33,34
 524.192485185 665.348834664 524.192485185 665.348834664 492.36379029 690.762505142 c 2,35,-1
 477.256133508 702.821682683 l 1,36,-1
 462.775104929 690.013917584 l 2,0,1
400.001250089 959.150112065 m 1,37,38
 838.782465771 636.668817804 838.782465771 636.668817804 845.745178075 367.398773794 c 0,39,40
 847.027036628 316.061844607 847.027036628 316.061844607 838.820769173 272.449144211 c 128,-1,41
 830.614501717 228.836443814 830.614501717 228.836443814 812.840453254 192.659865695 c 128,-1,42
 795.066404791 156.483287575 795.066404791 156.483287575 767.993536574 127.5494817 c 128,-1,43
 740.920668356 98.6156758247 740.920668356 98.6156758247 704.180600592 76.3070299734 c 0,44,45
 617.823419903 24.7793397267 617.823419903 24.7793397267 488.441207051 24.0245053118 c 0,46,47
 468.530130169 24.0725860372 468.530130169 24.0725860372 449.323536508 25.3533012383 c 128,-1,48
 430.116942848 26.6340164394 430.116942848 26.6340164394 411.860305638 29.1271058764 c 0,49,50
 375.381644696 34.1076184623 375.381644696 34.1076184623 342.263614712 43.9220342303 c 128,-1,51
 309.282078163 53.6957240467 309.282078163 53.6957240467 279.62053443 68.2301220347 c 0,52,53
 128.079775954 143.397149621 128.079775954 143.397149621 128.640578673 357.106480311 c 0,54,55
 128.750078641 406.692603262 128.750078641 406.692603262 143.560851417 458.50357539 c 128,-1,56
 158.371624194 510.314547518 158.371624194 510.314547518 188.085735595 564.687970155 c 128,-1,57
 217.799846997 619.061392792 217.799846997 619.061392792 263.115494075 676.082948872 c 128,-1,58
 308.431141153 733.104504952 308.431141153 733.104504952 368.971437562 792.114335581 c 2,59,-1
 387.13663382 809.81908483 l 1,60,-1
 326.588907473 860.867097457 l 1,61,-1
 400.001250089 959.150112065 l 1,37,38
EndSplineSet
Substitution2: "'fina' Terminal Forms in Arabic lookup 9 subtable" uniFEEA
Substitution2: "'medi' Medial Forms in Arabic lookup 11 subtable" uniFEEC
Substitution2: "'init' Initial Forms in Arabic lookup 13 subtable" uniFEEB
EndChar

StartChar: uni0648
Encoding: 1608 1608 43
Width: 908
VWidth: 2673
GlyphClass: 2
Flags: W
AnchorPoint: "Anchor-10" 387.514 1259.86 basechar 0
AnchorPoint: "Anchor-7" 344.159 -741.82 basechar 0
LayerCount: 2
Fore
SplineSet
799.353621922 172.7460141 m 0,0,1
 800.13582452 -62.4343237134 800.13582452 -62.4343237134 711.401917367 -210.47224035 c 0,2,3
 667.128453894 -283.748240492 667.128453894 -283.748240492 602.07648327 -336.725961185 c 0,4,5
 431.212408703 -475.494257399 431.212408703 -475.494257399 110.110196182 -510.742561615 c 1,6,-1
 85.413583266 -374.892854913 l 1,7,8
 570.748310219 -328.103226192 570.748310219 -328.103226192 662.450593037 -2.59422001707 c 2,9,-1
 671.832509078 30.7169157634 l 1,10,-1
 589.797198454 20.5675705008 l 2,11,12
 287.828778434 -16.8679580754 287.828778434 -16.8679580754 187.393363913 109.670547739 c 0,13,14
 168.119974772 133.679632025 168.119974772 133.679632025 155.262847882 161.826879126 c 128,-1,15
 142.338674856 190.120905843 142.338674856 190.120905843 135.784793484 222.909551095 c 0,16,17
 134.133836613 231.169412481 134.133836613 231.169412481 132.890576409 239.697085244 c 128,-1,18
 131.647316205 248.224758007 131.647316205 248.224758007 130.805638911 257.079375263 c 128,-1,19
 129.963961616 265.93399252 129.963961616 265.93399252 129.531937394 275.120946601 c 128,-1,20
 129.099913171 284.307900681 129.099913171 284.307900681 129.07878814 293.819093518 c 0,21,22
 128.312882617 427.161170109 128.312882617 427.161170109 193.992592008 553.191322521 c 0,23,24
 238.763136564 640.316144909 238.763136564 640.316144909 303.614715712 682.909307631 c 128,-1,25
 368.466294859 725.502470352 368.466294859 725.502470352 455.8191931 725.913222825 c 0,26,27
 524.646881241 726.174490222 524.646881241 726.174490222 578.589038474 704.371463826 c 128,-1,28
 632.531195707 682.568437429 632.531195707 682.568437429 673.239529767 638.471403184 c 0,29,30
 756.1859899 548.621130033 756.1859899 548.621130033 784.86137735 364.221168725 c 0,31,32
 799.015681676 273.198030015 799.015681676 273.198030015 799.353621922 172.7460141 c 0,0,1
577.082249302 166.206986123 m 2,33,-1
 665.666080963 178.949912319 l 1,34,-1
 664.326668893 208.722328222 l 2,35,36
 648.150685465 569.831332989 648.150685465 569.831332989 450.080667854 568.721672941 c 0,37,38
 396.211527512 568.676275887 396.211527512 568.676275887 355.469462388 535.695701598 c 128,-1,39
 314.727397263 502.71512731 314.727397263 502.71512731 288.549771631 440.469147299 c 0,40,41
 274.382149757 405.899780164 274.382149757 405.899780164 267.4730497 373.335395285 c 128,-1,42
 260.563949643 340.771010407 260.563949643 340.771010407 261.035155864 310.03229025 c 0,43,44
 261.079334514 306.951098754 261.079334514 306.951098754 261.214074573 303.925121311 c 128,-1,45
 261.348814631 300.899143868 261.348814631 300.899143868 261.575361496 297.917635005 c 128,-1,46
 261.803014935 294.928185908 261.803014935 294.928185908 262.123330941 291.990960001 c 128,-1,47
 262.443646947 289.053734093 262.443646947 289.053734093 262.85748013 286.167878815 c 0,48,49
 286.117928402 123.982270771 286.117928402 123.982270771 577.082249302 166.206986123 c 2,33,-1
EndSplineSet
Substitution2: "'fina' Terminal Forms in Arabic lookup 9 subtable" uniFEEE
EndChar

StartChar: uni0649
Encoding: 1609 1609 44
Width: 1538
VWidth: 2673
GlyphClass: 2
Flags: W
AnchorPoint: "Anchor-10" 485.708 1174.57 basechar 0
AnchorPoint: "Anchor-7" 460.774 -759.421 basechar 0
LayerCount: 2
Fore
SplineSet
734.647368899 -335.485262518 m 0,0,1
 915.090833432 -334.988816994 915.090833432 -334.988816994 1054.77572206 -272.336036066 c 0,2,3
 1196.16630753 -208.918199935 1196.16630753 -208.918199935 1256.56148733 -109.572028489 c 0,4,5
 1264.00646654 -97.3255183632 1264.00646654 -97.3255183632 1269.78612212 -85.9313133248 c 0,6,7
 1279.02845494 -67.7106713181 1279.02845494 -67.7106713181 1284.04135073 -50.7592067538 c 128,-1,8
 1289.05424651 -33.8077421895 1289.05424651 -33.8077421895 1289.50294509 -18.0182911885 c 128,-1,9
 1289.95164367 -2.22884018759 1289.95164367 -2.22884018759 1285.61128902 11.2039725286 c 128,-1,10
 1281.27093437 24.6367852448 1281.27093437 24.6367852448 1271.23607727 35.8690792977 c 128,-1,11
 1261.20122018 47.1013733505 1261.20122018 47.1013733505 1245.81769366 54.8895682763 c 0,12,13
 1219.68229681 67.8926119435 1219.68229681 67.8926119435 1182.40303391 68.832823116 c 2,14,-1
 1004.64924773 73.3174390167 l 2,15,16
 916.855737757 75.487804076 916.855737757 75.487804076 875.639424741 119.11317544 c 128,-1,17
 834.423111725 162.738546805 834.423111725 162.738546805 834.793850636 253.668535075 c 0,18,19
 834.892328158 284.863040325 834.892328158 284.863040325 839.899383408 315.374898674 c 128,-1,20
 844.906438658 345.886757024 844.906438658 345.886757024 854.905826879 376.115460534 c 0,21,22
 867.200361269 414.455177564 867.200361269 414.455177564 884.381517858 448.029460464 c 128,-1,23
 901.562674447 481.603743364 901.562674447 481.603743364 923.614469385 510.492137105 c 128,-1,24
 945.666264322 539.380530847 945.666264322 539.380530847 972.803581157 563.964682613 c 0,25,26
 1121.2202006 700.243875216 1121.2202006 700.243875216 1415.52668836 709.469130176 c 1,27,-1
 1404.48676429 559.262823401 l 1,28,29
 1193.13135573 549.983615606 1193.13135573 549.983615606 1082.08442479 470.119766236 c 128,-1,30
 971.037493843 390.255916867 971.037493843 390.255916867 968.292236429 240.090438056 c 2,31,-1
 967.876690408 217.358947635 l 1,32,-1
 1204.67190631 210.289767017 l 2,33,34
 1303.05251295 207.178584647 1303.05251295 207.178584647 1346.07747938 178.958031264 c 0,35,36
 1416.98026473 131.828071404 1416.98026473 131.828071404 1416.73737062 7.66674318569 c 0,37,38
 1416.98629503 -86.8227406335 1416.98629503 -86.8227406335 1355.14837212 -191.324036711 c 0,39,40
 1187.27894474 -475.010355847 1187.27894474 -475.010355847 725.926907018 -477.570609841 c 0,41,42
 425.860063459 -479.249369649 425.860063459 -479.249369649 278.574078065 -339.271301184 c 128,-1,43
 131.28809267 -199.293232719 131.28809267 -199.293232719 130.609303194 87.4037987412 c 0,44,45
 130.028420147 298.688836142 130.028420147 298.688836142 240.889788016 557.869369696 c 1,46,-1
 365.660732897 520.366086576 l 1,47,48
 268.019255767 286.603260807 268.019255767 286.603260807 268.86841766 94.5102318894 c 0,49,50
 269.971408567 -118.96928761 269.971408567 -118.96928761 388.038792184 -227.616578066 c 128,-1,51
 506.1061758 -336.263868522 506.1061758 -336.263868522 734.647368899 -335.485262518 c 0,0,1
EndSplineSet
Substitution2: "'fina' Terminal Forms in Arabic lookup 9 subtable" uniFEF0
Substitution2: "'medi' Medial Forms in Arabic lookup 11 subtable" uniFBE9
Substitution2: "'init' Initial Forms in Arabic lookup 13 subtable" uniFBE8
EndChar

StartChar: uni064B
Encoding: 1611 1611 46
Width: -29
VWidth: 2574
GlyphClass: 4
Flags: W
AnchorPoint: "Anchor-10" 681.723 1237.39 mark 0
AnchorPoint: "Anchor-9" 681.723 1237.39 mark 0
AnchorPoint: "Anchor-1" 636.984 1851.39 basemark 0
AnchorPoint: "Anchor-1" 681.723 1237.39 mark 0
LayerCount: 2
Fore
SplineSet
343.922851562 1186.34277344 m 1,0,-1
 343.922851562 1301.42871094 l 1,1,-1
 894.990234375 1526.76367188 l 1,2,-1
 894.990234375 1411.67773438 l 1,3,-1
 343.922851562 1186.34277344 l 1,0,-1
343.922851562 1492.24707031 m 1,4,-1
 343.922851562 1607.33203125 l 1,5,-1
 894.990234375 1832.66699219 l 1,6,-1
 894.990234375 1717.58007812 l 1,7,-1
 343.922851562 1492.24707031 l 1,4,-1
EndSplineSet
EndChar

StartChar: uni064C
Encoding: 1612 1612 47
Width: -29
VWidth: 2574
GlyphClass: 4
Flags: W
AnchorPoint: "Anchor-10" 756.562 1354.08 mark 0
AnchorPoint: "Anchor-9" 756.562 1354.08 mark 0
AnchorPoint: "Anchor-1" 635.266 2128.29 basemark 0
AnchorPoint: "Anchor-1" 756.562 1354.08 mark 0
LayerCount: 2
Fore
SplineSet
729.96875 1938.13964844 m 0,0,1
 630.79296875 1938.13964844 630.79296875 1938.13964844 630.79296875 1848.9921875 c 0,2,3
 630.79296875 1784.66113281 630.79296875 1784.66113281 703.98046875 1755.38378906 c 0,4,5
 730.125 1744.92773438 730.125 1744.92773438 782.985351562 1728.64941406 c 2,6,-1
 786.421875 1727.59179688 l 1,7,-1
 803.198242188 1766.73339844 l 2,8,9
 809.958007812 1782.50585938 809.958007812 1782.50585938 813.313476562 1801.58984375 c 128,-1,10
 816.668945312 1820.67382812 816.668945312 1820.67382812 816.668945312 1843.07617188 c 0,11,12
 816.668945312 1865.88085938 816.668945312 1865.88085938 809.151367188 1883.65722656 c 128,-1,13
 801.633789062 1901.43457031 801.633789062 1901.43457031 786.594726562 1913.81738281 c 0,14,15
 776.850585938 1921.84082031 776.850585938 1921.84082031 767.379882812 1927.22265625 c 128,-1,16
 757.909179688 1932.60449219 757.909179688 1932.60449219 748.504882812 1935.37207031 c 128,-1,17
 739.100585938 1938.13964844 739.100585938 1938.13964844 729.96875 1938.13964844 c 0,0,1
354.217773438 1682.75488281 m 1,18,19
 358.578125 1431.15625 358.578125 1431.15625 502.819335938 1432.52832031 c 0,20,21
 581.858398438 1432.79785156 581.858398438 1432.79785156 667.229492188 1515.66796875 c 0,22,23
 716.48046875 1562.86035156 716.48046875 1562.86035156 745.6875 1621.28417969 c 2,24,-1
 760.69921875 1651.31542969 l 1,25,-1
 727.822265625 1658.29199219 l 2,26,27
 615.352539062 1681.55859375 615.352539062 1681.55859375 575.893554688 1735.61230469 c 128,-1,28
 536.313476562 1789.83398438 536.313476562 1789.83398438 536.846679688 1828.31347656 c 0,29,30
 538.022460938 1913.203125 538.022460938 1913.203125 571.094726562 1961.1953125 c 128,-1,31
 604.166015625 2009.18652344 604.166015625 2009.18652344 669.393554688 2021.52050781 c 0,32,33
 679.442382812 2023.42089844 679.442382812 2023.42089844 690.173828125 2024.34960938 c 128,-1,34
 700.905273438 2025.27832031 700.905273438 2025.27832031 712.416015625 2025.23730469 c 0,35,36
 756.076171875 2025.40039062 756.076171875 2025.40039062 790.73046875 2012.77832031 c 128,-1,37
 825.384765625 2000.15527344 825.384765625 2000.15527344 851.32421875 1974.75585938 c 0,38,39
 903.1953125 1923.96679688 903.1953125 1923.96679688 903.767578125 1833.75488281 c 0,40,41
 904.282226562 1790.15136719 904.282226562 1790.15136719 889.806640625 1744.33007812 c 2,42,-1
 879.706054688 1712.35449219 l 1,43,-1
 913.185546875 1710.59667969 l 2,44,45
 926.118164062 1709.89160156 926.118164062 1709.89160156 942.592773438 1709.32714844 c 128,-1,46
 959.06640625 1708.76269531 959.06640625 1708.76269531 978.330078125 1708.35546875 c 1,47,-1
 978.330078125 1621.12109375 l 1,48,49
 937.127929688 1621.89648438 937.127929688 1621.89648438 922.100585938 1623.34082031 c 2,50,-1
 837.465820312 1631.47851562 l 1,51,-1
 836.3203125 1628.77734375 l 2,52,53
 789.852539062 1519.18945312 789.852539062 1519.18945312 690.935546875 1432.17773438 c 0,54,55
 592.465820312 1345.56152344 592.465820312 1345.56152344 515.200195312 1345.515625 c 0,56,57
 298.265625 1345.38769531 298.265625 1345.38769531 292.385742188 1682.75488281 c 1,58,-1
 354.217773438 1682.75488281 l 1,18,19
EndSplineSet
EndChar

StartChar: uni064D
Encoding: 1613 1613 48
Width: -29
VWidth: 2574
GlyphClass: 4
Flags: W
AnchorPoint: "Anchor-7" 618.087 78.5674 mark 0
AnchorPoint: "Anchor-6" 618.087 78.5674 mark 0
AnchorPoint: "Anchor-0" 710.803 -529.695 basemark 0
AnchorPoint: "Anchor-0" 618.087 78.5674 mark 0
LayerCount: 2
Fore
SplineSet
349.829101562 -573.487304688 m 1,0,-1
 349.829101562 -458.400390625 l 1,1,-1
 900.895507812 -233.06640625 l 1,2,-1
 900.895507812 -348.151367188 l 1,3,-1
 349.829101562 -573.487304688 l 1,0,-1
349.829101562 -267.583007812 m 1,4,-1
 349.829101562 -152.497070312 l 1,5,-1
 900.895507812 72.8369140625 l 1,6,-1
 900.895507812 -42.2490234375 l 1,7,-1
 349.829101562 -267.583007812 l 1,4,-1
EndSplineSet
EndChar

StartChar: uni064E
Encoding: 1614 1614 49
Width: -29
VWidth: 2574
GlyphClass: 4
Flags: W
AnchorPoint: "Anchor-10" 646.289 1516.26 mark 0
AnchorPoint: "Anchor-9" 646.289 1516.26 mark 0
AnchorPoint: "Anchor-1" 601.551 1879.74 basemark 0
AnchorPoint: "Anchor-1" 646.289 1516.26 mark 0
LayerCount: 2
Fore
SplineSet
309.670898438 1491.06542969 m 1,0,-1
 309.670898438 1606.15136719 l 1,1,-1
 860.73828125 1831.48632812 l 1,2,-1
 860.73828125 1716.39941406 l 1,3,-1
 309.670898438 1491.06542969 l 1,0,-1
EndSplineSet
EndChar

StartChar: uni064F
Encoding: 1615 1615 50
Width: -29
VWidth: 2574
GlyphClass: 4
Flags: W
AnchorPoint: "Anchor-10" 688.55 1426.63 mark 0
AnchorPoint: "Anchor-9" 688.55 1426.63 mark 0
AnchorPoint: "Anchor-1" 611.26 2144.89 basemark 0
AnchorPoint: "Anchor-1" 688.55 1426.63 mark 0
LayerCount: 2
Fore
SplineSet
914.057617188 1637.78027344 m 1,0,1
 883.02734375 1638.40429688 883.02734375 1638.40429688 847.732421875 1640.84863281 c 128,-1,2
 812.436523438 1643.29296875 812.436523438 1643.29296875 771.97265625 1647.61132812 c 2,3,-1
 769.647460938 1647.859375 l 1,4,-1
 768.291015625 1645.95605469 l 2,5,6
 667.869140625 1505.07617188 667.869140625 1505.07617188 492.578125 1449.90234375 c 0,7,8
 425.666992188 1428.84082031 425.666992188 1428.84082031 353.971679688 1425.19042969 c 1,9,-1
 353.971679688 1512.13964844 l 1,10,11
 530.431640625 1519.97167969 530.431640625 1519.97167969 641.672851562 1641.76171875 c 2,12,-1
 673.229492188 1675.00097656 l 1,13,-1
 628.393554688 1684.95410156 l 2,14,15
 621.69140625 1686.34082031 621.69140625 1686.34082031 579.48046875 1708.26855469 c 0,16,17
 528.036132812 1734.99316406 528.036132812 1734.99316406 502.55859375 1773.26855469 c 128,-1,18
 477.08203125 1811.54394531 477.08203125 1811.54394531 477.055664062 1861.83691406 c 0,19,20
 477.001953125 1962.65917969 477.001953125 1962.65917969 553.735351562 2020.515625 c 0,21,22
 582.532226562 2042.34277344 582.532226562 2042.34277344 658.856445312 2042.17773438 c 0,23,24
 696.977539062 2042.09570312 696.977539062 2042.09570312 728.987304688 2029.27636719 c 128,-1,25
 760.998046875 2016.45703125 760.998046875 2016.45703125 787.18359375 1990.81152344 c 128,-1,26
 813.291992188 1965.24121094 813.291992188 1965.24121094 826.376953125 1930.22070312 c 128,-1,27
 839.4609375 1895.19921875 839.4609375 1895.19921875 839.495117188 1850.4453125 c 0,28,29
 839.4609375 1832.15820312 839.4609375 1832.15820312 835.334960938 1809.72753906 c 128,-1,30
 831.208984375 1787.296875 831.208984375 1787.296875 822.973632812 1760.83300781 c 2,31,-1
 813.119140625 1729.1640625 l 1,32,-1
 846.240234375 1727.20605469 l 2,33,34
 884.455078125 1724.97363281 884.455078125 1724.97363281 914.057617188 1724.7578125 c 1,35,-1
 914.057617188 1637.78027344 l 1,0,1
722.1484375 1744.20019531 m 1,36,-1
 738.92578125 1783.33984375 l 2,37,38
 752.397460938 1814.77832031 752.397460938 1814.77832031 752.397460938 1859.68554688 c 0,39,40
 752.397460938 1905.66015625 752.397460938 1905.66015625 722.318359375 1930.42382812 c 0,41,42
 692.776367188 1954.74609375 692.776367188 1954.74609375 665.490234375 1954.74609375 c 0,43,44
 591.060546875 1954.74609375 591.060546875 1954.74609375 573.215820312 1904.06835938 c 0,45,46
 566.520507812 1885.05761719 566.520507812 1885.05761719 566.520507812 1857.80761719 c 0,47,48
 566.520507812 1801.26660156 566.520507812 1801.26660156 639.708984375 1771.98925781 c 0,49,50
 665.818359375 1761.546875 665.818359375 1761.546875 718.7109375 1745.2578125 c 2,51,-1
 722.1484375 1744.20019531 l 1,36,-1
EndSplineSet
EndChar

StartChar: uni0650
Encoding: 1616 1616 51
Width: -29
VWidth: 2574
GlyphClass: 4
Flags: W
AnchorPoint: "Anchor-7" 634.604 -24.249 mark 0
AnchorPoint: "Anchor-6" 634.604 -24.249 mark 0
AnchorPoint: "Anchor-0" 687.879 -371.804 basemark 0
AnchorPoint: "Anchor-0" 634.604 -24.249 mark 0
LayerCount: 2
Fore
SplineSet
361.639648438 -391.59765625 m 1,0,-1
 361.639648438 -276.51171875 l 1,1,-1
 912.706054688 -51.177734375 l 1,2,-1
 912.706054688 -166.264648438 l 1,3,-1
 361.639648438 -391.59765625 l 1,0,-1
EndSplineSet
EndChar

StartChar: uni0651
Encoding: 1617 1617 52
Width: -29
VWidth: 2574
GlyphClass: 4
Flags: W
AnchorPoint: "Anchor-10" 681.723 1548.77 mark 0
AnchorPoint: "Anchor-9" 681.723 1548.77 mark 0
AnchorPoint: "Anchor-1" 647.417 2052.22 basemark 0
AnchorPoint: "Anchor-1" 681.723 1548.77 mark 0
LayerCount: 2
Fore
SplineSet
677.122070312 1950.32128906 m 1,0,1
 678.010742188 1927.46777344 678.010742188 1927.46777344 678.59375 1904.90332031 c 128,-1,2
 679.177734375 1882.33789062 679.177734375 1882.33789062 679.540039062 1857.20996094 c 0,3,4
 679.161132812 1778.7109375 679.161132812 1778.7109375 711.188476562 1738.75585938 c 128,-1,5
 743.216796875 1698.80078125 743.216796875 1698.80078125 807.060546875 1699.171875 c 0,6,7
 853.8046875 1699.35058594 853.8046875 1699.35058594 877.551757812 1730.96582031 c 128,-1,8
 901.298828125 1762.58007812 901.298828125 1762.58007812 901.71484375 1823.84863281 c 0,9,10
 901.956054688 1944.49804688 901.956054688 1944.49804688 889.348632812 2020.08984375 c 1,11,-1
 983.149414062 2020.08984375 l 1,12,13
 989.219726562 1974.15527344 989.219726562 1974.15527344 992.255859375 1928.61914062 c 128,-1,14
 995.29296875 1883.08398438 995.29296875 1883.08398438 995.423828125 1836.38085938 c 0,15,16
 995.162109375 1600.96679688 995.162109375 1600.96679688 812.624023438 1599.66601562 c 0,17,18
 703.245117188 1598.88183594 703.245117188 1598.88183594 660.375976562 1676.046875 c 2,19,-1
 655.423828125 1684.95996094 l 1,20,-1
 652.994140625 1675.05761719 l 2,21,22
 615.745117188 1523.24023438 615.745117188 1523.24023438 450.155273438 1523.46972656 c 0,23,24
 436.680664062 1523.453125 436.680664062 1523.453125 424.337890625 1524.80566406 c 0,25,26
 265.396484375 1542.2265625 265.396484375 1542.2265625 292.708007812 1790.50292969 c 0,27,28
 296.772460938 1828.59277344 296.772460938 1828.59277344 305.705078125 1887.33203125 c 1,29,-1
 388.112304688 1887.33203125 l 1,30,31
 374.142578125 1787.26953125 374.142578125 1787.26953125 373.879882812 1756.57519531 c 0,32,33
 374.155273438 1629.20019531 374.155273438 1629.20019531 464.099609375 1629.45898438 c 0,34,35
 589.750976562 1629.20410156 589.750976562 1629.20410156 594.265625 1791.73339844 c 0,36,37
 596.202148438 1856.2890625 596.202148438 1856.2890625 595.666992188 1950.32128906 c 1,38,-1
 677.122070312 1950.32128906 l 1,0,1
EndSplineSet
EndChar

StartChar: uni0652
Encoding: 1618 1618 53
Width: -29
VWidth: 2574
GlyphClass: 4
Flags: W
AnchorPoint: "Anchor-10" 658.243 1322.26 mark 0
AnchorPoint: "Anchor-9" 658.243 1322.26 mark 0
AnchorPoint: "Anchor-1" 641.708 1999.62 basemark 0
AnchorPoint: "Anchor-1" 658.243 1322.26 mark 0
LayerCount: 2
Fore
SplineSet
757.393554688 1525.95410156 m 0,0,1
 770.645507812 1539.20605469 770.645507812 1539.20605469 779.514648438 1554.47558594 c 128,-1,2
 788.3828125 1569.74511719 788.3828125 1569.74511719 792.825195312 1586.94335938 c 128,-1,3
 797.267578125 1604.14257812 797.267578125 1604.14257812 797.267578125 1623.19628906 c 0,4,5
 797.267578125 1680.56738281 797.267578125 1680.56738281 757.393554688 1720.43945312 c 128,-1,6
 717.524414062 1760.31347656 717.524414062 1760.31347656 659.375 1760.31347656 c 128,-1,7
 601.2265625 1760.31347656 601.2265625 1760.31347656 561.745117188 1720.83007812 c 128,-1,8
 522.260742188 1681.34863281 522.260742188 1681.34863281 522.260742188 1623.19726562 c 0,9,10
 522.260742188 1603.89257812 522.260742188 1603.89257812 526.655273438 1586.5703125 c 128,-1,11
 531.048828125 1569.24902344 531.048828125 1569.24902344 539.83203125 1553.97070312 c 128,-1,12
 548.615234375 1538.69238281 548.615234375 1538.69238281 561.745117188 1525.56445312 c 0,13,14
 581.440429688 1505.86816406 581.440429688 1505.86816406 605.922851562 1495.97363281 c 128,-1,15
 630.405273438 1486.08007812 630.405273438 1486.08007812 659.376953125 1486.08007812 c 128,-1,16
 688.353515625 1486.08007812 688.353515625 1486.08007812 712.930664062 1496.07324219 c 128,-1,17
 737.508789062 1506.06640625 737.508789062 1506.06640625 757.393554688 1525.95410156 c 0,0,1
806.0078125 1477.32421875 m 128,-1,19
 746.453125 1417.39453125 746.453125 1417.39453125 647.838867188 1417.39453125 c 0,20,21
 615.075195312 1417.39453125 615.075195312 1417.39453125 586.494140625 1427.5078125 c 128,-1,22
 557.9140625 1437.62109375 557.9140625 1437.62109375 533.319335938 1457.98242188 c 128,-1,23
 508.724609375 1478.34375 508.724609375 1478.34375 488.098632812 1509.02929688 c 0,24,25
 471.397460938 1533.87792969 471.397460938 1533.87792969 463.018554688 1565.25683594 c 128,-1,26
 454.640625 1596.63574219 454.640625 1596.63574219 454.640625 1634.65429688 c 0,27,28
 454.640625 1710.06347656 454.640625 1710.06347656 514.203125 1769.63769531 c 0,29,30
 544.037109375 1799.47070312 544.037109375 1799.47070312 580.444335938 1814.33496094 c 128,-1,31
 616.852539062 1829.19921875 616.852539062 1829.19921875 660.129882812 1829.19921875 c 0,32,33
 677.29296875 1829.19921875 677.29296875 1829.19921875 693.1796875 1827.12109375 c 128,-1,34
 709.06640625 1825.04394531 709.06640625 1825.04394531 723.705078125 1820.88476562 c 128,-1,35
 738.342773438 1816.72460938 738.342773438 1816.72460938 751.729492188 1810.47460938 c 128,-1,36
 765.116210938 1804.22363281 765.116210938 1804.22363281 777.267578125 1795.88574219 c 128,-1,37
 789.418945312 1787.546875 789.418945312 1787.546875 800.344726562 1777.10351562 c 128,-1,38
 811.26953125 1766.66015625 811.26953125 1766.66015625 820.973632812 1754.12304688 c 128,-1,39
 830.676757812 1741.58691406 830.676757812 1741.58691406 839.178710938 1726.93164062 c 0,40,41
 852.356445312 1704.21679688 852.356445312 1704.21679688 858.986328125 1674.75292969 c 128,-1,42
 865.6171875 1645.2890625 865.6171875 1645.2890625 865.6171875 1609.05078125 c 0,43,18
 865.6171875 1537.31542969 865.6171875 1537.31542969 806.0078125 1477.32421875 c 128,-1,19
EndSplineSet
EndChar

StartChar: uni0653
Encoding: 1619 1619 54
Width: -30
VWidth: 2673
GlyphClass: 4
Flags: W
AnchorPoint: "Anchor-10" 461.017 1539.11 mark 0
AnchorPoint: "Anchor-9" 461.017 1539.11 mark 0
AnchorPoint: "Anchor-1" 461.017 1965.25 basemark 0
AnchorPoint: "Anchor-1" 461.017 1539.11 mark 0
LayerCount: 2
Fore
SplineSet
380.348632812 1636.8046875 m 2,0,1
 266.486328125 1649.00292969 266.486328125 1649.00292969 177.061523438 1542.6328125 c 1,2,-1
 75.6953125 1639.29980469 l 1,3,4
 190.033203125 1804.20703125 190.033203125 1804.20703125 363.756835938 1782.15820312 c 2,5,-1
 552.506835938 1758.20019531 l 2,6,7
 655.104492188 1745.41992188 655.104492188 1745.41992188 772.004882812 1803.74121094 c 1,8,-1
 837.659179688 1677.28320312 l 1,9,10
 714.418945312 1601.01660156 714.418945312 1601.01660156 560.869140625 1617.46582031 c 2,11,-1
 380.348632812 1636.8046875 l 2,0,1
EndSplineSet
EndChar

StartChar: uni0657
Encoding: 1623 1623 57
Width: -29
VWidth: 2574
GlyphClass: 4
Flags: W
AnchorPoint: "Anchor-10" 636.984 1500.61 mark 0
AnchorPoint: "Anchor-9" 636.984 1500.61 mark 0
AnchorPoint: "Anchor-1" 636.984 2322.06 basemark 0
AnchorPoint: "Anchor-1" 636.984 1500.61 mark 0
LayerCount: 2
Fore
SplineSet
312.921875 1985.60175045 m 1,0,1
 367.001986008 1983.5194726 367.001986008 1983.5194726 434.028269126 1976.46539712 c 2,2,-1
 447.483079709 1975.04466797 l 1,3,-1
 455.262636258 1986.11579159 l 2,4,5
 511.768672127 2066.54659771 511.768672127 2066.54659771 590.931674379 2114.35927904 c 0,6,7
 760.587064872 2218.12021512 760.587064872 2218.12021512 852.860351562 2236.52489924 c 1,8,-1
 852.860351562 2188.93665281 l 1,9,10
 841.913586822 2187.4135121 841.913586822 2187.4135121 831.321254222 2185.09737215 c 0,11,12
 811.4114347 2180.74281347 811.4114347 2180.74281347 790.550224998 2173.2666852 c 0,13,14
 780.204148026 2169.55840102 780.204148026 2169.55840102 769.646779462 2165.10658516 c 128,-1,15
 759.089410898 2160.6547693 759.089410898 2160.6547693 748.314514357 2155.46209096 c 0,16,17
 744.730704649 2153.73513716 744.730704649 2153.73513716 741.116958947 2151.92308647 c 128,-1,18
 737.503213245 2150.11103578 737.503213245 2150.11103578 733.864800248 2148.21659441 c 128,-1,19
 730.226387251 2146.32215304 730.226387251 2146.32215304 726.560518319 2144.34442241 c 128,-1,20
 722.894649388 2142.36669178 722.894649388 2142.36669178 719.200411282 2140.3050252 c 128,-1,21
 715.506173176 2138.24335861 715.506173176 2138.24335861 711.787371323 2136.10043393 c 128,-1,22
 708.06856947 2133.95750925 708.06856947 2133.95750925 704.318108692 2131.72932686 c 0,23,24
 681.899817691 2118.41082579 681.899817691 2118.41082579 658.492238309 2102.19319572 c 128,-1,25
 635.184793061 2086.045632 635.184793061 2086.045632 610.647893982 2066.88042347 c 0,26,27
 600.179518228 2058.77901367 600.179518228 2058.77901367 590.233478505 2050.23630955 c 0,28,29
 585.258079359 2045.96342114 585.258079359 2045.96342114 580.412928398 2041.5795945 c 128,-1,30
 575.567777437 2037.19576787 575.567777437 2037.19576787 570.856012702 2032.70373326 c 128,-1,31
 566.169903276 2028.23663863 566.169903276 2028.23663863 561.563957366 2023.60933506 c 128,-1,32
 556.958011455 2018.98203148 556.958011455 2018.98203148 552.571647098 2014.33614266 c 2,33,-1
 497.859718652 1956.735649 l 1,34,-1
 576.022722818 1939.3423079 l 2,35,36
 588.337727131 1937.24353503 588.337727131 1937.24353503 602.093379304 1930.49446376 c 0,37,38
 609.283725817 1926.96637271 609.283725817 1926.96637271 617.063006418 1922.07010736 c 128,-1,39
 624.84228702 1917.17384201 624.84228702 1917.17384201 633.115795236 1910.92476532 c 0,40,41
 711.86651682 1851.44250537 711.86651682 1851.44250537 712.084966466 1787.64925897 c 0,42,43
 712.051099978 1743.25212485 712.051099978 1743.25212485 701.869833506 1711.52354151 c 128,-1,44
 691.688567033 1679.79495817 691.688567033 1679.79495817 672.241846421 1659.85885323 c 0,45,46
 632.736085836 1619.35891473 632.736085836 1619.35891473 549.410280279 1620.12557732 c 0,47,48
 514.831353242 1620.34974612 514.831353242 1620.34974612 486.280298464 1631.73902202 c 128,-1,49
 457.729243686 1643.12829792 457.729243686 1643.12829792 434.023167836 1666.0190936 c 0,50,51
 387.508362467 1711.25717533 387.508362467 1711.25717533 387.484369695 1792.51802778 c 0,52,53
 387.509561214 1826.2278791 387.509561214 1826.2278791 403.147006393 1876.49195551 c 2,54,-1
 420.212632933 1931.34043946 l 1,55,-1
 362.863464272 1934.72963833 l 2,56,57
 337.112135921 1936.2506646 337.112135921 1936.2506646 312.921875 1936.87009397 c 1,58,-1
 312.921875 1985.60175045 l 1,0,1
537.047851562 1669.22460938 m 0,59,60
 595.040049088 1669.22460938 595.040049088 1669.22460938 627.749516732 1697.13737518 c 128,-1,61
 660.458984375 1725.05014097 660.458984375 1725.05014097 660.458984375 1777.37109375 c 0,62,63
 660.458984375 1816.04129684 660.458984375 1816.04129684 637.909956401 1844.72284084 c 0,64,65
 616.274578009 1872.24080205 616.274578009 1872.24080205 575.333392387 1888.61815952 c 0,66,67
 548.543654014 1899.34027758 548.543654014 1899.34027758 494.857273686 1915.87333359 c 2,68,-1
 475.09753338 1921.9545495 l 1,69,-1
 451.591072243 1867.11663 l 2,70,71
 436.58203125 1832.09734756 436.58203125 1832.09734756 436.58203125 1783.29394531 c 0,72,73
 436.58203125 1776.77380396 436.58203125 1776.77380396 437.127852103 1770.54406664 c 128,-1,74
 437.673672956 1764.31432931 437.673672956 1764.31432931 438.780006008 1758.29912136 c 128,-1,75
 439.886339059 1752.2839134 439.886339059 1752.2839134 441.596332773 1746.51208735 c 128,-1,76
 443.306326487 1740.7402613 443.306326487 1740.7402613 445.600103997 1735.31630287 c 0,77,78
 454.935328149 1713.24185688 454.935328149 1713.24185688 473.576116815 1697.88762846 c 0,79,80
 481.715454106 1691.18397532 481.715454106 1691.18397532 489.484225095 1686.02893681 c 128,-1,81
 497.252996084 1680.87389831 497.252996084 1680.87389831 504.875698842 1677.21789221 c 0,82,83
 521.542815054 1669.22460938 521.542815054 1669.22460938 537.047851562 1669.22460938 c 0,59,60
EndSplineSet
EndChar

StartChar: uni065A
Encoding: 1626 1626 58
Width: 1262
VWidth: 2574
GlyphClass: 4
Flags: W
AnchorPoint: "Anchor-10" 636.984 1500.61 mark 0
AnchorPoint: "Anchor-9" 636.984 1500.61 mark 0
AnchorPoint: "Anchor-1" 634.457 2069.31 basemark 0
AnchorPoint: "Anchor-1" 636.984 1500.61 mark 0
LayerCount: 2
Fore
SplineSet
568.960156753 1623.91699219 m 1,0,-1
 376.309380857 1945.98925781 l 1,1,-1
 448.634088397 1945.98925781 l 1,2,-1
 636.983355115 1663.45761553 l 1,3,-1
 825.333654127 1945.98925781 l 1,4,-1
 897.659135194 1945.98925781 l 1,5,-1
 705.005738794 1623.91699219 l 1,6,-1
 568.960156753 1623.91699219 l 1,0,-1
EndSplineSet
EndChar

StartChar: afii57392
Encoding: 1632 1632 59
Width: 1069
VWidth: 2673
GlyphClass: 2
Flags: W
LayerCount: 2
Fore
SplineSet
440.705596157 728.934052283 m 128,-1,1
 419.90688896 708.135899466 419.90688896 708.135899466 409.204909324 682.471655565 c 128,-1,2
 398.502929688 656.807411664 398.502929688 656.807411664 398.502929688 627.639648438 c 0,3,4
 398.502929688 617.963036775 398.502929688 617.963036775 399.676606997 608.638270606 c 128,-1,5
 400.850284306 599.313504437 400.850284306 599.313504437 403.225771164 590.299783244 c 128,-1,6
 405.601258021 581.286062052 405.601258021 581.286062052 409.158611645 572.757030828 c 0,7,8
 419.795539623 547.255301139 419.795539623 547.255301139 440.705238143 526.34560262 c 0,9,10
 482.95214582 484.096443274 482.95214582 484.096443274 541.976812653 484.368939303 c 0,11,12
 556.483616236 484.302348513 556.483616236 484.302348513 570.193829313 486.902309394 c 128,-1,13
 584.029263825 489.527151195 584.029263825 489.527151195 596.836116793 494.835479169 c 0,14,15
 603.236011288 497.487943655 603.236011288 497.487943655 609.366152729 500.805973893 c 128,-1,16
 615.49629417 504.124004131 615.49629417 504.124004131 621.326440272 508.085839303 c 0,17,18
 632.899582893 515.950287756 632.899582893 515.950287756 643.293248229 526.345065547 c 0,19,20
 664.092368771 547.143631711 664.092368771 547.143631711 674.794719541 572.807702688 c 128,-1,21
 685.497070312 598.471773664 685.497070312 598.471773664 685.497070312 627.638671875 c 0,22,23
 685.497070312 637.35178354 685.497070312 637.35178354 684.294378549 646.730596983 c 128,-1,24
 683.091686787 656.109410426 683.091686787 656.109410426 680.714180085 665.04091582 c 128,-1,25
 678.336673382 673.972421214 678.336673382 673.972421214 674.785923216 682.488854965 c 128,-1,26
 671.23517305 691.005288716 671.23517305 691.005288716 666.551849625 699.006025984 c 128,-1,27
 661.868526199 707.006763251 661.868526199 707.006763251 656.040554717 714.510829789 c 128,-1,28
 650.212583234 722.014896327 650.212583234 722.014896327 643.29342728 728.934052281 c 0,29,30
 622.494427661 749.733051899 622.494427661 749.733051899 596.830425924 760.435373606 c 128,-1,31
 571.166424187 771.137695312 571.166424187 771.137695312 542 771.137695312 c 128,-1,32
 512.832617869 771.137695312 512.832617869 771.137695312 487.168392051 760.435436023 c 128,-1,0
 461.504166232 749.733176735 461.504166232 749.733176735 440.705596157 728.934052283 c 128,-1,1
345.478974156 819.978057096 m 0,33,34
 425.354369078 899.852539062 425.354369078 899.852539062 536.861328125 899.852539062 c 128,-1,35
 648.368223565 899.852539062 648.368223565 899.852539062 728.242628754 819.978133875 c 0,36,37
 768.482614997 779.737687698 768.482614997 779.737687698 788.30038953 732.230144998 c 128,-1,38
 808.118164062 684.722602299 808.118164062 684.722602299 808.118164062 628.594726562 c 0,39,40
 808.118164062 591.150947912 808.118164062 591.150947912 799.32806137 557.631547534 c 128,-1,41
 790.537958677 524.112147155 790.537958677 524.112147155 772.816055118 494.088471168 c 128,-1,42
 755.094151558 464.06479518 755.094151558 464.06479518 728.242628745 437.213272367 c 0,43,44
 648.413025057 357.382756143 648.413025057 357.382756143 536.83298681 357.893754029 c 0,45,46
 425.310462855 357.382772991 425.310462855 357.382772991 345.479050937 437.213272372 c 0,47,48
 305.241122432 477.451660807 305.241122432 477.451660807 285.424272154 524.958934198 c 128,-1,49
 265.607421875 572.466207589 265.607421875 572.466207589 265.607421875 628.595703125 c 128,-1,50
 265.607421875 684.726205569 265.607421875 684.726205569 285.424439511 732.233142865 c 128,-1,51
 305.241457148 779.740080162 305.241457148 779.740080162 345.478974156 819.978057096 c 0,33,34
EndSplineSet
EndChar

StartChar: afii57393
Encoding: 1633 1633 60
Width: 770
VWidth: 2673
GlyphClass: 2
Flags: W
LayerCount: 2
Fore
SplineSet
280.649354896 1458.52857526 m 1,0,1
 535.200439233 831.817577075 535.200439233 831.817577075 554.202310266 29.4404296875 c 1,2,-1
 426.145324406 29.4404296875 l 1,3,4
 409.721156753 762.681630231 409.721156753 762.681630231 154.131188879 1415.2456441 c 1,5,-1
 280.649354896 1458.52857526 l 1,0,1
EndSplineSet
EndChar

StartChar: afii57394
Encoding: 1634 1634 61
Width: 1253
VWidth: 2673
GlyphClass: 2
Flags: W
LayerCount: 2
Fore
SplineSet
367.393688262 1215.02917887 m 0,0,1
 450.65746236 983.982120069 450.65746236 983.982120069 716.816435136 984.339862005 c 0,2,3
 804.750741884 984.217965029 804.750741884 984.217965029 864.024468351 1026.68401039 c 128,-1,4
 923.298194818 1069.15005576 923.298194818 1069.15005576 952.292279362 1150.00328229 c 128,-1,5
 981.286363906 1230.85650882 981.286363906 1230.85650882 981.434414055 1348.664504 c 0,6,7
 982.002378944 1392.05741386 982.002378944 1392.05741386 981.411585306 1422.93524337 c 0,8,9
 981.197067619 1438.67244297 981.197067619 1438.67244297 981.061850679 1451.76441936 c 1,10,-1
 1109.92063069 1451.35618231 l 1,11,12
 1110.1140013 1436.44991318 1110.1140013 1436.44991318 1110.27826689 1422.85448658 c 0,13,14
 1110.14137712 1128.74994409 1110.14137712 1128.74994409 1013.47218623 986.38467869 c 128,-1,15
 916.802995345 844.019413288 916.802995345 844.019413288 723.388535074 844.037108945 c 0,16,17
 689.417211388 844.029880113 689.417211388 844.029880113 659.515350825 846.80774202 c 128,-1,18
 629.613490263 849.585603928 629.613490263 849.585603928 604.638032121 854.919201991 c 128,-1,19
 579.66257398 860.252800055 579.66257398 860.252800055 558.718005064 868.140757515 c 128,-1,20
 537.773436148 876.028714976 537.773436148 876.028714976 521.397436006 886.12411042 c 128,-1,21
 505.021435864 896.219505863 505.021435864 896.219505863 492.63775105 908.638529362 c 2,22,-1
 437.540907708 963.892599733 l 1,23,-1
 453.86005158 887.586844303 l 2,24,25
 543.967058893 466.490452083 543.967058893 466.490452083 554.215828716 29.4404296875 c 1,26,-1
 426.145324406 29.4404296875 l 1,27,28
 409.721156753 762.681630231 409.721156753 762.681630231 154.131176482 1415.24567575 c 1,29,-1
 279.689405817 1458.20044378 l 1,30,31
 303.311702225 1392.36862618 303.311702225 1392.36862618 367.393688262 1215.02917887 c 0,0,1
EndSplineSet
EndChar

StartChar: afii57395
Encoding: 1635 1635 62
Width: 1415
VWidth: 2673
GlyphClass: 2
Flags: W
LayerCount: 2
Fore
SplineSet
454.494888522 874.098889635 m 2,0,1
 543.949503418 455.58536313 543.949503418 455.58536313 554.202930419 29.4404296875 c 1,2,-1
 426.145324406 29.4404296875 l 1,3,4
 409.721156753 762.681630231 409.721156753 762.681630231 154.13119504 1415.24562837 c 1,5,-1
 279.558128167 1458.15512074 l 1,6,7
 294.396816964 1415.93915897 294.396816964 1415.93915897 310.417188387 1370.65062126 c 128,-1,8
 326.43755981 1325.36208354 326.43755981 1325.36208354 343.63963477 1277.00052493 c 128,-1,9
 360.84170973 1228.63896633 360.84170973 1228.63896633 379.258192744 1177.11203023 c 0,10,11
 410.12277855 1090.31037717 410.12277855 1090.31037717 461.824709707 1044.57923866 c 128,-1,12
 513.526640864 998.848100146 513.526640864 998.848100146 584.55623806 998.660496359 c 0,13,14
 646.5715145 998.289430072 646.5715145 998.289430072 681.47505253 1033.01956108 c 128,-1,15
 716.378590559 1067.74969209 716.378590559 1067.74969209 719.359616638 1131.90587543 c 0,16,17
 725.567790372 1266.21086299 725.567790372 1266.21086299 726.988829679 1408.62109375 c 1,18,-1
 840.840613274 1408.62109375 l 1,19,-1
 842.878013362 1283.3323197 l 2,20,21
 845.022043413 1178.72985034 845.022043413 1178.72985034 851.762114198 1119.42298394 c 0,22,23
 856.782991185 1078.24181618 856.782991185 1078.24181618 877.008935094 1049.78285832 c 128,-1,24
 897.234879004 1021.32390047 897.234879004 1021.32390047 930.656784258 1007.02440406 c 128,-1,25
 964.078689513 992.724907655 964.078689513 992.724907655 1009.30083402 992.569601913 c 0,26,27
 1070.00299604 992.248408962 1070.00299604 992.248408962 1107.20292607 1028.10740959 c 128,-1,28
 1144.4028561 1063.96641023 1144.4028561 1063.96641023 1154.68657545 1130.57296714 c 0,29,30
 1173.21442501 1249.4867816 1173.21442501 1249.4867816 1169.45246416 1466.81444868 c 1,31,-1
 1295.10594667 1466.93483221 l 1,32,-1
 1294.64682682 1363.34649533 l 2,33,34
 1293.02577825 1093.35056841 1293.02577825 1093.35056841 1232.30095079 965.958443002 c 0,35,36
 1174.10785681 845.098137869 1174.10785681 845.098137869 1015.09117588 846.403078132 c 0,37,38
 883.34168295 847.895405516 883.34168295 847.895405516 809.446627779 942.359870347 c 2,39,-1
 794.842274836 961.029487438 l 1,40,-1
 779.7985636 942.712050951 l 2,41,42
 681.176908144 822.628922411 681.176908144 822.628922411 545.087104301 860.593946928 c 0,43,44
 530.154401068 864.859819489 530.154401068 864.859819489 515.064391987 872.932998903 c 128,-1,45
 499.974382906 881.006178318 499.974382906 881.006178318 484.869897871 892.966116995 c 2,46,-1
 443.452432229 925.761035066 l 1,47,-1
 454.494888522 874.098889635 l 2,0,1
EndSplineSet
EndChar

StartChar: afii57396
Encoding: 1636 1636 63
Width: 1099
VWidth: 2673
GlyphClass: 2
Flags: W
LayerCount: 2
Fore
SplineSet
144.793414473 335.233191316 m 0,0,1
 137.336732704 594.562190714 137.336732704 594.562190714 520.668273856 791.092574757 c 2,2,-1
 567.309791303 815.00523091 l 1,3,-1
 516.179379065 826.534637591 l 2,4,5
 368.192143709 859.904308308 368.192143709 859.904308308 297.948418517 937.339294423 c 128,-1,6
 227.704693325 1014.77428054 227.704693325 1014.77428054 230.144966354 1139.24718285 c 0,7,8
 231.735675571 1222.45356349 231.735675571 1222.45356349 262.812568133 1284.54990519 c 128,-1,9
 293.889460694 1346.6462469 293.889460694 1346.6462469 355.759698929 1388.76946251 c 128,-1,10
 417.629937164 1430.89267811 417.629937164 1430.89267811 511.735956159 1452.0399074 c 128,-1,11
 605.841975155 1473.18713668 605.841975155 1473.18713668 732.680664062 1473.46916572 c 1,12,-1
 732.680664062 1329.13812329 l 1,13,14
 617.620353913 1323.23233323 617.620353913 1323.23233323 539.353912117 1301.19253868 c 128,-1,15
 461.087470322 1279.15274413 461.087470322 1279.15274413 418.152632389 1237.1050129 c 128,-1,16
 375.217794456 1195.05728167 375.217794456 1195.05728167 375.348657165 1133.77944385 c 0,17,18
 375.16138352 1016.81210238 375.16138352 1016.81210238 476.589447698 957.457780885 c 128,-1,19
 578.017511876 898.103459387 578.017511876 898.103459387 769.830503652 893.845015659 c 1,20,-1
 771.528565718 772.57159389 l 1,21,22
 518.902354177 670.009553359 518.902354177 670.009553359 393.477329843 563.267625475 c 128,-1,23
 268.05230551 456.52569759 268.05230551 456.52569759 273.978224688 340.419209624 c 0,24,25
 282.944524871 166.15416012 282.944524871 166.15416012 641.018990402 167.37706393 c 2,26,-1
 953.576356751 168.444516738 l 1,27,-1
 955.25571282 19.0308532083 l 1,28,-1
 596.99640442 19.4238132835 l 2,29,30
 371.45594214 19.7057173602 371.45594214 19.7057173602 260.54125327 98.4030461812 c 128,-1,31
 149.6265644 177.100375002 149.6265644 177.100375002 144.793414473 335.233191316 c 0,0,1
EndSplineSet
EndChar

StartChar: afii57397
Encoding: 1637 1637 64
Width: 1307
VWidth: 2673
GlyphClass: 2
Flags: W
LayerCount: 2
Fore
SplineSet
618.85254898 1138.54336737 m 2,0,1
 289.001352125 819.109894856 289.001352125 819.109894856 288.954101754 535.572491848 c 0,2,3
 288.978132878 366.681245648 288.978132878 366.681245648 387.917880067 280.554998765 c 128,-1,4
 486.857627256 194.428751881 486.857627256 194.428751881 677.515905795 194.885842708 c 0,5,6
 854.919111793 195.462912552 854.919111793 195.462912552 946.843902862 279.459211051 c 128,-1,7
 1038.76869393 363.455509549 1038.76869393 363.455509549 1038.51462183 526.506406121 c 0,8,9
 1037.98460748 843.213611188 1037.98460748 843.213611188 648.809217593 1140.30360369 c 2,10,-1
 633.073968306 1152.31563014 l 1,11,-1
 618.85254898 1138.54336737 l 2,0,1
470.674142355 1282.84770177 m 1,12,-1
 549.034701291 1401.57530845 l 1,13,14
 1162.98596696 1004.17946976 1162.98596696 1004.17946976 1162.58108941 521.12090585 c 0,15,16
 1162.98053787 312.162803594 1162.98053787 312.162803594 1064.65670593 208.43978521 c 0,17,18
 927.845813428 64.0196901273 927.845813428 64.0196901273 670.843761613 64.6385959245 c 0,19,20
 608.203775237 64.8157113632 608.203775237 64.8157113632 552.881609495 72.2296892203 c 128,-1,21
 497.559443753 79.6436670774 497.559443753 79.6436670774 449.55810005 94.2089386012 c 0,22,23
 354.418919165 123.000565469 354.418919165 123.000565469 287.830514608 181.172247998 c 0,24,25
 265.765417463 200.311419964 265.765417463 200.311419964 246.646099856 222.697377761 c 128,-1,26
 227.526782249 245.083335558 227.526782249 245.083335558 211.243387725 270.900516228 c 128,-1,27
 194.9599932 296.717696898 194.9599932 296.717696898 181.583952841 325.915540718 c 0,28,29
 144.041196005 408.046559454 144.041196005 408.046559454 145.059922163 510.371317011 c 0,30,31
 147.937626557 865.231466882 147.937626557 865.231466882 511.062867029 1224.42465278 c 2,32,-1
 531.809722434 1244.94685352 l 1,33,-1
 470.674142355 1282.84770177 l 1,12,-1
EndSplineSet
EndChar

StartChar: afii57398
Encoding: 1638 1638 65
Width: 1332
VWidth: 2673
GlyphClass: 2
Flags: W
LayerCount: 2
Fore
SplineSet
828.767111138 1285.79175044 m 2,0,1
 747.965869164 1262.00010051 747.965869164 1262.00010051 478.612113351 1262.02636707 c 0,2,3
 257.139797806 1262.0013703 257.139797806 1262.0013703 92.486328125 1305.69265245 c 1,4,-1
 92.486328125 1467.06194976 l 1,5,6
 307.651297422 1415.01341086 307.651297422 1415.01341086 525.222960402 1415.31552098 c 0,7,8
 737.995140342 1415.97509441 737.995140342 1415.97509441 984.097070437 1469.03130698 c 1,9,10
 989.135119132 909.451514225 989.135119132 909.451514225 1086.1831791 424.674448631 c 0,11,12
 1096.40253864 373.350093415 1096.40253864 373.350093415 1119.82564341 274.216085062 c 128,-1,13
 1143.24874818 175.082076708 1143.24874818 175.082076708 1179.54932655 29.4404296875 c 1,14,-1
 1033.73925829 29.4404296875 l 1,15,16
 917.379687474 485.532633778 917.379687474 485.532633778 892.917417208 747.708510683 c 0,17,18
 860.285569707 1100.78625952 860.285569707 1100.78625952 858.262212282 1264.01382488 c 2,19,-1
 857.885972578 1294.36569976 l 1,20,-1
 828.767111138 1285.79175044 l 2,0,1
EndSplineSet
EndChar

StartChar: afii57399
Encoding: 1639 1639 66
Width: 1300
VWidth: 2673
GlyphClass: 2
Flags: W
LayerCount: 2
Fore
SplineSet
668.170511371 319.615107724 m 2,0,1
 788.160070742 911.093042073 788.160070742 911.093042073 1050.44052041 1456.36199908 c 1,2,-1
 1167.77548053 1393.02474831 l 1,3,4
 890.940776826 835.445275762 890.940776826 835.445275762 713.731492563 29.4404296875 c 1,5,-1
 585.366330435 29.4404296875 l 1,6,7
 408.061422837 835.44497034 408.061422837 835.44497034 131.321885756 1393.02353749 c 1,8,-1
 248.656580519 1456.36064502 l 1,9,10
 510.841940359 911.092994321 510.841940359 911.092994321 630.929696951 319.612156474 c 2,11,-1
 649.557375166 227.863296885 l 1,12,-1
 668.170511371 319.615107724 l 2,0,1
EndSplineSet
EndChar

StartChar: afii57400
Encoding: 1640 1640 67
Width: 1300
VWidth: 2673
GlyphClass: 2
Flags: W
LayerCount: 2
Fore
SplineSet
630.929747046 1173.34707463 m 2,0,1
 510.84194228 581.906191133 510.84194228 581.906191133 248.656083817 36.5986074725 c 1,2,-1
 131.32142737 99.935694318 l 1,3,4
 408.061436568 657.554213926 408.061436568 657.554213926 585.366168629 1463.51855469 c 1,5,-1
 713.727714826 1463.51855469 l 1,6,7
 890.941099242 656.573782674 890.941099242 656.573782674 1167.76474128 99.9284390332 c 1,8,-1
 1050.44101715 36.5972534348 l 1,9,10
 788.160068817 581.906143214 788.160068817 581.906143214 668.170461353 1173.3441232 c 2,11,-1
 649.557375146 1265.08945299 l 1,12,-1
 630.929747046 1173.34707463 l 2,0,1
EndSplineSet
EndChar

StartChar: afii57401
Encoding: 1641 1641 68
Width: 1294
VWidth: 2673
GlyphClass: 2
Flags: W
LayerCount: 2
Fore
SplineSet
860.876863036 704.020186055 m 2,0,1
 590.874763971 659.402230915 590.874763971 659.402230915 443.520702202 697.637648749 c 0,2,3
 314.226892757 731.943894901 314.226892757 731.943894901 229.075795838 824.445661243 c 0,4,5
 145.980265619 915.394355911 145.980265619 915.394355911 145.596563135 1058.71791803 c 0,6,7
 145.027602251 1221.15299094 145.027602251 1221.15299094 258.267495095 1334.30072574 c 0,8,9
 429.398402002 1507.44509189 429.398402002 1507.44509189 665.011517107 1462.69403949 c 0,10,11
 736.054867836 1449.03960067 736.054867836 1449.03960067 790.762510863 1415.79112165 c 128,-1,12
 845.47015389 1382.54264263 845.47015389 1382.54264263 884.66505948 1328.77571405 c 128,-1,13
 923.85996507 1275.00878546 923.85996507 1275.00878546 946.967878552 1200.01270191 c 128,-1,14
 970.075792033 1125.01661835 970.075792033 1125.01661835 977.224648523 1028.4234119 c 0,15,16
 1014.2988052 536.587161813 1014.2988052 536.587161813 1141.01402313 29.4404296875 c 1,17,-1
 996.939871074 29.4404296875 l 1,18,19
 914.158251128 430.071212719 914.158251128 430.071212719 882.83557958 687.568711974 c 2,20,-1
 880.441108567 707.253185474 l 1,21,-1
 860.876863036 704.020186055 l 2,0,1
868.116995423 847.36237301 m 1,22,-1
 855.565251345 966.712770934 l 2,23,24
 843.097809576 1084.44445275 843.097809576 1084.44445275 808.500162506 1164.95896847 c 128,-1,25
 773.902515436 1245.47348419 773.902515436 1245.47348419 715.306121736 1288.12867759 c 128,-1,26
 656.709728036 1330.78387099 656.709728036 1330.78387099 575.656218696 1331.22712163 c 0,27,28
 513.908646635 1331.63643662 513.908646635 1331.63643662 460.318312073 1310.20575362 c 128,-1,29
 406.72797751 1288.77507062 406.72797751 1288.77507062 362.643266532 1246.02290151 c 128,-1,30
 318.681380933 1203.3804786 318.681380933 1203.3804786 296.348219779 1151.621779 c 128,-1,31
 274.015058624 1099.86307941 274.015058624 1099.86307941 274.032228015 1040.40391558 c 0,32,33
 273.996435001 948.888768195 273.996435001 948.888768195 358.165994469 881.34292589 c 0,34,35
 482.725810745 779.785308401 482.725810745 779.785308401 850.647732196 844.299195707 c 2,36,-1
 868.116995423 847.36237301 l 1,22,-1
EndSplineSet
EndChar

StartChar: afii57381
Encoding: 1642 1642 69
Width: 1229
VWidth: 3655
GlyphClass: 2
Flags: W
LayerCount: 2
Fore
SplineSet
762.099609375 315.208984375 m 0,0,1
 762.099609375 373.587632353 762.099609375 373.587632353 802.78922301 415.245473566 c 0,2,3
 845.576341898 457.059570312 845.576341898 457.059570312 903.950195312 457.059570312 c 0,4,5
 917.065387372 457.059570312 917.065387372 457.059570312 929.156769649 454.935433794 c 128,-1,6
 941.248151926 452.811297276 941.248151926 452.811297276 952.53406184 448.532108912 c 128,-1,7
 963.819971754 444.252920549 963.819971754 444.252920549 974.583302914 437.729470336 c 0,8,9
 978.123306207 435.647223422 978.123306207 435.647223422 981.265598123 433.589842286 c 128,-1,10
 984.40789004 431.532461149 984.40789004 431.532461149 987.513269454 429.270698726 c 2,11,-1
 999.004228377 419.971127924 l 2,12,13
 1001.71420043 417.534426758 1001.71420043 417.534426758 1004.27428598 414.974562672 c 128,-1,14
 1006.83437153 412.414698586 1006.83437153 412.414698586 1009.24522811 409.731689936 c 0,15,16
 1014.07376187 404.35722504 1014.07376187 404.35722504 1018.32706061 398.474109554 c 128,-1,17
 1022.59438582 392.570402772 1022.59438582 392.570402772 1026.41495694 385.934533897 c 0,18,19
 1036.19565392 369.795951493 1036.19565392 369.795951493 1040.98488157 352.316377989 c 128,-1,20
 1045.79980469 334.742165538 1045.79980469 334.742165538 1045.79980469 315.208984375 c 128,-1,21
 1045.79980469 295.578416116 1045.79980469 295.578416116 1041.1657009 277.882685956 c 0,22,23
 1039.63001645 272.018540735 1039.63001645 272.018540735 1037.58892547 266.365221336 c 128,-1,24
 1035.54783448 260.711901938 1035.54783448 260.711901938 1032.987552 255.236704426 c 128,-1,25
 1030.42726951 249.761506914 1030.42726951 249.761506914 1027.34083965 244.452893383 c 0,26,27
 1018.00320748 228.391680824 1018.00320748 228.391680824 1003.98571443 214.048018479 c 0,28,29
 962.328846008 173.359375 962.328846008 173.359375 903.950195312 173.359375 c 0,30,31
 884.311351979 173.359375 884.311351979 173.359375 866.266507428 177.984997576 c 128,-1,32
 848.221662878 182.610620152 848.221662878 182.610620152 831.839106181 191.76545263 c 0,33,34
 825.343330825 195.586796139 825.343330825 195.586796139 819.268788296 200.016964436 c 0,35,36
 816.244368834 202.222360383 816.244368834 202.222360383 813.375413168 204.547271206 c 128,-1,37
 810.506457503 206.872182029 810.506457503 206.872182029 807.788354781 209.319163042 c 0,38,39
 802.365511974 214.201009654 802.365511974 214.201009654 797.527316216 219.579642173 c 0,40,41
 795.110362855 222.266574366 795.110362855 222.266574366 792.839160603 225.077980962 c 128,-1,42
 790.56795835 227.889387557 790.56795835 227.889387557 788.441889253 230.82618395 c 0,43,44
 784.179501412 236.714794374 784.179501412 236.714794374 780.55861548 243.003077568 c 0,45,46
 762.099609375 276.035527121 762.099609375 276.035527121 762.099609375 315.208984375 c 0,0,1
182.80566601 1196.40246328 m 0,47,48
 182.794752118 1226.17818178 182.794752118 1226.17818178 192.869463571 1250.90426643 c 128,-1,49
 202.944175025 1275.63035108 202.944175025 1275.63035108 223.494196858 1296.4410048 c 0,50,51
 244.964924389 1317.65099284 244.964924389 1317.65099284 270.101022241 1328.04298491 c 128,-1,52
 295.149093421 1338.3985842 295.149093421 1338.3985842 324.684830505 1338.25454129 c 0,53,54
 363.225487007 1338.53864163 363.225487007 1338.53864163 395.181113145 1318.98954867 c 0,55,56
 399.443252679 1316.43382332 399.443252679 1316.43382332 403.408128686 1313.73302493 c 128,-1,57
 407.373004692 1311.03222653 407.373004692 1311.03222653 411.068257207 1308.1667451 c 128,-1,58
 414.763509723 1305.30126367 414.763509723 1305.30126367 418.19581957 1302.27702656 c 128,-1,59
 421.628129416 1299.25278946 421.628129416 1299.25278946 424.866728968 1296.01418991 c 0,60,61
 437.724188699 1283.15673017 437.724188699 1283.15673017 447.199402447 1266.99820794 c 0,62,63
 452.310710557 1258.66452457 452.310710557 1258.66452457 455.91736389 1250.40673984 c 128,-1,64
 459.524017222 1242.14895511 459.524017222 1242.14895511 461.93714244 1233.34038169 c 0,65,66
 466.716363098 1215.89801403 466.716363098 1215.89801403 466.505122676 1196.44744622 c 0,67,68
 466.924427227 1137.72582818 466.924427227 1137.72582818 424.780748981 1095.33008106 c 0,69,70
 382.681407966 1054.39868391 382.681407966 1054.39868391 324.628682181 1054.55478831 c 0,71,72
 304.730981018 1054.47626886 304.730981018 1054.47626886 286.712568595 1059.1015329 c 128,-1,73
 268.80038629 1063.69974838 268.80038629 1063.69974838 252.688756113 1072.87697921 c 0,74,75
 241.597890205 1079.49623961 241.597890205 1079.49623961 232.111185701 1087.49387691 c 128,-1,76
 222.624481196 1095.4915142 222.624481196 1095.4915142 214.92522181 1104.66187511 c 128,-1,77
 207.225962424 1113.83223601 207.225962424 1113.83223601 201.295716682 1124.1430166 c 0,78,79
 182.783990617 1157.66506609 182.783990617 1157.66506609 182.80566601 1196.40246328 c 0,47,48
918.005650241 1487.66091111 m 1,80,-1
 1030.9321532 1429.48093381 l 1,81,-1
 314.789768456 54.7362586841 l 1,82,-1
 201.924465726 116.76041802 l 1,83,-1
 918.005650241 1487.66091111 l 1,80,-1
EndSplineSet
EndChar

StartChar: uni066B
Encoding: 1643 1643 70
Width: 745
VWidth: 2673
GlyphClass: 2
Flags: W
LayerCount: 2
Fore
SplineSet
488.923197445 724.984632266 m 1,0,-1
 581.107435342 685.850308676 l 1,1,-1
 173.065907291 -255.727711739 l 1,2,-1
 78.9257090094 -214.757134766 l 1,3,-1
 488.923197445 724.984632266 l 1,0,-1
EndSplineSet
EndChar

StartChar: uni066C
Encoding: 1644 1644 71
Width: 533
VWidth: 2574
GlyphClass: 2
Flags: W
LayerCount: 2
Fore
SplineSet
110.182617188 140.754882812 m 0,0,1
 111.544921875 276.419921875 111.544921875 276.419921875 262.569335938 276.859375 c 0,2,3
 398.333984375 277.458984375 398.333984375 277.458984375 423.509765625 157.173828125 c 0,4,5
 436.891601562 91.955078125 436.891601562 91.955078125 412.7109375 -4.87109375 c 0,6,7
 358.986328125 -210.203125 358.986328125 -210.203125 170.801757812 -363.489257812 c 1,8,-1
 116.94921875 -329.065429688 l 1,9,10
 275.663085938 -170.866210938 275.663085938 -170.866210938 287.756835938 -4.31640625 c 2,11,-1
 288.076171875 0.076171875 l 1,12,-1
 283.673828125 -0.02734375 l 2,13,14
 240.086914062 -1.0546875 240.086914062 -1.0546875 222.053710938 3.181640625 c 0,15,16
 109.475585938 25.8994140625 109.475585938 25.8994140625 110.182617188 140.754882812 c 0,0,1
EndSplineSet
EndChar

StartChar: afii63167
Encoding: 1645 1645 72
Width: 1433
VWidth: 2673
GlyphClass: 2
Flags: W
LayerCount: 2
Fore
SplineSet
196.077148438 947.796875 m 1,0,-1
 597.51953125 947.796875 l 1,1,-1
 722.921875 1329.60546875 l 1,2,-1
 848.326171875 947.796875 l 1,3,-1
 1249.76757812 947.796875 l 1,4,-1
 925.432617188 710.696289062 l 1,5,-1
 1049.49511719 329.568359375 l 1,6,-1
 722.921875 565.55078125 l 1,7,-1
 396.350585938 329.568359375 l 1,8,-1
 520.412109375 710.696289062 l 1,9,-1
 196.077148438 947.796875 l 1,0,-1
EndSplineSet
EndChar

StartChar: uni066E
Encoding: 1646 1646 73
Width: 1841
VWidth: 2673
GlyphClass: 2
Flags: W
AnchorPoint: "Anchor-10" 919.349 1283.6 basechar 0
AnchorPoint: "Anchor-7" 919.349 -227.87 basechar 0
LayerCount: 2
Fore
SplineSet
875.953829362 168.198245932 m 0,0,1
 1574.83212207 169.022188938 1574.83212207 169.022188938 1578.22374071 550.733356194 c 0,2,3
 1578.59027859 589.063340362 1578.59027859 589.063340362 1573.74081091 634.858081655 c 0,4,5
 1568.89134323 680.652822948 1568.89134323 680.652822948 1559.04195281 733.041663823 c 1,6,-1
 1684.09867186 763.826537977 l 1,7,8
 1715.06023147 664.042603546 1715.06023147 664.042603546 1715.59576592 549.149392612 c 0,9,10
 1716.27281039 285.814408127 1716.27281039 285.814408127 1509.93889752 153.215645709 c 0,11,12
 1303.60498465 20.61688329 1303.60498465 20.61688329 880.347656489 19.3768715864 c 2,13,-1
 878.375023968 19.3720602984 l 2,14,15
 495.345003451 18.9788035378 495.345003451 18.9788035378 308.681278502 151.21049159 c 0,16,17
 122.017553553 283.442179641 122.017553553 283.442179641 122.511580077 549.126627049 c 0,18,19
 122.950635409 664.043213459 122.950635409 664.043213459 153.996160884 763.829141243 c 1,20,-1
 278.980298707 733.062134212 l 1,21,22
 269.383768512 683.295874045 269.383768512 683.295874045 264.976520423 642.358644214 c 0,23,24
 262.006564639 617.904819085 262.006564639 617.904819085 260.719607589 594.784276554 c 0,25,26
 259.432650538 571.663734023 259.432650538 571.663734023 259.885121768 550.609306727 c 0,27,28
 262.055953764 358.728045491 262.055953764 358.728045491 418.574036189 263.412850961 c 0,29,30
 575.092118614 168.097656431 575.092118614 168.097656431 875.953829362 168.198245932 c 0,0,1
EndSplineSet
Substitution2: "'init' Initial Forms in Arabic lookup 13 subtable" uni066E.init
Substitution2: "'medi' Medial Forms in Arabic lookup 11 subtable" uni066E.medi
Substitution2: "'fina' Terminal Forms in Arabic lookup 9 subtable" uni066E.fina
EndChar

StartChar: uni066F
Encoding: 1647 1647 74
Width: 1504
VWidth: 2673
GlyphClass: 2
Flags: W
AnchorPoint: "Anchor-10" 140.156 1276.23 basechar 0
AnchorPoint: "Anchor-7" 333.006 -722.749 basechar 0
LayerCount: 2
Fore
SplineSet
1239.13778098 149.611123283 m 1,0,-1
 1155.16561672 140.372841075 l 2,1,2
 1116.6566952 136.126621213 1116.6566952 136.126621213 1085.30412468 133.969896166 c 0,3,4
 1077.49215043 133.432771867 1077.49215043 133.432771867 1070.13639688 133.025751939 c 0,5,6
 1062.78064332 132.618732012 1062.78064332 132.618732012 1055.90057233 132.342591181 c 0,7,8
 1049.02050135 132.06645035 1049.02050135 132.06645035 1042.60932182 131.919203189 c 0,9,10
 1036.19814229 131.771956027 1036.19814229 131.771956027 1030.2340465 131.75273385 c 0,11,12
 966.292306241 131.46241518 966.292306241 131.46241518 915.760734387 142.570413792 c 0,13,14
 865.229162534 153.678412404 865.229162534 153.678412404 829.048958973 175.186605376 c 0,15,16
 792.868755412 196.694798348 792.868755412 196.694798348 768.93643395 228.783181854 c 0,17,18
 697.217983271 325.496572291 697.217983271 325.496572291 727.442160828 490.282369515 c 0,19,20
 751.843127501 622.894230577 751.843127501 622.894230577 831.269659607 718.162679458 c 0,21,22
 852.417981024 743.651368741 852.417981024 743.651368741 875.620441131 762.577176985 c 0,23,24
 898.822901238 781.50298523 898.822901238 781.50298523 924.316649353 794.018958144 c 0,25,26
 949.810397468 806.534931058 949.810397468 806.534931058 977.557177021 812.735495263 c 0,27,28
 1005.30395657 818.936059468 1005.30395657 818.936059468 1035.71673749 818.986378809 c 0,29,30
 1207.11674506 819.382277195 1207.11674506 819.382277195 1292.31778733 683.106786092 c 0,31,32
 1377.51882961 546.831294989 1377.51882961 546.831294989 1375.66721197 263.690018929 c 0,33,34
 1375.20450073 167.489281954 1375.20450073 167.489281954 1357.45726186 69.5562934808 c 0,35,36
 1328.25821411 -90.9313109102 1328.25821411 -90.9313109102 1249.20430231 -196.693396911 c 0,37,38
 1170.15039051 -302.455482912 1170.15039051 -302.455482912 1039.45565553 -354.818221016 c 0,39,40
 908.760920547 -407.18095912 908.760920547 -407.18095912 725.113985638 -406.202434277 c 0,41,42
 625.047025864 -405.653532342 625.047025864 -405.653532342 542.214487929 -389.251563194 c 0,43,44
 459.381949994 -372.849594047 459.381949994 -372.849594047 393.232187974 -340.346383411 c 0,45,46
 327.082425955 -307.843172774 327.082425955 -307.843172774 277.772676865 -259.280694519 c 0,47,48
 228.462927775 -210.718216264 228.462927775 -210.718216264 195.583688458 -145.679745961 c 0,49,50
 162.704449142 -80.6412756584 162.704449142 -80.6412756584 146.261337662 0.651425993469 c 0,51,52
 129.818226182 81.9441276453 129.818226182 81.9441276453 129.54388215 180.076335227 c 0,53,54
 129.137194426 337.798483672 129.137194426 337.798483672 190.445654386 553.904426304 c 1,55,-1
 316.082312892 516.141381888 l 1,56,57
 267.400483828 320.45593446 267.400483828 320.45593446 267.802889894 187.203398792 c 0,58,59
 268.397392355 40.2699838887 268.397392355 40.2699838887 321.160006691 -59.7904537886 c 0,60,61
 373.922621026 -159.850891466 373.922621026 -159.850891466 477.421243587 -211.136529635 c 0,62,63
 580.919866148 -262.422167803 580.919866148 -262.422167803 733.26980845 -264.116156153 c 0,64,65
 810.135315685 -264.917077483 810.135315685 -264.917077483 875.546332832 -254.941127881 c 0,66,67
 940.957349979 -244.965178279 940.957349979 -244.965178279 995.051869882 -223.98159886 c 0,68,69
 1104.64453782 -181.470991638 1104.64453782 -181.470991638 1165.51892165 -94.2341979959 c 0,70,71
 1226.00823749 -7.54967524889 1226.00823749 -7.54967524889 1236.8129591 121.780646539 c 2,72,-1
 1239.13778098 149.611123283 l 1,0,-1
1149.59236512 275.32352157 m 2,73,-1
 1238.18256602 288.067016107 l 1,74,-1
 1236.84281299 317.851620431 l 2,75,76
 1220.94966706 668.452108653 1220.94966706 668.452108653 1022.93211904 661.848323585 c 0,77,78
 963.189232815 659.901993328 963.189232815 659.901993328 913.700869618 600.57731123 c 0,79,80
 837.858083283 512.050744436 837.858083283 512.050744436 844.235868055 396.908671403 c 0,81,82
 847.787158498 332.524422817 847.787158498 332.524422817 900.195837182 300.387932823 c 0,83,84
 952.604515867 268.251442829 952.604515867 268.251442829 1045.07425141 267.236887819 c 0,85,86
 1054.55759832 267.185962317 1054.55759832 267.185962317 1064.41818992 267.4832361 c 0,87,88
 1074.26355282 267.78002034 1074.26355282 267.78002034 1084.50326566 268.420833547 c 0,89,90
 1094.73083309 269.060433042 1094.73083309 269.060433042 1105.39057117 270.044084915 c 0,91,92
 1116.0389471 271.025686685 1116.0389471 271.025686685 1127.08721894 272.346110814 c 0,93,94
 1132.60963765 273.005965978 1132.60963765 273.005965978 1138.23398997 273.750083072 c 0,95,96
 1143.85834229 274.494200166 1143.85834229 274.494200166 1149.59236512 275.32352157 c 2,73,-1
EndSplineSet
Substitution2: "'init' Initial Forms in Arabic lookup 13 subtable" uni066F.init
Substitution2: "'medi' Medial Forms in Arabic lookup 11 subtable" uni066F.medi
Substitution2: "'fina' Terminal Forms in Arabic lookup 9 subtable" uni066F.fina
EndChar

StartChar: uni0670
Encoding: 1648 1648 75
Width: -29
VWidth: 2574
GlyphClass: 4
Flags: W
AnchorPoint: "Anchor-10" 636.984 1500.61 mark 0
AnchorPoint: "Anchor-9" 636.984 1500.61 mark 0
AnchorPoint: "Anchor-1" 636.984 2087.18 basemark 0
AnchorPoint: "Anchor-1" 636.984 1500.61 mark 0
LayerCount: 2
Fore
SplineSet
593.435546875 1568.26757812 m 1,0,-1
 593.435546875 2019.51660156 l 1,1,-1
 680.533203125 2019.51660156 l 1,2,-1
 680.533203125 1568.26757812 l 1,3,-1
 593.435546875 1568.26757812 l 1,0,-1
EndSplineSet
EndChar

StartChar: uni0674
Encoding: 1652 1652 76
Width: 750
VWidth: 2673
GlyphClass: 2
Flags: W
LayerCount: 2
Fore
SplineSet
253.162148497 1897.84853027 m 2,0,1
 245.338771335 1903.49253809 245.338771335 1903.49253809 238.185869371 1909.37398121 c 0,2,3
 231.05194908 1915.23809766 231.05194908 1915.23809766 224.594712293 1921.33068384 c 0,4,5
 218.152842983 1927.40694369 218.152842983 1927.40694369 212.375183177 1933.71112513 c 0,6,7
 209.492405144 1936.85708075 209.492405144 1936.85708075 206.775153974 1940.0595247 c 0,8,9
 204.057902804 1943.26196865 204.057902804 1943.26196865 201.508757388 1946.51716057 c 0,10,11
 196.416078893 1953.02250218 196.416078893 1953.02250218 191.97907188 1959.74837481 c 0,12,13
 190.502024688 1961.98767887 190.502024688 1961.98767887 189.096404545 1964.25323672 c 0,14,15
 187.690784403 1966.51879456 187.690784403 1966.51879456 186.358166356 1968.80780965 c 0,16,17
 185.02554831 1971.09682473 185.02554831 1971.09682473 183.764440633 1973.4115905 c 0,18,19
 161.0625 2015.08756633 161.0625 2015.08756633 161.0625 2066.09863281 c 0,20,21
 161.0625 2073.92846688 161.0625 2073.92846688 161.427150526 2081.50064114 c 0,22,23
 161.791801053 2089.07281541 161.791801053 2089.07281541 162.519718079 2096.38743618 c 0,24,25
 163.971488144 2110.97678262 163.971488144 2110.97678262 166.86776297 2124.57083149 c 0,26,27
 167.830497386 2129.09102132 167.830497386 2129.09102132 168.953301129 2133.50265608 c 0,28,29
 170.076104872 2137.91429085 170.076104872 2137.91429085 171.356105253 2142.20870561 c 0,30,31
 172.636105634 2146.50312038 172.636105634 2146.50312038 174.075742481 2150.69081483 c 0,32,33
 178.387486315 2163.23305127 178.387486315 2163.23305127 184.12227551 2174.81357747 c 0,34,35
 189.849796386 2186.37661539 189.849796386 2186.37661539 197.011936598 2197.0123238 c 0,36,37
 200.59398578 2202.33209742 200.59398578 2202.33209742 204.532193686 2207.41915635 c 0,38,39
 208.470401593 2212.50621529 208.470401593 2212.50621529 212.767211779 2217.36307382 c 0,40,41
 221.376288349 2227.09320655 221.376288349 2227.09320655 231.440739464 2235.92483718 c 0,42,43
 267.051247548 2267.17338143 267.051247548 2267.17338143 308.278259915 2282.77381341 c 0,44,45
 349.505272281 2298.37424539 349.505272281 2298.37424539 396.904263949 2298.53619072 c 0,46,47
 398.614203125 2298.54216118 398.614203125 2298.54216118 400.317319291 2298.53428961 c 0,48,49
 402.020435457 2298.52641804 402.020435457 2298.52641804 403.717405421 2298.50469846 c 0,50,51
 405.414375385 2298.48297888 405.414375385 2298.48297888 407.105201844 2298.44741812 c 0,52,53
 408.796028303 2298.41185735 408.796028303 2298.41185735 410.481711512 2298.36243993 c 0,54,55
 417.219023992 2298.16585545 417.219023992 2298.16585545 423.852764136 2297.74914997 c 0,56,57
 430.485394001 2297.33258497 430.485394001 2297.33258497 437.020944293 2296.696946 c 0,58,59
 443.552736146 2296.06176519 443.552736146 2296.06176519 449.986159213 2295.20664176 c 0,60,61
 456.415864635 2294.35309052 456.415864635 2294.35309052 462.749058311 2293.27995811 c 0,62,63
 469.080412556 2292.20729851 469.080412556 2292.20729851 475.313040985 2290.91628121 c 0,64,65
 481.543755027 2289.62546356 481.543755027 2289.62546356 487.679530928 2288.11764747 c 0,66,67
 500.860390296 2284.87611297 500.860390296 2284.87611297 514.156353988 2280.37182308 c 0,68,69
 527.452317681 2275.86753318 527.452317681 2275.86753318 539.90725325 2270.49332848 c 0,70,71
 552.36218882 2265.11912378 552.36218882 2265.11912378 563.856550123 2258.98663743 c 1,72,73
 563.893452 2237.26863695 563.893452 2237.26863695 564.19169346 2198.80405879 c 0,74,75
 564.427494799 2168.48027683 564.427494799 2168.48027683 564.502894684 2148.00656157 c 1,76,77
 413.07331941 2213.09072987 413.07331941 2213.09072987 322.893109538 2160.81673095 c 0,78,79
 310.472490531 2153.61722437 310.472490531 2153.61722437 300.779771518 2144.83432181 c 0,80,81
 290.944625543 2135.92128786 290.944625543 2135.92128786 284.002266653 2125.40792546 c 0,82,83
 277.049512049 2114.87943763 277.049512049 2114.87943763 272.973545493 2102.72707576 c 0,84,85
 268.897578936 2090.57471389 268.897578936 2090.57471389 267.713760113 2077.01600691 c 0,86,87
 263.114356428 2024.35320538 263.114356428 2024.35320538 296.577965665 1987.01584796 c 0,88,89
 300.688026013 1982.43014109 300.688026013 1982.43014109 305.375280903 1978.10375281 c 0,90,91
 310.062535793 1973.77736453 310.062535793 1973.77736453 315.295819482 1969.73421072 c 0,92,93
 320.529103171 1965.69105692 320.529103171 1965.69105692 326.288234668 1961.92304244 c 0,94,95
 332.047366165 1958.15502797 332.047366165 1958.15502797 338.371060139 1954.63241615 c 0,96,97
 363.373286823 1940.70493332 363.373286823 1940.70493332 397.16219679 1930.46967254 c 0,98,99
 408.157019333 1926.99244818 408.157019333 1926.99244818 426.230367879 1927.15762323 c 0,100,101
 443.32767901 1927.31386892 443.32767901 1927.31386892 469.630112751 1930.52306284 c 0,102,103
 517.220367108 1936.32984591 517.220367108 1936.32984591 592.133789062 1952.75655016 c 1,104,-1
 592.133789062 1836.43668611 l 1,105,-1
 158.434570312 1739.06945075 l 1,106,-1
 158.434570312 1853.00989791 l 1,107,-1
 277.29116181 1880.43648583 l 1,108,-1
 253.162148497 1897.84853027 l 2,0,1
EndSplineSet
EndChar

StartChar: uni06A1
Encoding: 1697 1697 80
Width: 1859
VWidth: 2673
GlyphClass: 2
Flags: W
AnchorPoint: "Anchor-10" 615.257 1497.07 basechar 0
AnchorPoint: "Anchor-7" 599.289 -313.705 basechar 0
LayerCount: 2
Fore
SplineSet
1668.2634303 213.782475229 m 0,0,1
 1634.77937352 168.783877854 1634.77937352 168.783877854 1562.68756825 130.078388059 c 0,2,3
 1490.59576299 91.3728982644 1490.59576299 91.3728982644 1380.56078975 60.9021957337 c 0,4,5
 1229.42456583 19.0026355499 1229.42456583 19.0026355499 867.117135709 19.3720639303 c 0,6,7
 489.01459546 19.6819729835 489.01459546 19.6819729835 305.15577314 151.853868228 c 0,8,9
 121.29695082 284.025763472 121.29695082 284.025763472 122.511580077 549.126627049 c 0,10,11
 122.950635409 664.043213459 122.950635409 664.043213459 153.996160884 763.829141243 c 1,12,-1
 278.980298707 733.062134212 l 1,13,14
 269.383768512 683.295874045 269.383768512 683.295874045 264.976520423 642.358644214 c 0,15,16
 258.975281969 592.946044712 258.975281969 592.946044712 259.88512813 550.60901068 c 0,17,18
 262.055470079 359.29820687 262.055470079 359.29820687 416.948654739 263.951688046 c 0,19,20
 571.841839398 168.605169222 571.841839398 168.605169222 869.537942341 168.198252375 c 0,21,22
 1061.51607878 167.999455404 1061.51607878 167.999455404 1089.56819604 169.553578257 c 0,23,24
 1252.52846167 180.124080347 1252.52846167 180.124080347 1360.69062062 202.22348026 c 0,25,26
 1433.44646465 217.713756033 1433.44646465 217.713756033 1484.83137003 238.268210952 c 0,27,28
 1536.21627541 258.822665871 1536.21627541 258.822665871 1569.34033437 287.821202785 c 0,29,30
 1602.46439332 316.8197397 1602.46439332 316.8197397 1612.39361982 353.442203818 c 2,31,-1
 1619.90621234 381.151275641 l 1,32,-1
 1527.20705772 368.392122336 l 2,33,34
 1510.23568965 366.163655233 1510.23568965 366.163655233 1494.6403352 364.562521668 c 0,35,36
 1479.04498075 362.961388103 1479.04498075 362.961388103 1465.20626221 362.022712582 c 0,37,38
 1434.33000302 359.996892502 1434.33000302 359.996892502 1402.89615116 359.839995898 c 0,39,40
 1354.39296677 359.995628193 1354.39296677 359.995628193 1313.86392886 365.839017158 c 0,41,42
 1303.98612694 367.472481202 1303.98612694 367.472481202 1294.3324072 369.492935521 c 0,43,44
 1284.67868745 371.51338984 1284.67868745 371.51338984 1275.51320958 373.857350388 c 0,45,46
 1266.34773171 376.201310936 1266.34773171 376.201310936 1257.66370483 378.860567057 c 0,47,48
 1248.97967796 381.519823179 1248.97967796 381.519823179 1240.95543559 384.444536495 c 0,49,50
 1230.46837278 388.527306678 1230.46837278 388.527306678 1220.50018712 393.345608558 c 0,51,52
 1210.53200146 398.163910439 1210.53200146 398.163910439 1201.34445567 403.580056916 c 0,53,54
 1192.15690987 408.996203393 1192.15690987 408.996203393 1183.89328654 414.918392689 c 0,55,56
 1159.52305232 432.657071078 1159.52305232 432.657071078 1141.52581703 456.877166775 c 0,57,58
 1117.16646119 489.74703349 1117.16646119 489.74703349 1104.462785 530.136419073 c 0,59,60
 1098.26606333 550.376649816 1098.26606333 550.376649816 1094.85642344 573.113213716 c 0,61,62
 1091.44678355 595.849777617 1091.44678355 595.849777617 1090.95231943 620.572060168 c 0,63,64
 1090.03454869 718.406233325 1090.03454869 718.406233325 1134.5508913 829.025296915 c 0,65,66
 1156.84234966 884.679596193 1156.84234966 884.679596193 1184.98557432 925.806773872 c 0,67,68
 1213.12879899 966.933951552 1213.12879899 966.933951552 1247.34646739 993.816563455 c 0,69,70
 1281.5641358 1020.69917536 1281.5641358 1020.69917536 1321.59852415 1033.8776655 c 0,71,72
 1361.63291251 1047.05615565 1361.63291251 1047.05615565 1408.32163476 1047.07331633 c 0,73,74
 1564.23511988 1047.50889168 1564.23511988 1047.50889168 1647.43619191 918.25239508 c 0,75,76
 1730.63726395 788.995898478 1730.63726395 788.995898478 1739.95827555 520.433351003 c 0,77,78
 1746.78559416 319.971856946 1746.78559416 319.971856946 1668.2634303 213.782475229 c 0,0,1
1522.35283276 503.434279461 m 2,79,-1
 1610.7783711 516.155294598 l 1,80,-1
 1609.43795113 545.912228854 l 2,81,82
 1602.02960737 715.498391042 1602.02960737 715.498391042 1552.10857564 804.150785265 c 0,83,84
 1502.18754391 892.803179488 1502.18754391 892.803179488 1406.26701014 889.937367784 c 0,85,86
 1349.16139201 888.285434691 1349.16139201 888.285434691 1307.38058214 853.152007639 c 0,87,88
 1265.59977226 818.018580586 1265.59977226 818.018580586 1240.81603174 753.044694613 c 0,89,90
 1215.97228478 687.40194401 1215.97228478 687.40194401 1216.44164781 628.678605419 c 0,91,92
 1216.77126076 563.313246329 1216.77126076 563.313246329 1269.45095366 530.283813 c 0,93,94
 1322.13064657 497.25437967 1322.13064657 497.25437967 1417.41390968 495.3275474 c 0,95,96
 1433.42164517 494.98671629 1433.42164517 494.98671629 1450.34958469 496.099360415 c 0,97,98
 1466.44989494 497.052570273 1466.44989494 497.052570273 1485.01272018 498.795346343 c 0,99,100
 1500.55993708 500.57041816 1500.55993708 500.57041816 1509.2789107 501.648160751 c 0,101,102
 1517.99788432 502.725903342 1517.99788432 502.725903342 1522.35283276 503.434279461 c 2,79,-1
EndSplineSet
Substitution2: "'init' Initial Forms in Arabic lookup 13 subtable" uni06A1.init
Substitution2: "'medi' Medial Forms in Arabic lookup 11 subtable" uni06A1.medi
Substitution2: "'fina' Terminal Forms in Arabic lookup 9 subtable" uni06A1.fina
EndChar

StartChar: uni06A9
Encoding: 1705 1705 81
Width: 1918
VWidth: 2673
GlyphClass: 2
Flags: W
AnchorPoint: "Anchor-10" 454.898 1468.88 basechar 0
AnchorPoint: "Anchor-7" 581.416 -322.06 basechar 0
LayerCount: 2
Fore
SplineSet
1085.40440409 1052.5694188 m 2,0,1
 1367.23908905 845.909467037 1367.23908905 845.909467037 1505.37316892 712.346701416 c 0,2,3
 1682.97516735 539.98681611 1682.97516735 539.98681611 1682.46306793 374.229542582 c 0,4,5
 1682.31535142 340.036911383 1682.31535142 340.036911383 1677.14540726 309.044626298 c 0,6,7
 1671.97546309 278.052341213 1671.97546309 278.052341213 1661.94711254 250.559169692 c 0,8,9
 1651.91876199 223.065998172 1651.91876199 223.065998172 1636.99533675 198.620371862 c 0,10,11
 1524.30500945 18.7178379589 1524.30500945 18.7178379589 1240.87047656 18.9999905857 c 2,12,-1
 867.10639374 19.3720639301 l 2,13,14
 489.009281933 19.6819728795 489.009281933 19.6819728795 305.153116142 151.853817083 c 0,15,16
 121.296950352 284.025661286 121.296950352 284.025661286 122.511580077 549.126627049 c 0,17,18
 122.950635409 664.043213459 122.950635409 664.043213459 153.996160884 763.829141243 c 1,19,-1
 279.052464356 733.04436939 l 1,20,21
 259.05203182 627.121683618 259.05203182 627.121683618 259.885528776 550.63429275 c 0,22,23
 263.111399234 358.704014175 263.111399234 358.704014175 417.962020064 263.385575601 c 0,24,25
 572.812640894 168.067137026 572.812640894 168.067137026 869.573823754 168.198244042 c 2,26,-1
 1190.0620589 168.339853246 l 2,27,28
 1364.15885672 168.165794961 1364.15885672 168.165794961 1457.20576553 213.924559862 c 0,29,30
 1550.25267433 259.683324763 1550.25267433 259.683324763 1551.90490918 355.763805696 c 0,31,32
 1552.00071301 361.897267733 1552.00071301 361.897267733 1551.97285408 367.694909105 c 0,33,34
 1552.00663986 375.490978747 1552.00663986 375.490978747 1550.80658923 382.884711742 c 0,35,36
 1549.80178693 387.877765468 1549.80178693 387.877765468 1549.22021289 393.387148419 c 2,37,-1
 1549.16152752 393.943088302 l 2,38,39
 1540.66889244 445.262567328 1540.66889244 445.262567328 1502.791407 501.906082061 c 0,40,41
 1464.91392156 558.549596795 1464.91392156 558.549596795 1397.74769837 623.165967863 c 0,42,43
 1265.86437912 749.950069668 1265.86437912 749.950069668 1019.88135456 909.694402162 c 0,44,45
 958.986269258 949.314530073 958.986269258 949.314530073 958.843365712 1058.4606858 c 0,46,47
 958.08440737 1177.78931654 958.08440737 1177.78931654 1077.94660527 1226.00040486 c 2,48,-1
 1827.31640625 1527.41264567 l 1,49,-1
 1827.31640625 1382.57486786 l 1,50,-1
 1051.76398436 1077.23681388 l 1,51,-1
 1085.40440409 1052.5694188 l 2,0,1
EndSplineSet
Substitution2: "'init' Initial Forms in Arabic lookup 13 subtable" uniFB90
Substitution2: "'medi' Medial Forms in Arabic lookup 11 subtable" uniFB91
Substitution2: "'fina' Terminal Forms in Arabic lookup 9 subtable" uniFB8F
EndChar

StartChar: afii57514
Encoding: 1722 1722 83
Width: 1456
VWidth: 2673
GlyphClass: 2
Flags: W
AnchorPoint: "Anchor-10" 713.563 1077.92 basechar 0
AnchorPoint: "Anchor-7" 741.166 -657.812 basechar 0
LayerCount: 2
Fore
SplineSet
268.868285272 158.453659001 m 0,0,1
 269.463756524 17.2147332052 269.463756524 17.2147332052 319.875175842 -78.6066146822 c 128,-1,2
 370.28659516 -174.42796257 370.28659516 -174.42796257 469.101075944 -222.889370887 c 128,-1,3
 567.915556728 -271.350779204 567.915556728 -271.350779204 713.195187604 -271.57313898 c 0,4,5
 947.2211695 -272.344503847 947.2211695 -272.344503847 1067.00728369 -162.751505032 c 128,-1,6
 1186.79339787 -53.1585062164 1186.79339787 -53.1585062164 1185.56518988 162.286866274 c 0,7,8
 1185.153308 244.265234864 1185.153308 244.265234864 1165.533376 341.73037397 c 128,-1,9
 1145.913444 439.195513076 1145.913444 439.195513076 1107.944164 549.628473109 c 1,10,-1
 1237.50872246 594.895803002 l 1,11,12
 1321.90944723 358.596853162 1321.90944723 358.596853162 1321.51970632 130.547384719 c 0,13,14
 1320.8915288 -15.7819203809 1320.8915288 -15.7819203809 1260.54882949 -142.016290933 c 0,15,16
 1196.68107151 -277.136665457 1196.68107151 -277.136665457 1059.56477567 -344.868281544 c 0,17,18
 990.384249092 -379.041054966 990.384249092 -379.041054966 901.652715986 -396.326841521 c 128,-1,19
 812.92118288 -413.612628076 812.92118288 -413.612628076 704.755948399 -413.658204056 c 0,20,21
 416.204978552 -413.567866358 416.204978552 -413.567866358 273.765633342 -273.32900623 c 128,-1,22
 131.429230722 -133.19055908 131.429230722 -133.19055908 130.609311838 151.315593039 c 0,23,24
 130.201573458 309.445208184 130.201573458 309.445208184 191.74651987 525.9720687 c 1,25,-1
 318.893441076 492.926153178 l 1,26,27
 268.465727609 291.473331847 268.465727609 291.473331847 268.868285272 158.453659001 c 0,0,1
EndSplineSet
Substitution2: "'init' Initial Forms in Arabic lookup 13 subtable" uni06BA.init
Substitution2: "'medi' Medial Forms in Arabic lookup 11 subtable" uni06BA.medi
Substitution2: "'fina' Terminal Forms in Arabic lookup 9 subtable" uniFB9F
EndChar

StartChar: uni06F4
Encoding: 1780 1780 90
Width: 1287
VWidth: 2673
GlyphClass: 2
Flags: W
LayerCount: 2
Fore
SplineSet
456.523458468 866.620570761 m 2,0,1
 544.951933947 456.474320373 544.951933947 456.474320373 554.257592419 29.4404296875 c 1,2,-1
 426.145324406 29.4404296875 l 1,3,4
 409.721156753 762.681630231 409.721156753 762.681630231 154.131208447 1415.24559414 c 1,5,-1
 280.113456088 1458.34480408 l 1,6,7
 297.51515274 1412.1100418 297.51515274 1412.1100418 314.035380929 1363.95911098 c 128,-1,8
 330.555609118 1315.80818015 330.555609118 1315.80818015 346.241542749 1265.59593364 c 128,-1,9
 361.927476379 1215.38368713 361.927476379 1215.38368713 376.780082583 1163.11300941 c 128,-1,10
 391.632688787 1110.84233169 391.632688787 1110.84233169 405.704827605 1056.3381385 c 2,11,-1
 429.455812105 964.345850448 l 1,12,-1
 451.194463661 1116.30883372 l 2,13,14
 478.044423022 1305.08029916 478.044423022 1305.08029916 592.62549398 1393.30118639 c 128,-1,15
 707.206564938 1481.52207361 707.206564938 1481.52207361 915.401039844 1472.53703777 c 0,16,17
 1003.5663013 1468.54369087 1003.5663013 1468.54369087 1069.08105469 1447.71009863 c 1,18,-1
 1069.08105469 1312.39639352 l 1,19,20
 990.086450237 1330.98013959 990.086450237 1330.98013959 897.342209346 1330.8261455 c 0,21,22
 861.569238483 1330.8857593 861.569238483 1330.8857593 830.146493388 1327.95143307 c 128,-1,23
 798.723748294 1325.01710684 798.723748294 1325.01710684 770.879753686 1318.89339677 c 128,-1,24
 743.035759079 1312.76968671 743.035759079 1312.76968671 719.299562928 1303.43643786 c 0,25,26
 582.388796404 1249.25575026 582.388796404 1249.25575026 542.273107692 1112.88707978 c 0,27,28
 522.487176933 1044.45990901 522.487176933 1044.45990901 556.284541727 986.495754372 c 0,29,30
 589.09225937 928.194916474 589.09225937 928.194916474 678.463450696 899.426473845 c 0,31,32
 762.948121796 872.015146374 762.948121796 872.015146374 859.354858746 871.529053512 c 0,33,34
 948.381940439 871.981372534 948.381940439 871.981372534 1135.95304827 898.268876849 c 1,35,-1
 1137.81437385 758.372970689 l 1,36,37
 662.916437848 669.426147037 662.916437848 669.426147037 500.391370112 869.61331716 c 2,38,-1
 439.782743288 944.266843899 l 1,39,-1
 456.523458468 866.620570761 l 2,0,1
EndSplineSet
EndChar

StartChar: uni06F5
Encoding: 1781 1781 91
Width: 1420
VWidth: 2673
GlyphClass: 2
Flags: W
LayerCount: 2
Fore
SplineSet
274.447408104 374.645426272 m 0,0,1
 274.740030167 275.793453958 274.740030167 275.793453958 318.038683309 222.396073289 c 128,-1,2
 361.33733645 168.998692621 361.33733645 168.998692621 444.894411347 168.997070316 c 0,3,4
 606.962567945 169.000212542 606.962567945 169.000212542 670.588500715 453.401068833 c 1,5,-1
 759.283156341 453.325977297 l 1,6,7
 812.585443891 166.026683932 812.585443891 166.026683932 982.505144133 165.63189201 c 0,8,9
 1024.27303555 165.733365769 1024.27303555 165.733365769 1056.39582047 178.858937901 c 128,-1,10
 1088.51860538 191.984510033 1088.51860538 191.984510033 1109.73694073 217.030951193 c 128,-1,11
 1130.95527608 242.077392353 1130.95527608 242.077392353 1141.75093846 278.441668643 c 128,-1,12
 1152.54660083 314.805944932 1152.54660083 314.805944932 1152.38367515 361.438837819 c 0,13,14
 1150.97052574 769.544819535 1150.97052574 769.544819535 689.413386236 1180.81061581 c 2,15,-1
 675.105367561 1193.55963038 l 1,16,-1
 662.479749939 1179.14260744 l 2,17,18
 392.947132042 871.366936453 392.947132042 871.366936453 300.500099888 556.220448416 c 0,19,20
 273.986190276 465.677539871 273.986190276 465.677539871 274.447408104 374.645426272 c 0,0,1
693.901392011 206.752159934 m 2,21,22
 659.781421117 112.686214835 659.781421117 112.686214835 589.276258831 68.8954597821 c 128,-1,23
 518.771096546 25.1047047296 518.771096546 25.1047047296 407.570065892 29.8104120689 c 0,24,25
 267.437099717 36.0305191445 267.437099717 36.0305191445 202.320731474 125.624684158 c 128,-1,26
 137.204363231 215.218849171 137.204363231 215.218849171 144.959322342 396.345461831 c 0,27,28
 162.693675735 780.919427332 162.693675735 780.919427332 564.300949136 1279.52791997 c 2,29,-1
 575.364813855 1293.26406788 l 1,30,-1
 524.55631098 1340.82412473 l 1,31,-1
 618.505302452 1455.62763363 l 1,32,-1
 720.710670461 1358.67439097 l 1,33,34
 1282.99382232 861.443900195 1282.99382232 861.443900195 1282.63770503 370.1018718 c 0,35,36
 1282.75493159 254.228955239 1282.75493159 254.228955239 1250.81387879 178.884146074 c 128,-1,37
 1218.87282599 103.539336909 1218.87282599 103.539336909 1154.90893144 66.8623706221 c 128,-1,38
 1090.9450369 30.1854043355 1090.9450369 30.1854043355 993.04237852 29.8074699137 c 0,39,40
 801.051577258 29.0515358409 801.051577258 29.0515358409 737.166062211 206.692551102 c 2,41,-1
 715.61553633 266.616264548 l 1,42,-1
 693.901392011 206.752159934 l 2,21,22
EndSplineSet
EndChar

StartChar: uni06F6
Encoding: 1782 1782 92
Width: 1128
VWidth: 2673
GlyphClass: 2
Flags: W
LayerCount: 2
Fore
SplineSet
514.634021812 689.848401111 m 2,0,1
 328.61862323 721.356290374 328.61862323 721.356290374 238.642656472 813.713506761 c 128,-1,2
 148.666689713 906.070723148 148.666689713 906.070723148 149.278768563 1062.2167102 c 0,3,4
 149.967736362 1154.60281086 149.967736362 1154.60281086 186.792197013 1231.19787483 c 0,5,6
 302.765595968 1466.87677431 302.765595968 1466.87677431 645.714790627 1463.30993203 c 0,7,8
 688.575758119 1463.04545087 688.575758119 1463.04545087 758.95719091 1452.46521838 c 1,9,-1
 739.598760762 1319.77086407 l 1,10,11
 717.152233049 1321.53065113 717.152233049 1321.53065113 695.245981947 1322.46643108 c 128,-1,12
 673.339730844 1323.40221102 673.339730844 1323.40221102 648.19679414 1323.70164092 c 0,13,14
 472.634222779 1322.97377124 472.634222779 1322.97377124 378.086646477 1252.09870774 c 0,15,16
 282.026842937 1178.3904383 282.026842937 1178.3904383 281.647382896 1046.02930985 c 0,17,18
 282.03473059 910.852475436 282.03473059 910.852475436 430.310823808 842.075635948 c 0,19,20
 529.155674951 796.865227351 529.155674951 796.865227351 635.107255922 799.0920858 c 2,21,-1
 640.177833091 799.198657665 l 1,22,-1
 643.94039249 801.039382166 l 2,23,24
 841.623539417 897.750204031 841.623539417 897.750204031 996.414361639 950.613475015 c 1,25,-1
 1002.13147908 811.96860691 l 1,26,27
 504.187377662 612.880100836 504.187377662 612.880100836 301.85131363 35.4997942591 c 1,28,-1
 176.452609334 77.4979207265 l 1,29,30
 296.963563839 412.43522719 296.963563839 412.43522719 532.622675238 656.653374846 c 2,31,-1
 557.627220419 682.566074214 l 1,32,-1
 514.634021812 689.848401111 l 2,0,1
EndSplineSet
EndChar

StartChar: uniFB8F
Encoding: 64399 64399 107
Width: 1979
VWidth: 2673
GlyphClass: 2
Flags: W
AnchorPoint: "Anchor-10" 511.401 1434.68 basechar 0
AnchorPoint: "Anchor-7" 605.982 -265.947 basechar 0
LayerCount: 2
Fore
SplineSet
1085.83693385 1052.25998717 m 2,0,1
 1284.54799644 913.501839001 1284.54799644 913.501839001 1455.60765692 757.498997256 c 0,2,3
 1550.71424102 670.769580094 1550.71424102 670.769580094 1611.24213581 579.520641411 c 0,4,5
 1671.77003059 488.271702728 1671.77003059 488.271702728 1698.27863653 392.305777527 c 0,6,7
 1706.84279233 361.668905062 1706.84279233 361.668905062 1718.36364847 335.061470145 c 0,8,9
 1729.88450461 308.454035228 1729.88450461 308.454035228 1744.34418809 285.988049477 c 0,10,11
 1758.80387157 263.522063726 1758.80387157 263.522063726 1776.09597197 245.270985754 c 0,12,13
 1793.38807238 227.019907783 1793.38807238 227.019907783 1813.59620491 213.075358187 c 0,14,15
 1833.80433744 199.130808591 1833.80433744 199.130808591 1856.71383762 189.587996408 c 0,16,17
 1879.6233378 180.045184225 1879.6233378 180.045184225 1905.42607488 174.973979628 c 0,18,19
 1931.22881196 169.90277503 1931.22881196 169.90277503 1959.60863329 169.418778078 c 2,20,-1
 1980.58331367 169.06107035 l 1,21,22
 1988.28417969 153.346203358 1988.28417969 153.346203358 1988.28417969 101.455078125 c 2,23,-1
 1988.28428735 84.4809530481 l 2,24,25
 1987.97033619 35.3723683385 1987.97033619 35.3723683385 1980.62765184 19 c 1,26,-1
 1968.95410156 19 l 2,27,28
 1858.17439243 19 1858.17439243 19 1783.4979972 58.3935411786 c 0,29,30
 1708.82160198 97.7870823572 1708.82160198 97.7870823572 1666.9438354 176.541502105 c 2,31,-1
 1650.18269231 208.261453706 l 1,32,-1
 1628.29748696 180.364123471 l 2,33,34
 1502.57770609 19.7863053294 1502.57770609 19.7863053294 1240.1253105 19.6152303386 c 2,35,-1
 867.08159251 19.3720680716 l 2,36,37
 488.99376329 19.188440683 488.99376329 19.188440683 305.145308419 151.354675214 c 0,38,39
 121.296853549 283.520909745 121.296853549 283.520909745 122.511580077 549.126627049 c 0,40,41
 122.950635409 664.043213459 122.950635409 664.043213459 153.996160884 763.829141243 c 1,42,-1
 279.052464356 733.04436939 l 1,43,44
 259.05203182 627.121683618 259.05203182 627.121683618 259.885524009 550.634730183 c 0,45,46
 263.111816584 358.151838281 263.111816584 358.151838281 417.978289586 262.824837419 c 0,47,48
 572.844762588 167.497836557 572.844762588 167.497836557 869.618086769 168.19829511 c 2,49,-1
 1189.41449366 168.953127237 l 2,50,51
 1287.86785657 169.000904187 1287.86785657 169.000904187 1354.99663277 182.295120871 c 0,52,53
 1463.20069811 202.746145416 1463.20069811 202.746145416 1513.64250258 256.841382442 c 0,54,55
 1564.08430705 310.936619468 1564.08430705 310.936619468 1548.26159897 395.685585344 c 0,56,57
 1538.60632233 446.642812461 1538.60632233 446.642812461 1501.67820721 502.764844694 c 0,58,59
 1464.75009209 558.886876927 1464.75009209 558.886876927 1400.37543377 620.510439166 c 0,60,61
 1336.00077545 682.134001404 1336.00077545 682.134001404 1246.7395976 748.612776723 c 0,62,63
 1157.47841974 815.091552042 1157.47841974 815.091552042 1040.30296901 889.123938031 c 0,64,65
 959.030224351 940.453212224 959.030224351 940.453212224 959.375078446 1060.03496177 c 0,66,67
 959.036807998 1178.17239203 959.036807998 1178.17239203 1077.94660527 1226.00040486 c 2,68,-1
 1827.31640625 1527.41264567 l 1,69,-1
 1827.31640625 1382.57486762 l 1,70,-1
 1050.67975129 1076.80993161 l 1,71,-1
 1085.83693385 1052.25998717 l 2,0,1
EndSplineSet
EndChar

StartChar: uniFB9F
Encoding: 64415 64415 115
Width: 1550
VWidth: 2673
GlyphClass: 2
Flags: W
AnchorPoint: "Anchor-10" 584.095 834.644 basechar 0
AnchorPoint: "Anchor-7" 486.387 -737.016 basechar 0
LayerCount: 2
Fore
SplineSet
1533.50683594 19 m 2,0,1
 1478.92586494 19 1478.92586494 19 1434.26470344 35.7904495402 c 128,-1,2
 1389.60354195 52.5808990804 1389.60354195 52.5808990804 1353.55846333 86.3975444436 c 2,3,-1
 1321.74435214 116.244795632 l 1,4,-1
 1321.55876569 72.6218471775 l 2,5,6
 1320.89722214 -82.8770069446 1320.89722214 -82.8770069446 1260.54883132 -209.12370893 c 0,7,8
 1132.23624598 -480.585163133 1132.23624598 -480.585163133 704.755960508 -480.765625935 c 0,9,10
 245.54138922 -480.621565279 245.54138922 -480.621565279 154.193946067 -122.317099996 c 0,11,12
 131.050230906 -30.4373056723 131.050230906 -30.4373056723 130.609311838 84.2081711649 c 0,13,14
 130.201573485 242.337775821 130.201573485 242.337775821 191.746500127 458.863675393 c 1,15,-1
 318.893441944 425.817754515 l 1,16,17
 268.465741002 224.364897655 268.465741002 224.364897655 268.868332926 91.3320044469 c 0,18,19
 269.463796009 -49.9039755575 269.463796009 -49.9039755575 319.87531663 -145.722254304 c 128,-1,20
 370.286837251 -241.540533051 370.286837251 -241.540533051 469.100987473 -289.999687621 c 128,-1,21
 567.915137695 -338.458842191 567.915137695 -338.458842191 713.195228322 -338.681537552 c 0,22,23
 947.22117768 -339.452400774 947.22117768 -339.452400774 1067.00728766 -229.859151136 c 128,-1,24
 1186.79339765 -120.265901499 1186.79339765 -120.265901499 1185.56519043 95.1793346442 c 0,25,26
 1185.15378635 177.156861345 1185.15378635 177.156861345 1165.53387022 274.621739456 c 128,-1,27
 1145.91395409 372.086617567 1145.91395409 372.086617567 1107.94420712 482.520089439 c 1,28,-1
 1236.69867238 527.504386404 l 1,29,-1
 1297.97500181 338.073199294 l 2,30,31
 1315.93606954 282.547877119 1315.93606954 282.547877119 1349.29775396 244.796501166 c 128,-1,32
 1382.65943838 207.045125214 1382.65943838 207.045125214 1430.24586028 188.021097763 c 128,-1,33
 1477.83228217 168.997070312 1477.83228217 168.997070312 1538.56835938 168.997070312 c 2,34,-1
 1552.20367373 168.997070312 l 1,35,36
 1559.59570312 153.721134228 1559.59570312 153.721134228 1559.59570312 105.715820312 c 2,37,-1
 1559.59572112 84.4431481251 l 2,38,39
 1559.52725798 34.7107118745 1559.52725798 34.7107118745 1552.01638232 19 c 1,40,-1
 1533.50683594 19 l 2,0,1
EndSplineSet
EndChar

StartChar: uniFBE8
Encoding: 64488 64488 118
Width: 702
VWidth: 2673
GlyphClass: 2
Flags: W
AnchorPoint: "Anchor-10" 351.383 1275 basechar 0
AnchorPoint: "Anchor-7" 341.979 -442.214 basechar 0
LayerCount: 2
Fore
SplineSet
-6.26953125 19 m 2,0,1
 -36.2602889049 19 -36.2602889049 19 -49.2380546087 33.6136763487 c 128,-1,2
 -62.2158203125 48.2273526974 -62.2158203125 48.2273526974 -62.2158203125 84.4111328125 c 2,3,-1
 -62.2158203125 101.455078125 l 2,4,5
 -62.2158203125 138.840549777 -62.2158203125 138.840549777 -49.1264825585 153.918810045 c 128,-1,6
 -36.0371448046 168.997070312 -36.0371448046 168.997070312 -6.26953125 168.997070312 c 2,7,-1
 120.23828125 168.997070312 l 2,8,9
 294.663114739 168.997070312 294.663114739 168.997070312 369.035496899 251.778023835 c 0,10,11
 433.128005439 322.715712569 433.128005439 322.715712569 432.591562656 504.428325674 c 0,12,13
 432.070550694 609.356976975 432.070550694 609.356976975 403.353882102 740.482463906 c 1,14,-1
 539.305623644 771.976826375 l 1,15,16
 572.379158028 633.130325653 572.379158028 633.130325653 571.727750125 502.07783768 c 0,17,18
 571.040997875 356.380338933 571.040997875 356.380338933 534.815297692 255.646415169 c 0,19,20
 499.301203512 156.891276205 499.301203512 156.891276205 429.863312186 101.340226733 c 0,21,22
 326.43567072 19 326.43567072 19 110.227539062 19 c 2,23,-1
 -6.26953125 19 l 2,0,1
EndSplineSet
EndChar

StartChar: uniFBE9
Encoding: 64489 64489 119
Width: 776
VWidth: 2673
GlyphClass: 2
Flags: W
AnchorPoint: "Anchor-10" 346.305 1176.73 basechar 0
AnchorPoint: "Anchor-7" 377.819 -156.012 basechar 0
LayerCount: 2
Fore
SplineSet
-7.3349609375 19 m 2,0,1
 -36.6980413117 19 -36.6980413117 19 -49.4569308121 33.5714448471 c 128,-1,2
 -62.2158203125 48.1428896941 -62.2158203125 48.1428896941 -62.2158203125 84.4111328125 c 2,3,-1
 -62.2158203125 101.455078125 l 2,4,5
 -62.2158203125 138.920297303 -62.2158203125 138.920297303 -49.3475384672 153.958683808 c 128,-1,6
 -36.4792566218 168.997070312 -36.4792566218 168.997070312 -7.3349609375 168.997070312 c 2,7,-1
 85.8984375 168.997070312 l 2,8,9
 380.578107259 168.997070312 380.578107259 168.997070312 398.650998092 353.786431559 c 2,10,-1
 421.552822596 587.96484375 l 1,11,-1
 517.937381418 587.96484375 l 1,12,-1
 542.90197371 353.536189247 l 2,13,14
 547.849873072 308.353536016 547.849873072 308.353536016 564.610855742 273.680458739 c 128,-1,15
 581.371838412 239.007381463 581.371838412 239.007381463 609.05348079 215.851444718 c 128,-1,16
 636.735123167 192.695507974 636.735123167 192.695507974 675.104019241 180.846289143 c 128,-1,17
 713.472915314 168.997070312 713.472915314 168.997070312 761.557617188 168.997070312 c 2,18,-1
 777.954168047 168.997070312 l 1,19,20
 785.608398438 152.675290193 785.608398438 152.675290193 785.608398438 101.455078125 c 2,21,-1
 785.608416442 84.4431481269 l 2,22,23
 785.39067299 35.3613201306 785.39067299 35.3613201306 778.029077634 19 c 1,24,-1
 763.141601562 19 l 2,25,26
 572.574387261 19 572.574387261 19 491.046223994 140.756578428 c 2,27,-1
 474.574900717 165.359669897 l 1,28,-1
 454.808071593 143.312916557 l 2,29,30
 343.375685391 19 343.375685391 19 90.189453125 19 c 2,31,-1
 -7.3349609375 19 l 2,0,1
EndSplineSet
EndChar

StartChar: uniFE73
Encoding: 65139 65139 127
Width: 672
VWidth: 2673
GlyphClass: 2
Flags: W
AnchorPoint: "Anchor-10" 248.454 1557.52 basechar 0
AnchorPoint: "Anchor-7" 248.454 -151.098 basechar 0
LayerCount: 2
Fore
SplineSet
320.426240197 408.325195312 m 1,0,1
 322.306454648 363.641042186 322.306454648 363.641042186 342.08792363 323.048692553 c 128,-1,2
 361.869392612 282.45634292 361.869392612 282.45634292 399.048758504 245.277472898 c 0,3,4
 435.815958065 208.507056705 435.815958065 208.507056705 492.792646963 190.473684808 c 0,5,6
 547.804951729 173.060546875 547.804951729 173.060546875 621.719726562 173.060546875 c 2,7,-1
 671.1875 173.060546875 l 1,8,-1
 671.1875 29.4404296875 l 1,9,-1
 549.430664062 29.4404296875 l 2,10,11
 383.140517017 29.4404296875 383.140517017 29.4404296875 276.605012881 135.975005741 c 0,12,13
 176.641601562 235.939342125 176.641601562 235.939342125 176.641601562 400.916992188 c 2,14,-1
 176.641601562 408.325195312 l 1,15,-1
 320.426240197 408.325195312 l 1,0,1
EndSplineSet
EndChar

StartChar: uniFE8E
Encoding: 65166 65166 153
Width: 559
VWidth: 2673
GlyphClass: 2
Flags: W
AnchorPoint: "Anchor-10" 247.848 1686.01 basechar 0
AnchorPoint: "Anchor-7" 269.956 -308.324 basechar 0
LayerCount: 2
Fore
SplineSet
561.227834326 19 m 1,0,-1
 545.928710938 19 l 2,1,2
 368.342661446 19 368.342661446 19 280.666936192 131.545288559 c 0,3,4
 192.991210938 244.090577118 192.991210938 244.090577118 192.991210938 477.540039062 c 2,5,-1
 192.991210938 1499.36914062 l 1,6,-1
 330.11328125 1499.36914062 l 1,7,-1
 330.113286736 489.088656814 l 2,8,9
 329.9955335 334.129459432 329.9955335 334.129459432 385.473354909 253.032425746 c 0,10,11
 442.981263487 168.997070312 442.981263487 168.997070312 548.688476562 168.997070312 c 2,12,-1
 560.893261904 168.997070312 l 1,13,14
 568.546875 152.677031085 568.546875 152.677031085 568.546875 101.455078125 c 2,15,-1
 568.546875 84.3659994148 l 2,16,17
 568.679065874 59.7388965422 568.679065874 59.7388965422 566.385164611 42.28563186 c 0,18,19
 564.091263347 24.8323671777 564.091263347 24.8323671777 561.227834326 19 c 1,0,-1
EndSplineSet
EndChar

StartChar: uniFEA2
Encoding: 65186 65186 173
Width: 1478
VWidth: 2673
GlyphClass: 2
Flags: W
AnchorPoint: "Anchor-10" 623.168 1394.32 basechar 0
AnchorPoint: "Anchor-7" 471.381 -800.801 basechar 0
LayerCount: 2
Fore
SplineSet
890.097949162 -686.036131987 m 0,0,1
 529.554944232 -686.097543638 529.554944232 -686.097543638 352.597825364 -551.778109717 c 0,2,3
 178.092860255 -419.319984946 178.092860255 -419.319984946 179.063326379 -151.974958208 c 0,4,5
 179.497357055 -42.8133877872 179.497357055 -42.8133877872 208.337248957 50.2643457286 c 0,6,7
 237.060755899 142.966458962 237.060755899 142.966458962 294.175450428 220.108236804 c 0,8,9
 322.782652159 258.746461499 322.782652159 258.746461499 358.580022435 293.53345926 c 128,-1,10
 394.37739271 328.32045702 394.37739271 328.32045702 437.463227056 359.292221788 c 128,-1,11
 480.670490077 390.352094338 480.670490077 390.352094338 531.269405235 417.576530233 c 128,-1,12
 581.868320392 444.800966129 581.868320392 444.800966129 639.866803573 468.145642478 c 0,13,14
 756.305970446 515.012019178 756.305970446 515.012019178 902.214897959 546.022809626 c 2,15,-1
 966.259046026 559.63906941 l 1,16,-1
 907.769355909 589.066396453 l 2,17,18
 879.723592678 603.177748894 879.723592678 603.177748894 741.699429778 648.46797548 c 0,19,20
 597.45169809 695.457449522 597.45169809 695.457449522 522.485430237 694.33131833 c 0,21,22
 391.291519491 692.133299914 391.291519491 692.133299914 230.462922618 520.102010699 c 1,23,-1
 127.677346442 594.821215509 l 1,24,-1
 136.502060027 606.686884995 l 2,25,26
 309.323947811 838.91044906 309.323947811 838.91044906 535.120265439 837.00371461 c 0,27,28
 661.837577397 835.851851272 661.837577397 835.851851272 881.772646206 747.12848792 c 0,29,30
 968.003014423 712.608465438 968.003014423 712.608465438 1042.52258694 685.95328096 c 128,-1,31
 1117.04215945 659.298096482 1117.04215945 659.298096482 1179.39136799 640.66056084 c 128,-1,32
 1241.74057652 622.023025198 1241.74057652 622.023025198 1291.73037466 611.450301184 c 1,33,-1
 1285.77901172 459.241860789 l 1,34,35
 1203.23372507 457.482184027 1203.23372507 457.482184027 1138.81738647 446.905749826 c 2,36,-1
 1119.546875 443.738917521 l 1,37,-1
 1119.546875 424.209960938 l 2,38,39
 1119.546875 295.685546379 1119.546875 295.685546379 1207.53181811 231.465936791 c 128,-1,40
 1295.51676121 167.246327203 1295.51676121 167.246327203 1462.50984036 168.800636708 c 2,41,-1
 1479.78689137 168.962328901 l 1,42,43
 1482.80425545 162.726820573 1482.80425545 162.726820573 1484.98318241 146.097061766 c 128,-1,44
 1487.16210938 129.46730296 1487.16210938 129.46730296 1487.16210938 105.715820312 c 2,45,-1
 1487.16212738 84.4431481273 l 2,46,47
 1487.12841811 59.9563394115 1487.12841811 59.9563394115 1484.78763502 42.4735910164 c 128,-1,48
 1482.44685192 24.9908426213 1482.44685192 24.9908426213 1479.58278857 19 c 1,49,-1
 1463.16503906 19 l 2,50,51
 1311.74204653 19 1311.74204653 19 1212.71968217 60.9924096768 c 128,-1,52
 1113.69731781 102.984819354 1113.69731781 102.984819354 1065.22664694 186.893831868 c 128,-1,53
 1016.75597606 270.802844382 1016.75597606 270.802844382 1016.41790194 398.534762418 c 2,54,-1
 1016.3449049 426.060262199 l 1,55,-1
 989.270388764 421.096788067 l 2,56,57
 652.729325523 359.403720759 652.729325523 359.403720759 482.269797978 217.541593645 c 0,58,59
 395.956564856 145.708745748 395.956564856 145.708745748 352.340638754 52.8095494201 c 128,-1,60
 308.724712652 -40.0896469075 308.724712652 -40.0896469075 308.652385805 -152.241273707 c 0,61,62
 308.558865151 -196.689829721 308.558865151 -196.689829721 316.039985044 -236.276115034 c 128,-1,63
 323.521104937 -275.862400347 323.521104937 -275.862400347 338.401545394 -310.218173053 c 128,-1,64
 353.281985851 -344.573945759 353.281985851 -344.573945759 375.519781766 -374.074797271 c 128,-1,65
 397.757577682 -403.575648782 397.757577682 -403.575648782 427.128713515 -427.951593317 c 128,-1,66
 456.499849348 -452.327537853 456.499849348 -452.327537853 493.014301922 -471.849360292 c 128,-1,67
 529.528754497 -491.371182731 529.528754497 -491.371182731 572.910566342 -505.873703825 c 128,-1,68
 616.292378187 -520.376224919 616.292378187 -520.376224919 666.603468056 -530.025423015 c 128,-1,69
 716.914557925 -539.674621111 716.914557925 -539.674621111 773.827026418 -544.410123493 c 128,-1,70
 830.739494911 -549.145625875 830.739494911 -549.145625875 894.36395634 -549.035154765 c 0,71,72
 1102.24370343 -548.952976308 1102.24370343 -548.952976308 1274.79957341 -494.988182287 c 1,73,-1
 1301.69701245 -628.388496729 l 1,74,75
 1211.84937418 -657.257298165 1211.84937418 -657.257298165 1109.0380756 -671.676301921 c 128,-1,76
 1006.22677702 -686.095305677 1006.22677702 -686.095305677 890.097949162 -686.036131987 c 0,0,1
EndSplineSet
EndChar

StartChar: uniFEA3
Encoding: 65187 65187 174
Width: 1451
VWidth: 2673
GlyphClass: 2
Flags: W
AnchorPoint: "Anchor-10" 516.584 1339.16 basechar 0
AnchorPoint: "Anchor-7" 706.593 -316.924 basechar 0
LayerCount: 2
Fore
SplineSet
-6.26953125 19 m 2,0,1
 -36.2602889049 19 -36.2602889049 19 -49.2380546087 33.6136763487 c 128,-1,2
 -62.2158203125 48.2273526974 -62.2158203125 48.2273526974 -62.2158203125 84.4111328125 c 2,3,-1
 -62.2158793901 101.407697261 l 2,4,5
 -62.1225944217 138.815391727 -62.1225944217 138.815391727 -49.0222470506 153.90623102 c 128,-1,6
 -35.9218996796 168.997070312 -35.9218996796 168.997070312 -6.26953125 168.997070312 c 2,7,-1
 167.741322209 168.997070312 l 2,8,9
 675.003004334 169.000041012 675.003004334 169.000041012 1085.49634987 500.83642162 c 2,10,-1
 1111.27520075 521.675640246 l 1,11,-1
 1080.26445571 533.386997005 l 2,12,13
 960.114151873 578.762336124 960.114151873 578.762336124 804.523038439 632.407360258 c 0,14,15
 646.063438296 687.041387139 646.063438296 687.041387139 565.75326756 685.998397909 c 0,16,17
 483.41882653 684.929119454 483.41882653 684.929119454 406.400108213 636.593234165 c 0,18,19
 337.123279173 593.116051802 337.123279173 593.116051802 260.489520866 511.358772285 c 1,20,-1
 157.689156959 586.088726925 l 1,21,-1
 166.512156291 597.951948133 l 2,22,23
 338.518497875 828.969130516 338.518497875 828.969130516 554.546604581 828.270781925 c 0,24,25
 693.205753364 827.033110557 693.205753364 827.033110557 879.347590346 751.397641177 c 0,26,27
 1209.66047367 617.180796764 1209.66047367 617.180796764 1328.2312168 592.188426363 c 1,28,-1
 1316.10143671 456.171858438 l 1,29,30
 1284.36708553 447.0531907 1284.36708553 447.0531907 1222.48334993 411.102598348 c 128,-1,31
 1160.59961433 375.152005997 1160.59961433 375.152005997 1060.17626107 308.412910803 c 0,32,33
 624.266936975 19 624.266936975 19 145.171875 19 c 2,34,-1
 -6.26953125 19 l 2,0,1
EndSplineSet
EndChar

StartChar: uniFEA4
Encoding: 65188 65188 175
Width: 1517
VWidth: 2673
GlyphClass: 2
Flags: W
AnchorPoint: "Anchor-10" 533.938 1358.84 basechar 0
AnchorPoint: "Anchor-7" 672.312 -306.566 basechar 0
LayerCount: 2
Fore
SplineSet
1328.23121247 592.188427276 m 1,0,-1
 1316.14276485 456.635728846 l 1,1,2
 1279.08054839 447.989976574 1279.08054839 447.989976574 1204.27613798 406.589664289 c 2,3,-1
 1194.2529947 401.042380924 l 1,4,-1
 1194.52729515 387.223820206 l 2,5,6
 1196.41743925 278.699064777 1196.41743925 278.699064777 1272.64719139 223.848067545 c 128,-1,7
 1348.87694353 168.997070312 1348.87694353 168.997070312 1490.75097656 168.997070312 c 2,8,-1
 1519.59632773 168.997070312 l 1,9,10
 1522.63569714 162.715985106 1522.63569714 162.715985106 1524.81150091 146.109727486 c 128,-1,11
 1526.98730469 129.503469867 1526.98730469 129.503469867 1526.98730469 105.715820312 c 2,12,-1
 1526.9873049 84.4141348139 l 2,13,14
 1526.99099229 59.8949828328 1526.99099229 59.8949828328 1524.63687921 42.3401201555 c 128,-1,15
 1522.28276613 24.7852574781 1522.28276613 24.7852574781 1519.46690115 19 c 1,16,-1
 1485.76855469 19 l 2,17,18
 1362.11291307 19 1362.11291307 19 1279.13968808 50.6423266063 c 128,-1,19
 1196.16646308 82.2846532126 1196.16646308 82.2846532126 1152.4967741 144.908255297 c 128,-1,20
 1108.82708511 207.531857382 1108.82708511 207.531857382 1101.5680118 302.697049663 c 2,21,-1
 1098.52378904 342.606282061 l 1,22,-1
 1071.20818141 323.453312196 l 2,23,24
 637.002558277 19 637.002558277 19 145.171875 19 c 2,25,-1
 -6.26953125 19 l 2,26,27
 -36.2602889049 19 -36.2602889049 19 -49.2380546087 33.6136763487 c 128,-1,28
 -62.2158203125 48.2273526974 -62.2158203125 48.2273526974 -62.2158203125 84.4111328125 c 2,29,-1
 -62.2158856667 105.665986044 l 2,30,31
 -62.1537544182 129.354297662 -62.1537544182 129.354297662 -56.2745731149 143.20242528 c 128,-1,32
 -50.3953918117 157.050552897 -50.3953918117 157.050552897 -38.4121563804 163.023811605 c 128,-1,33
 -26.4289209491 168.997070312 -26.4289209491 168.997070312 -6.26953125 168.997070312 c 2,34,-1
 167.741322431 168.997070312 l 2,35,36
 673.909561253 169.000040545 673.909561253 169.000040545 1085.48761756 500.817770248 c 2,37,-1
 1111.33786171 521.658456953 l 1,38,-1
 1080.27251664 533.385079675 l 2,39,40
 1056.18817278 542.476496921 1056.18817278 542.476496921 1027.6644731 552.926195433 c 128,-1,41
 999.140773407 563.375893946 999.140773407 563.375893946 966.172932858 575.185663944 c 128,-1,42
 933.205092309 586.995433942 933.205092309 586.995433942 895.808260972 600.160632305 c 128,-1,43
 858.411429634 613.325830667 858.411429634 613.325830667 816.534422661 627.864716312 c 0,44,45
 731.042038301 657.546016138 731.042038301 657.546016138 669.0817707 672.040831929 c 128,-1,46
 607.121503099 686.535647721 607.121503099 686.535647721 565.75326756 685.998397909 c 0,47,48
 483.41882653 684.929119454 483.41882653 684.929119454 406.400108213 636.593234165 c 0,49,50
 337.123279173 593.116051802 337.123279173 593.116051802 260.489520866 511.358772285 c 1,51,-1
 157.689156959 586.088726925 l 1,52,-1
 166.504377408 597.94150799 l 2,53,54
 339.478516491 829.926483892 339.478516491 829.926483892 554.492522157 828.271264665 c 0,55,56
 693.205753364 827.033110557 693.205753364 827.033110557 879.347590346 751.397641177 c 0,57,58
 1209.66047367 617.180796764 1209.66047367 617.180796764 1328.23121247 592.188427276 c 1,0,-1
EndSplineSet
EndChar

StartChar: uniFEAA
Encoding: 65194 65194 181
Width: 1208
VWidth: 2673
GlyphClass: 2
Flags: W
AnchorPoint: "Anchor-10" 432.756 1454.53 basechar 0
AnchorPoint: "Anchor-7" 387.935 -301.569 basechar 0
LayerCount: 2
Fore
SplineSet
1210.08767138 19 m 1,0,-1
 1184.89160156 19 l 2,1,2
 1114.87948185 19 1114.87948185 19 1053.02095663 54.0705278936 c 0,3,4
 990.175564078 89.6996308005 990.175564078 89.6996308005 934.869359615 162.074575973 c 2,5,-1
 917.211488787 185.178594561 l 1,6,-1
 898.831269683 162.718863412 l 2,7,8
 779.986639142 19.2627463327 779.986639142 19.2627463327 424.325681314 17.8249758987 c 0,9,10
 243.118032366 16.9541116962 243.118032366 16.9541116962 125.369140625 42.6143892971 c 1,11,-1
 125.369140625 194.751804717 l 1,12,13
 281.391423426 163.703837893 281.391423426 163.703837893 440.51942173 164.123097949 c 0,14,15
 640.671570637 163.659008846 640.671570637 163.659008846 734.596196646 208.285914687 c 0,16,17
 784.012916758 231.751192732 784.012916758 231.751192732 796.943285455 278.561928472 c 128,-1,18
 809.873654153 325.372664211 809.873654153 325.372664211 786.470794094 384.910245566 c 0,19,20
 759.535340045 456.479433695 759.535340045 456.479433695 714.867153879 559.961336281 c 2,21,-1
 549.7780271 942.42893765 l 1,22,-1
 680.095858413 1007.30593766 l 1,23,-1
 920.525103908 456.005839571 l 2,24,25
 981.618694773 315.649927404 981.618694773 315.649927404 1048.22407602 244.157060233 c 0,26,27
 1118.2448941 168.997070312 1118.2448941 168.997070312 1196.16992188 168.997070312 c 2,28,-1
 1210.0127618 168.997070312 l 1,29,30
 1217.66699219 152.675290192 1217.66699219 152.675290192 1217.66699219 101.455078125 c 2,31,-1
 1217.66701019 84.4431481273 l 2,32,33
 1217.44926674 35.361320131 1217.44926674 35.361320131 1210.08767138 19 c 1,0,-1
EndSplineSet
EndChar

StartChar: uniFEAE
Encoding: 65198 65198 185
Width: 945
VWidth: 2673
GlyphClass: 2
Flags: W
AnchorPoint: "Anchor-10" 523.685 990.642 basechar 0
AnchorPoint: "Anchor-7" 335.657 -789.636 basechar 0
LayerCount: 2
Fore
SplineSet
513.083114084 482.41466323 m 1,0,-1
 640.009796977 544.332537681 l 1,1,-1
 723.873814807 322.871635557 l 2,2,3
 752.595026008 247.679950891 752.595026008 247.679950891 800.494405645 208.852600903 c 0,4,5
 824.965757499 189.015521505 824.965757499 189.015521505 854.327116018 179.006295908 c 128,-1,6
 883.688474538 168.997070312 883.688474538 168.997070312 916.939453125 168.997070312 c 2,7,-1
 947.170470612 168.997070312 l 1,8,9
 954.5625 153.721134227 954.5625 153.721134227 954.5625 105.715820312 c 2,10,-1
 954.562518004 84.4431481269 l 2,11,12
 954.528808736 59.9563394121 954.528808736 59.9563394121 952.188025638 42.4735910159 c 128,-1,13
 949.847242541 24.9908426198 949.847242541 24.9908426198 946.983179196 19 c 1,14,-1
 925.7421875 19 l 2,15,16
 813.662972333 19 813.662972333 19 777.956900246 62.7387172843 c 2,17,-1
 741.946940676 106.851338896 l 1,18,-1
 737.218952579 50.1042513913 l 2,19,20
 724.926782322 -97.3999008961 724.926782322 -97.3999008961 641.916888545 -222.523349003 c 0,21,22
 481.534548927 -464.005299594 481.534548927 -464.005299594 43.9760036408 -508.579267723 c 1,23,-1
 19.6897705854 -373.816956082 l 1,24,25
 396.413456524 -334.249601852 396.413456524 -334.249601852 539.403740872 -128.903133289 c 0,26,27
 607.389312219 -30.3240034637 607.389312219 -30.3240034637 607.232397153 111.004505992 c 0,28,29
 607.38703797 206.865745879 607.38703797 206.865745879 574.807514728 322.778117286 c 0,30,31
 565.239116995 357.242077601 565.239116995 357.242077601 553.885452054 388.915661456 c 0,32,33
 552.261682099 393.44513252 552.261682099 393.44513252 550.611919741 397.893011804 c 128,-1,34
 548.962157383 402.340891087 548.962157383 402.340891087 547.283674208 406.714168395 c 128,-1,35
 545.605191033 411.087445702 545.605191033 411.087445702 543.900371216 415.379529603 c 128,-1,36
 542.1955514 419.671613504 542.1955514 419.671613504 540.461723683 423.888951921 c 128,-1,37
 538.727895965 428.106290338 538.727895965 428.106290338 536.967383558 432.242869847 c 128,-1,38
 535.206871151 436.379449357 535.206871151 436.379449357 533.41706376 440.441139875 c 128,-1,39
 531.627256368 444.502830393 531.627256368 444.502830393 529.810420049 448.484160377 c 0,40,41
 528.480415571 451.398439531 528.480415571 451.398439531 527.088096001 454.365343005 c 128,-1,42
 525.695776432 457.332246478 525.695776432 457.332246478 524.298185011 460.232783333 c 128,-1,43
 522.900593591 463.133320189 522.900593591 463.133320189 521.480120874 466.011302102 c 128,-1,44
 520.059648157 468.889284016 520.059648157 468.889284016 518.648352219 471.678164623 c 128,-1,45
 517.237056281 474.46704523 517.237056281 474.46704523 515.84397852 477.15469533 c 128,-1,46
 514.450900759 479.84234543 514.450900759 479.84234543 513.083114084 482.41466323 c 1,0,-1
EndSplineSet
PairPos2: "'kern' Horizontal Kerning lookup 15-2" uniFBFE dx=53 dy=0 dh=53 dv=0 dx=0 dy=0 dh=0 dv=0
PairPos2: "'kern' Horizontal Kerning lookup 15-1" uniFEE7 dx=-160 dy=0 dh=-160 dv=0 dx=0 dy=0 dh=0 dv=0
PairPos2: "'kern' Horizontal Kerning lookup 15-2" uniFB90 dx=-202 dy=0 dh=-202 dv=0 dx=0 dy=0 dh=0 dv=0
PairPos2: "'kern' Horizontal Kerning lookup 15-2" uniFB8E dx=-202 dy=0 dh=-202 dv=0 dx=0 dy=0 dh=0 dv=0
PairPos2: "'kern' Horizontal Kerning lookup 15-2" uni06A9 dx=-202 dy=0 dh=-202 dv=0 dx=0 dy=0 dh=0 dv=0
PairPos2: "'kern' Horizontal Kerning lookup 15-2" uni064A dx=-53 dy=0 dh=-53 dv=0 dx=0 dy=0 dh=0 dv=0
PairPos2: "'kern' Horizontal Kerning lookup 15-2" afii57414 dx=-53 dy=0 dh=-53 dv=0 dx=0 dy=0 dh=0 dv=0
PairPos2: "'kern' Horizontal Kerning lookup 15-2" uni0649 dx=-53 dy=0 dh=-53 dv=0 dx=0 dy=0 dh=0 dv=0
PairPos2: "'kern' Horizontal Kerning lookup 15-2" uniFEEB dx=-160 dy=0 dh=-160 dv=0 dx=0 dy=0 dh=0 dv=0
PairPos2: "'kern' Horizontal Kerning lookup 15-2" uni0647 dx=-160 dy=0 dh=-160 dv=0 dx=0 dy=0 dh=0 dv=0
PairPos2: "'kern' Horizontal Kerning lookup 15-2" uni0646 dx=-53 dy=0 dh=-53 dv=0 dx=0 dy=0 dh=0 dv=0
PairPos2: "'kern' Horizontal Kerning lookup 15-2" uniFEE3 dx=-160 dy=0 dh=-160 dv=0 dx=0 dy=0 dh=0 dv=0
PairPos2: "'kern' Horizontal Kerning lookup 15-2" uni0645 dx=-160 dy=0 dh=-160 dv=0 dx=0 dy=0 dh=0 dv=0
PairPos2: "'kern' Horizontal Kerning lookup 15-2" uniFEFB dx=-128 dy=0 dh=-128 dv=0 dx=0 dy=0 dh=0 dv=0
PairPos2: "'kern' Horizontal Kerning lookup 15-2" uniFEDF dx=-128 dy=0 dh=-128 dv=0 dx=0 dy=0 dh=0 dv=0
PairPos2: "'kern' Horizontal Kerning lookup 15-2" uni0644 dx=-53 dy=0 dh=-53 dv=0 dx=0 dy=0 dh=0 dv=0
PairPos2: "'kern' Horizontal Kerning lookup 15-2" uniFEDB dx=-202 dy=0 dh=-202 dv=0 dx=0 dy=0 dh=0 dv=0
PairPos2: "'kern' Horizontal Kerning lookup 15-2" uni0643 dx=-128 dy=0 dh=-128 dv=0 dx=0 dy=0 dh=0 dv=0
PairPos2: "'kern' Horizontal Kerning lookup 15-2" uniFED7 dx=-160 dy=0 dh=-160 dv=0 dx=0 dy=0 dh=0 dv=0
PairPos2: "'kern' Horizontal Kerning lookup 15-2" uni0642 dx=-53 dy=0 dh=-53 dv=0 dx=0 dy=0 dh=0 dv=0
PairPos2: "'kern' Horizontal Kerning lookup 15-2" uniFED3 dx=-160 dy=0 dh=-160 dv=0 dx=0 dy=0 dh=0 dv=0
PairPos2: "'kern' Horizontal Kerning lookup 15-2" uni0641 dx=-160 dy=0 dh=-160 dv=0 dx=0 dy=0 dh=0 dv=0
PairPos2: "'kern' Horizontal Kerning lookup 15-2" uniFECF dx=-160 dy=0 dh=-160 dv=0 dx=0 dy=0 dh=0 dv=0
PairPos2: "'kern' Horizontal Kerning lookup 15-2" uniFECB dx=-160 dy=0 dh=-160 dv=0 dx=0 dy=0 dh=0 dv=0
PairPos2: "'kern' Horizontal Kerning lookup 15-2" uniFEC7 dx=-160 dy=0 dh=-160 dv=0 dx=0 dy=0 dh=0 dv=0
PairPos2: "'kern' Horizontal Kerning lookup 15-2" uni0638 dx=-160 dy=0 dh=-160 dv=0 dx=0 dy=0 dh=0 dv=0
PairPos2: "'kern' Horizontal Kerning lookup 15-2" uniFEC3 dx=-160 dy=0 dh=-160 dv=0 dx=0 dy=0 dh=0 dv=0
PairPos2: "'kern' Horizontal Kerning lookup 15-2" uni0637 dx=-160 dy=0 dh=-160 dv=0 dx=0 dy=0 dh=0 dv=0
PairPos2: "'kern' Horizontal Kerning lookup 15-2" uniFEBF dx=-160 dy=0 dh=-160 dv=0 dx=0 dy=0 dh=0 dv=0
PairPos2: "'kern' Horizontal Kerning lookup 15-2" uni0636 dx=-160 dy=0 dh=-160 dv=0 dx=0 dy=0 dh=0 dv=0
PairPos2: "'kern' Horizontal Kerning lookup 15-2" uniFEBB dx=-160 dy=0 dh=-160 dv=0 dx=0 dy=0 dh=0 dv=0
PairPos2: "'kern' Horizontal Kerning lookup 15-2" uni0635 dx=-160 dy=0 dh=-160 dv=0 dx=0 dy=0 dh=0 dv=0
PairPos2: "'kern' Horizontal Kerning lookup 15-2" uniFEB7 dx=-160 dy=0 dh=-160 dv=0 dx=0 dy=0 dh=0 dv=0
PairPos2: "'kern' Horizontal Kerning lookup 15-2" uni0634 dx=-160 dy=0 dh=-160 dv=0 dx=0 dy=0 dh=0 dv=0
PairPos2: "'kern' Horizontal Kerning lookup 15-2" uniFEB3 dx=-160 dy=0 dh=-160 dv=0 dx=0 dy=0 dh=0 dv=0
PairPos2: "'kern' Horizontal Kerning lookup 15-2" uni0633 dx=-160 dy=0 dh=-160 dv=0 dx=0 dy=0 dh=0 dv=0
PairPos2: "'kern' Horizontal Kerning lookup 15-2" uni0630 dx=-160 dy=0 dh=-160 dv=0 dx=0 dy=0 dh=0 dv=0
PairPos2: "'kern' Horizontal Kerning lookup 15-2" uni062F dx=-160 dy=0 dh=-160 dv=0 dx=0 dy=0 dh=0 dv=0
PairPos2: "'kern' Horizontal Kerning lookup 15-2" uniFEA7 dx=-160 dy=0 dh=-160 dv=0 dx=0 dy=0 dh=0 dv=0
PairPos2: "'kern' Horizontal Kerning lookup 15-2" uniFEA3 dx=-160 dy=0 dh=-160 dv=0 dx=0 dy=0 dh=0 dv=0
PairPos2: "'kern' Horizontal Kerning lookup 15-2" uniFE9F dx=-160 dy=0 dh=-160 dv=0 dx=0 dy=0 dh=0 dv=0
PairPos2: "'kern' Horizontal Kerning lookup 15-2" uniFE9B dx=-160 dy=0 dh=-160 dv=0 dx=0 dy=0 dh=0 dv=0
PairPos2: "'kern' Horizontal Kerning lookup 15-2" uni062B dx=-160 dy=0 dh=-160 dv=0 dx=0 dy=0 dh=0 dv=0
PairPos2: "'kern' Horizontal Kerning lookup 15-2" uniFE97 dx=-160 dy=0 dh=-160 dv=0 dx=0 dy=0 dh=0 dv=0
PairPos2: "'kern' Horizontal Kerning lookup 15-2" uni062A dx=-160 dy=0 dh=-160 dv=0 dx=0 dy=0 dh=0 dv=0
PairPos2: "'kern' Horizontal Kerning lookup 15-2" uni0629 dx=-160 dy=0 dh=-160 dv=0 dx=0 dy=0 dh=0 dv=0
PairPos2: "'kern' Horizontal Kerning lookup 15-2" uniFE91 dx=-53 dy=0 dh=-53 dv=0 dx=0 dy=0 dh=0 dv=0
PairPos2: "'kern' Horizontal Kerning lookup 15-2" uni0628 dx=-160 dy=0 dh=-160 dv=0 dx=0 dy=0 dh=0 dv=0
PairPos2: "'kern' Horizontal Kerning lookup 15-2" uni0627 dx=-128 dy=0 dh=-128 dv=0 dx=0 dy=0 dh=0 dv=0
PairPos2: "'kern' Horizontal Kerning lookup 15-2" uni0623 dx=-128 dy=0 dh=-128 dv=0 dx=0 dy=0 dh=0 dv=0
PairPos2: "'kern' Horizontal Kerning lookup 15-2" uni0622 dx=-128 dy=0 dh=-128 dv=0 dx=0 dy=0 dh=0 dv=0
PairPos2: "'kern' Horizontal Kerning lookup 15-2" uni0621 dx=-160 dy=0 dh=-160 dv=0 dx=0 dy=0 dh=0 dv=0
PairPos2: "'kern' Horizontal Kerning lookup 15-2" uniFB94 dx=-202 dy=0 dh=-202 dv=0 dx=0 dy=0 dh=0 dv=0
PairPos2: "'kern' Horizontal Kerning lookup 15-2" uniFB92 dx=-202 dy=0 dh=-202 dv=0 dx=0 dy=0 dh=0 dv=0
PairPos2: "'kern' Horizontal Kerning lookup 15-2" uni06AF dx=-202 dy=0 dh=-202 dv=0 dx=0 dy=0 dh=0 dv=0
PairPos2: "'kern' Horizontal Kerning lookup 15-2" afii57506 dx=-160 dy=0 dh=-160 dv=0 dx=0 dy=0 dh=0 dv=0
PairPos2: "'kern' Horizontal Kerning lookup 15-2" afii57440 dx=-160 dy=0 dh=-160 dv=0 dx=0 dy=0 dh=0 dv=0
PairPos2: "'kern' Horizontal Kerning lookup 15-2" uniFE8B dx=-160 dy=0 dh=-160 dv=0 dx=0 dy=0 dh=0 dv=0
EndChar

StartChar: uniFEB2
Encoding: 65202 65202 189
Width: 2615
VWidth: 2673
GlyphClass: 2
Flags: W
AnchorPoint: "Anchor-10" 748.049 1074.78 basechar 0
AnchorPoint: "Anchor-7" 454.086 -799.659 basechar 0
LayerCount: 2
Fore
SplineSet
2305.64498957 131.956812897 m 2,0,1
 2280.4461925 76.5843376363 2280.4461925 76.5843376363 2220.95763733 48.3248836619 c 128,-1,2
 2161.46908215 20.0654296875 2161.46908215 20.0654296875 2063.88964844 20.0654296875 c 0,3,4
 1872.45896022 20.0654296875 1872.45896022 20.0654296875 1807.65985407 147.037188039 c 2,5,-1
 1790.60838615 180.448989405 l 1,6,-1
 1773.76055737 146.934042088 l 2,7,8
 1708.93141758 17.971121577 1708.93141758 17.971121577 1523.70226383 18.441211378 c 0,9,10
 1485.37644168 18.614794615 1485.37644168 18.614794615 1453.93527738 26.3992496206 c 128,-1,11
 1422.49411308 34.1837046262 1422.49411308 34.1837046262 1398.12867245 49.1425482364 c 128,-1,12
 1373.76323182 64.1013918466 1373.76323182 64.1013918466 1355.19471849 86.5037766054 c 2,13,-1
 1321.78927651 126.806495012 l 1,14,-1
 1321.56657819 74.459737039 l 2,15,16
 1320.89722379 -82.8765780266 1320.89722379 -82.8765780266 1260.57857945 -209.05959161 c 0,17,18
 1131.22018389 -480.585158213 1131.22018389 -480.585158213 704.755960508 -480.765625935 c 0,19,20
 245.54138922 -480.621565279 245.54138922 -480.621565279 154.193946067 -122.317099996 c 0,21,22
 131.050230906 -30.4373056723 131.050230906 -30.4373056723 130.609311838 84.2081711649 c 0,23,24
 130.201573485 242.337775821 130.201573485 242.337775821 191.746500127 458.863675393 c 1,25,-1
 318.893441944 425.817754515 l 1,26,27
 268.465741002 224.364897655 268.465741002 224.364897655 268.868332926 91.3320044469 c 0,28,29
 269.463796009 -49.9039755575 269.463796009 -49.9039755575 319.87531663 -145.722254304 c 128,-1,30
 370.286837251 -241.540533051 370.286837251 -241.540533051 469.100987473 -289.999687621 c 128,-1,31
 567.915137695 -338.458842191 567.915137695 -338.458842191 713.195228322 -338.681537552 c 0,32,33
 947.221493807 -339.452401815 947.221493807 -339.452401815 1067.00744674 -229.85925441 c 128,-1,34
 1186.79339968 -120.266107004 1186.79339968 -120.266107004 1185.56518371 95.1806658059 c 0,35,36
 1185.28998979 149.261545222 1185.28998979 149.261545222 1176.36849467 210.785791517 c 128,-1,37
 1167.44699955 272.310037811 1167.44699955 272.310037811 1150.28615807 339.733878572 c 128,-1,38
 1133.1253166 407.157719333 1133.1253166 407.157719333 1107.80560957 480.768893254 c 1,39,-1
 1236.62652619 525.776756149 l 1,40,-1
 1297.99108909 338.024866233 l 2,41,42
 1311.42342801 296.81555248 1311.42342801 296.81555248 1332.96128705 265.289372639 c 128,-1,43
 1354.4991461 233.763192798 1354.4991461 233.763192798 1383.52870434 212.513296714 c 128,-1,44
 1412.55826259 191.26340063 1412.55826259 191.26340063 1449.07393201 180.299249394 c 128,-1,45
 1485.58960143 169.335098157 1485.58960143 169.335098157 1528.83724241 169.064985632 c 0,46,47
 1613.08086028 168.434250257 1613.08086028 168.434250257 1661.9598964 212.949567814 c 128,-1,48
 1710.83893252 257.46488537 1710.83893252 257.46488537 1719.44997182 342.395034339 c 2,49,-1
 1742.22479725 567.032226562 l 1,50,-1
 1836.10799455 567.032226562 l 1,51,-1
 1858.7555828 341.589517149 l 2,52,53
 1867.14421354 256.432430496 1867.14421354 256.432430496 1920.77514531 212.343198074 c 128,-1,54
 1974.40607709 168.253965652 1974.40607709 168.253965652 2067.22414323 168.638733425 c 0,55,56
 2145.62415479 168.838290898 2145.62415479 168.838290898 2190.81988757 211.054942002 c 128,-1,57
 2236.01562036 253.271593107 2236.01562036 253.271593107 2243.1789382 332.653379701 c 2,58,-1
 2266.22269428 587.96484375 l 1,59,-1
 2362.28070896 587.96484375 l 1,60,-1
 2387.38479792 332.537915983 l 2,61,62
 2395.11105136 252.05373744 2395.11105136 252.05373744 2448.57964659 210.525403876 c 128,-1,63
 2502.04824182 168.997070312 2502.04824182 168.997070312 2594.69042969 168.997070312 c 2,64,-1
 2617.14166805 168.997070312 l 1,65,66
 2624.79589844 152.675290192 2624.79589844 152.675290192 2624.79589844 101.455078125 c 2,67,-1
 2624.79591675 84.4433679241 l 2,68,69
 2624.72687802 34.7107429627 2624.72687802 34.7107429627 2617.21612885 19 c 1,70,-1
 2596.29101562 19 l 2,71,72
 2417.62467789 19 2417.62467789 19 2342.19710586 140.899803051 c 2,73,-1
 2323.48027615 171.148395095 l 1,74,-1
 2305.64498957 131.956812897 l 2,0,1
EndSplineSet
EndChar

StartChar: uniFEB3
Encoding: 65203 65203 190
Width: 1706
VWidth: 2673
GlyphClass: 2
Flags: W
AnchorPoint: "Anchor-10" 865.863 1163.24 basechar 0
AnchorPoint: "Anchor-7" 936.049 -334.735 basechar 0
LayerCount: 2
Fore
SplineSet
409.325604666 146.311057973 m 2,0,1
 346.212482954 19 346.212482954 19 85.4072265625 19 c 2,2,-1
 -6.26953125 19 l 2,3,4
 -36.2602889049 19 -36.2602889049 19 -49.2380546087 33.6136763487 c 128,-1,5
 -62.2158203125 48.2273526974 -62.2158203125 48.2273526974 -62.2158203125 84.4111328125 c 2,6,-1
 -62.2158793901 101.407697261 l 2,7,8
 -62.1225944217 138.815391727 -62.1225944217 138.815391727 -49.0222470506 153.90623102 c 128,-1,9
 -35.9218996796 168.997070312 -35.9218996796 168.997070312 -6.26953125 168.997070312 c 2,10,-1
 85.6047286579 168.997070313 l 2,11,12
 207.861016533 168.998591892 207.861016533 168.998591892 277.843431944 212.770992402 c 128,-1,13
 347.825847354 256.543392912 347.825847354 256.543392912 357.798608791 344.371987828 c 2,14,-1
 382.979329041 566.134765625 l 1,15,-1
 475.79207499 566.134765625 l 1,16,-1
 497.538490971 347.237782055 l 2,17,18
 501.96303432 301.503402403 501.96303432 301.503402403 517.492395124 266.229466407 c 128,-1,19
 533.021755929 230.955530412 533.021755929 230.955530412 558.899138317 207.126387686 c 128,-1,20
 584.776520704 183.297244961 584.776520704 183.297244961 621.019427816 170.965688152 c 128,-1,21
 657.262334927 158.634131343 657.262334927 158.634131343 702.800280248 158.500083014 c 0,22,23
 794.016933893 158.230440301 794.016933893 158.230440301 846.785671803 206.319026171 c 128,-1,24
 899.554409714 254.407612041 899.554409714 254.407612041 909.001702495 346.18933298 c 2,25,-1
 931.733543356 567.032226562 l 1,26,-1
 1025.71223379 567.032226562 l 1,27,-1
 1048.32658806 345.293858702 l 2,28,29
 1054.37253119 287.174951378 1054.37253119 287.174951378 1080.48742196 247.398304431 c 128,-1,30
 1106.60231272 207.621657483 1106.60231272 207.621657483 1151.22073054 187.733796584 c 128,-1,31
 1195.83914835 167.845935684 1195.83914835 167.845935684 1257.35628636 168.311509413 c 0,32,33
 1350.89699181 169.253104873 1350.89699181 169.253104873 1397.2860218 241.251876988 c 128,-1,34
 1443.67505178 313.250649102 1443.67505178 313.250649102 1443.32611058 446.648851312 c 0,35,36
 1443.17260843 507.0758424 1443.17260843 507.0758424 1434.53296819 566.568966647 c 128,-1,37
 1425.89332795 626.062090893 1425.89332795 626.062090893 1408.84376488 684.61848463 c 1,38,-1
 1545.220588 716.025359353 l 1,39,40
 1581.94013211 589.647171403 1581.94013211 589.647171403 1581.28523236 454.102606198 c 0,41,42
 1580.6572358 232.22989526 1580.6572358 232.22989526 1500.20911252 125.61494763 c 128,-1,43
 1419.76098925 19 1419.76098925 19 1257.76269531 19 c 0,44,45
 1069.05244543 19 1069.05244543 19 996.772943608 146.099484999 c 2,46,-1
 979.976369613 175.635326429 l 1,47,-1
 963.607110378 145.860535431 l 2,48,49
 928.144376021 81.3557531093 928.144376021 81.3557531093 865.132774094 49.6868547696 c 128,-1,50
 802.121172167 18.01795643 802.121172167 18.01795643 708.344502102 18.9540865395 c 0,51,52
 518.814728152 20.8904983522 518.814728152 20.8904983522 442.634219329 147.658779247 c 2,53,-1
 424.748389011 177.421719885 l 1,54,-1
 409.325604666 146.311057973 l 2,0,1
EndSplineSet
EndChar

StartChar: uniFEB4
Encoding: 65204 65204 191
Width: 1804
VWidth: 2667
GlyphClass: 2
Flags: W
AnchorPoint: "Anchor-10" 746.522 1157.09 basechar 0
AnchorPoint: "Anchor-7" 818.875 -302.797 basechar 0
LayerCount: 2
Fore
SplineSet
1576.1203992 332.485366669 m 2,0,1
 1584.02730815 252.03170918 1584.02730815 252.03170918 1637.48505054 210.514389746 c 128,-1,2
 1690.94279293 168.997070312 1690.94279293 168.997070312 1783.421875 168.997070312 c 2,3,-1
 1805.8721368 168.997070312 l 1,4,5
 1813.52636719 152.675290192 1813.52636719 152.675290192 1813.52636719 101.455078125 c 2,6,-1
 1813.52638489 84.4429283305 l 2,7,8
 1813.45849732 34.7106807901 1813.45849732 34.7106807901 1805.94749516 19 c 1,9,-1
 1785.02148438 19 l 2,10,11
 1737.94449523 19 1737.94449523 19 1698.31433204 26.476312738 c 0,12,13
 1690.45169881 27.9596498655 1690.45169881 27.9596498655 1682.88481235 29.7368983981 c 128,-1,14
 1675.31792588 31.5141469307 1675.31792588 31.5141469307 1668.08964755 33.5716922436 c 128,-1,15
 1660.86136922 35.6292375565 1660.86136922 35.6292375565 1653.92528006 37.9768833663 c 128,-1,16
 1646.9891909 40.3245291762 1646.9891909 40.3245291762 1640.38491085 42.9453302184 c 128,-1,17
 1633.7806308 45.5661312607 1633.7806308 45.5661312607 1627.46498232 48.4732218916 c 0,18,19
 1596.08975575 62.9152269335 1596.08975575 62.9152269335 1571.67367791 84.3944652185 c 128,-1,20
 1547.29466046 105.841100851 1547.29466046 105.841100851 1529.54180962 134.53167584 c 2,21,-1
 1506.8845326 171.14830625 l 1,22,-1
 1489.0493051 131.956853886 l 2,23,24
 1463.91035647 76.7163282909 1463.91035647 76.7163282909 1407.30925822 48.9230901658 c 0,25,26
 1348.567597 20.0796710968 1348.567597 20.0796710968 1254.71435519 20.0917967181 c 0,27,28
 1061.17600397 20.0669250595 1061.17600397 20.0669250595 999.980139587 140.00114743 c 2,29,-1
 979.341203649 180.453461871 l 1,30,-1
 958.944778811 139.87962656 l 2,31,32
 897.666840606 18.0033575968 897.666840606 18.0033575968 702.100220433 18.9547981243 c 0,33,34
 511.05570437 19.9919852475 511.05570437 19.9919852475 444.944358885 139.608408539 c 2,35,-1
 424.971550485 175.752622108 l 1,36,-1
 404.756690642 139.742095334 l 2,37,38
 336.98553095 19 336.98553095 19 84.580078125 19 c 2,39,-1
 -6.26953125 19 l 2,40,41
 -36.2602889049 19 -36.2602889049 19 -49.2380546087 33.6136763487 c 128,-1,42
 -62.2158203125 48.2273526974 -62.2158203125 48.2273526974 -62.2158203125 84.4111328125 c 2,43,-1
 -62.2158203125 101.455078125 l 2,44,45
 -62.2158203125 138.840549777 -62.2158203125 138.840549777 -49.1264825585 153.918810045 c 128,-1,46
 -36.0371448046 168.997070312 -36.0371448046 168.997070312 -6.26953125 168.997070312 c 2,47,-1
 84.7783203125 168.997070312 l 2,48,49
 207.308976519 168.997070312 207.308976519 168.997070312 277.328221363 211.734039068 c 128,-1,50
 347.347466206 254.471007824 347.347466206 254.471007824 356.978949177 340.582488655 c 2,51,-1
 382.205364018 566.134765625 l 1,52,-1
 474.917678845 566.134765625 l 1,53,-1
 496.711311482 343.390873791 l 2,54,55
 505.185203564 256.745005127 505.185203564 256.745005127 559.658508455 212.047296752 c 0,56,57
 613.305200731 168.026971357 613.305200731 168.026971357 707.845332796 168.141617727 c 0,58,59
 752.061062793 168.083940837 752.061062793 168.083940837 787.353084369 179.314821589 c 128,-1,60
 822.645105945 190.545702341 822.645105945 190.545702341 847.996778209 212.465546027 c 128,-1,61
 873.348450473 234.385389713 873.348450473 234.385389713 888.60797241 267.120709187 c 128,-1,62
 903.867494347 299.856028661 903.867494347 299.856028661 908.18043291 342.394958747 c 2,63,-1
 930.956173543 567.032226562 l 1,64,-1
 1024.83846329 567.032226562 l 1,65,-1
 1047.48605155 341.58951715 l 2,66,67
 1055.87468498 256.432403112 1055.87468498 256.432403112 1109.50560499 212.343184236 c 128,-1,68
 1163.13652501 168.253965359 1163.13652501 168.253965359 1255.95474127 168.638733754 c 0,69,70
 1334.35425003 168.838823456 1334.35425003 168.838823456 1379.55011669 211.055345872 c 128,-1,71
 1424.74598335 253.271868289 1424.74598335 253.271868289 1431.91038351 332.6533797 c 2,72,-1
 1454.9541396 587.96484375 l 1,73,-1
 1551.01117876 587.96484375 l 1,74,-1
 1576.1203992 332.485366669 l 2,0,1
EndSplineSet
EndChar

